<svg xmlns="http://www.w3.org/2000/svg" viewBox="0 0 1404.24 460.43"><defs><style>.cls-1{fill:#f9d08f;}.cls-2{fill:#c39659;}.cls-3{fill:#c69a5d;}.cls-4{fill:#95693a;}.cls-5{fill:#c2975a;}.cls-6{fill:#b48852;}.cls-7{fill:#875d34;}.cls-8{fill:#be9354;}.cls-9{fill:#865c2f;}.cls-10{fill:#b08349;}.cls-11{fill:#b1844d;}.cls-12{fill:#8a5f32;}.cls-13{fill:#936838;}.cls-14{fill:#eabf86;}.cls-15{fill:#91673e;}.cls-16{fill:#9a6f41;}.cls-17{fill:#9e703a;}.cls-18{fill:#a77b43;}.cls-19{fill:#f9cf90;}.cls-20{fill:#f9cd91;}.cls-21{fill:#d9ae6f;}.cls-22{fill:#d1a667;}.cls-23{fill:#c99e6b;}.cls-24{fill:#cda479;}.cls-25{fill:#f4c991;}.cls-26{fill:#cda16e;}.cls-27{fill:#cda168;}</style></defs><title>자산 7</title><g id="레이어_2" data-name="레이어 2"><g id="레이어_1-2" data-name="레이어 1"><path class="cls-1" d="M1364.18,157.95c20.92,14.54,35.41,33.62,39.09,59.24,3,21-.7,40.7-15.33,57.38a23.22,23.22,0,0,1-9.08,6.42q-17,7-34.07,13.93c-11.31,2.23-22.41,1-33.41-2-5.68-1.92-11.62-2.83-17.39-4.47-11.08-3.14-20.25-10-30.47-14.86-19.32-9.09-39.22-14-60.7-13.31-21.78.71-43.57-.83-65.36-1.17-12.45-.2-25,.15-37.39-.88-14.65-1.21-29.29-.18-43.9-.91-17.24-.86-34.53-.15-51.73-1.12-20.81-1.18-41.62.13-62.38-.92-26.54-1.34-53.09-1.55-79.64-2.16-13.63-.31-27.27-.44-40.9-.71-15.62-.31-31.23-1.49-46.83-1.48-13.95,0-27.89-.46-41.82-.73-20.1-.39-40.22,0-60.28-1-17-.85-33.93-.47-50.89-.61-21.15-1.25-42.35-.62-63.51-1.37-8.14-2.09-8.19-2.59-8.91-11.06A509,509,0,0,1,547.51,182a16.24,16.24,0,0,0-.69-4.9c-.65-7.57.14-8.39,7.67-7.76,3.12.26,6.28,0,9.38.57a21.29,21.29,0,0,0,5.92.73c17.94.41,35.89.44,53.81,1.11,25.94,1,51.89,1.34,77.84,2,19.94.52,39.92,0,59.81,1.11,16.14.87,32.27.17,48.4,1.06,6.6.36,13.23.78,19.88.78,17.14,0,34.3.47,51.4,1.21,16.66.71,33.31-.18,49.91.82s33,.06,49.4,1.12c13.33.87,26.63.14,39.92.8,29.59,1.46,59.21,1.63,88.82,2.15,14.81.26,29.64.53,44.45.6,24.32.12,48.62,2,72.94,1,20-.85,39.85-3.62,58.26-12.3,8.12-3.83,15.58-8.9,23.8-12.66,16.82-7.68,33.72-8.21,51-2.11C1361,157.89,1362.45,159,1364.18,157.95Z"/><path class="cls-2" d="M548,177c1.18,1.43.85,3.16.87,4.78.22,14.41-.4,28.83,1.06,43.21a94.39,94.39,0,0,1,.85,11.36c-.11,5.27.81,9.39,7.2,9.62-1.22,1.82-4,1.17-5.06,3.27l1.85,24.86a3.32,3.32,0,0,0-2.15,4c.8,3.77.41,7.62,1,11.41,1.53,9.94-2.58,16.23-12.54,17.87-13.88,2.29-27,6.86-39.92,12.14-9.3,3.79-17.67,9.2-26.21,14.3a98.65,98.65,0,0,1-9,4.66c-.38,0,.29.13.37.07,1.29-.91,2.46-.47,3.51.53-5.94,1.78-11.68,2-16.68-2.44-4.78-4.27-5.23-9.66-3.73-15.48l1.35-5.25c.79.57.94,1.3.85,1.51.17-1.59,1.44-3.58,2.14-6.48-16.26-.74-30.27,5.48-44.22,11.89-4.17,2.79-9.09,4-13.42,6.5a131.36,131.36,0,0,0-43.42,39.09c-1.63,2.32-2.29,5.21-4.32,7.24-1.57,1.57-2.73,3.91-5.57,3.53-1.12-1.87.23-3.05,1.19-4.37,3.55-4.92,6.63-10.16,10-15.21,4.77-5.76,9.49-11.57,14-17.5,7.09-9.21,13.44-19,20.27-28.38,8.45-11.66,19.44-20.53,30.71-29,10.06-7.62,19.11-16.55,30.72-23-5-3.83-10.13-6.16-14.61-9.5-5.78-4.32-10.75-9.44-15.85-14.47-4.73-4.67-4.38-11.13-5.28-16.81-1.49-9.39-1.2-18.91,4.5-27.39,4.34-6.46,7.68-13.5,13.9-18.73,8.24-6.92,17.73-11.1,27.72-14.37,3.11-1,4-1.74,1.46-4.47-4.24-4.57-8.1-9.34-6.25-16.41.5-1.92-.74-3.88-1.91-5.55-1.91-2.73-3.73-5.52-5.79-8.15-3.63-4.64-4-4.68-8.41-.56-.48.46-.89,1.1-1.5,1.3-8.85,2.9-15.41,9.82-23.83,13.5-9.28,4.06-16.59,11.09-24.48,17.16-6.19,4.76-12.65,9.2-18.44,14.52-3.71,3.4-7.31,6.74-9.85,11.16C352.45,198,343.87,213.16,337,229.25c-2.88,6.79-7.51,12.58-10.74,19.16-5.37,10.91-9.51,22.36-14.73,33.35a32,32,0,0,0-2.42,6.51,6.48,6.48,0,0,1-2.33,3.71c-1.45,1.06-3.05,1.47-4.6.37s-1.1-2.59-.57-4.05c1.34-3.72,3.46-7.16,4.13-11.12,4.55-12.51,9.34-24.94,16.38-36.3,4.1-6.61,6.13-14,8.82-21.14,4.28-11.36,8.31-22.81,13.2-33.94,1.94-4.41,2.64-9.29,3.37-14,1.59-10.36,3.49-20.66,5.21-31,.19-1.15.44-2.29.67-3.43.57-2.74,1.38-5.59,4.92-5s3.48,3.58,3,6.33c-2.26,13.29-4.71,26.54-7.51,40.8,6.19-10.34,14.36-17.33,23.2-23.73,8.63-6.25,8.54-6.66,1.15-14-5.42-5.41-11-10.72-16.21-16.28-4.44-4.7-9.51-5-15.06-2.84-3.57,1.38-7.06,3-10.56,4.51-6.42,1.92-10.7,7.18-16.3,10.39a25.39,25.39,0,0,1-2.9,1.92c-1.13.46-2.3.67-3.23-.33s-.44-2.16.18-3.18a4.49,4.49,0,0,1,1.27-1.53c10.12-6.46,18.23-15.86,30.14-19.8,7-2.32,13-1.9,18.45,3.15a7.92,7.92,0,0,0,2.14,1.25c4.08,2.4,7,6.08,10.25,9.4,3.94,4.08,8.52,7.43,12.56,11.38,1.68,1.65,3.81,2.52,5.9,1.22,8.1-5,16.94-8.92,24.21-14.83,0-.77-.09-1.19-.4-1.24-12.92-1.89-23.9-8.72-35.53-13.89-18.24-8.11-32.95-20.91-46.58-35.13a7.75,7.75,0,0,1-2.38-3.73,2.87,2.87,0,0,1,.48-2.06c4.86.23,7.48,4.17,10.1,7.15C352.85,86.5,363.3,92.7,373,99.94c7.4,5.55,15.83,8.95,24.6,11.56,3.54,1.05,5.79,4.64,10,4.69-.18-1.23-2-1.58-1.66-3l22.22,4.66c-1.42,1.27-2.83,2.12-2.42,4.78.73,4.69-3.48,6.74-6.39,9.37a49.59,49.59,0,0,1,10.39-6.58c6.38-2.75,6.36-2.78,2.25-7.3,7.06-.4,7.06-.4,6.9-9.06,2-.34,1.86,1.35,2.18,2.48.43,1.52.3,3.35,3,4-.32-3.23-2.4-5.48-3.24-8.14-.67-2.12-2.86-4.27-.3-6.57,4,2.25,4.81,6.68,6.62,10.24a47.19,47.19,0,0,0,10.28,14c4.58,4.14,6.69,9.06,5.56,15.18-.5,2.75.45,4.78,2.28,6.76,3.06,3.3,6.21,6.49,9.5,9.56,1.7,1.58,3.54,3.34,2.76,6-.82,2.83-3.26,3.44-5.84,3.89-19.3,3.37-35,12.43-45.65,29.27a28.25,28.25,0,0,0-4.24,13.21c-.86,11.94.17,23.29,10.85,31.47,9.35,7.16,18.93,13.6,30.86,15.55,3.78.62,7.18,2.57,11,3.19,3.06.5,4,3,3.22,5.74-1,3.84-1.3,7.89-3.19,11.52a20.29,20.29,0,0,0-2.09,9.2c-.07,7-3.14,12.43-7.83,17.27-6.4,6.61-8.82,15.17-10.88,23.72-1.2,5,4.61,8.88,10.16,7.37s9.78-5.63,14.65-8.46a192,192,0,0,1,56-22,41.8,41.8,0,0,0,10.43-3.31,6.88,6.88,0,0,0,4.14-7.27c-1.48-18.9-3.59-37.8-4.08-56.72s-4-37.39-3.54-56.25c.22-9.63-1.55-19.22-2.21-28.84-.6-8.67-.5-17.3-.66-25.94a22.45,22.45,0,0,0-1.95-9.71c-2.05-4.16-5.19-7-10.1-6.94-23,.51-44.78-5.77-66.75-11.16-1.29-.32-3.21-.22-2.8-2.54,2.66-1.8,5.47-.93,8.22-.41,11.78,2.22,23.2,6.1,35.14,7.66,8.59,1.12,17.24,1.85,25.86,2.15,5,.18,8.64,1.56,11.61,5.36.92,1.17,2.19,2,3.15,3.21a11.84,11.84,0,0,1,2.4,7.48c.06,23.47,3,46.82,3.05,70.29,0,1.78-.07,3.59.85,4.47C546.32,189.19,545.11,183.08,548,177Z"/><path class="cls-3" d="M170.92,448c-10.68-4.68-19.28-12.37-27.74-20-10.63-9.62-19.63-20.83-29.06-31.61-10-11.39-21.49-21.31-31.5-32.69-2.6-3-6.49-4.74-9.23-7.59-17.93-18.62-38.27-35-52.76-56.81A117.86,117.86,0,0,1,.87,238.3C.13,222-1,205.69,1.89,189.48,6,166.93,8.8,144,22.08,124.27a62.84,62.84,0,0,1,9.66-11.37c3.14-2.35,3.08.11,2.6,2a18.81,18.81,0,0,1-4.22,7.25c-5.07,6-7.8,13.47-12,20a2.76,2.76,0,0,0-.11,3.19c8.91-12.75,15.94-26.52,26-38.27-2.36-.09-2.93,2-4.37,2.77-2,1.15-4.15,2.09-3.85-1.83a237.3,237.3,0,0,1,50.8-45.25c1.64-1.1,3.21-2.39,5.28-2.67.59,1.63-.57,2.85-1,4.23s-1.28,2.28-1.62,3.75c2.61-1.5,4.46-4.39,7.93-3.64a1.63,1.63,0,0,1,.93,1.06c-9.77,9-18.6,19-28.56,27.79a180.93,180.93,0,0,0-22,23.75c-3.83,4.84-7.25,9.93-10.8,14.95-2.82,4-3,8-2.14,12.33,3.29,17.1,10.61,32.62,19.79,47.18,5,7.92,12.75,13.52,20,19.34,9,7.22,19.15,12.66,29.57,17.56,1.43.68,3.64.92,3.13,3.18s-2.65,2.06-4.5,2.18a14.68,14.68,0,0,1-7.24-1.49,143.69,143.69,0,0,1-45.71-33.34c-6.17-6.7-8.79-15.62-12.87-23.61-4.39-8.6-7.44-17.73-10.09-27.36-2.74,4.25-6.18,7.65-8.54,12-5.33,9.8-8.13,20.43-10.34,31.18a157,157,0,0,0,0,62.88c4.4,21.93,14.89,41.1,30,57.85,8.55,9.47,17.53,18.23,28.41,24.87,5,3,10.36,5.28,15.46,8.11,15.18,8.43,31.4,14.52,48,19.23,31.93,9,63.58,7.15,94.74-4,10.69-1.91,20-7.06,28.77-13,6.36-4.34,13.51-7.75,18.49-14,1.14-1.43,2.86-3.53,5-1.88,1.76,1.39.1,3.34-.41,5a12.26,12.26,0,0,1-.54,1.39c-6.44,7.33-14.41,12.92-22.63,17.83a157.86,157.86,0,0,1-55.08,20.08c-25.18,4.25-50.14,3.62-74.5-4.33-12.15-4-24.24-8.27-36.08-13.17a45.52,45.52,0,0,1-6.12-3.35q14.33,12,28.13,24.54c7.78,7,16,13.54,24.15,20.09,10.85,8.73,21.22,18.09,33.47,25.14,7,4,13.37,9.2,20.29,13.51,4.06,2.53,8.92,3.8,12.25,7.51.45.94.84,1.88.19,2.88-7.75,1.25-15.48,2-23.23-.18C174.84,447.58,172.86,446.71,170.92,448Z"/><path class="cls-4" d="M552.95,249.19c-.47-4.43,3.13-2.56,5.06-3.27,21.29.58,42.61-.12,63.89,1.17,1.74.88,3.61.49,5.41.43a347.49,347.49,0,0,1,39.38.88c14.46,1.18,28.9.35,43.35,1.29,15.55,1,31.27-.06,46.87.59,16.26.67,32.56.22,48.78,1.7,1.49.14,3,.07,4.5.06,32.48-.21,65,.36,97.42,1.41,25.9.85,51.81,1.2,77.71,1.93,18.44.52,36.89,1.46,55.31,1.39,27.93-.1,55.82.89,83.71,1.49s55.9,1.73,83.84,1.82a116.21,116.21,0,0,1,42.65,7.84c2.87,1.12,2.83,1.24,1.88,3.31-22.66-6.35-46.09-6.4-69.23-7.17q-67.13-2.25-134.34-2.58c-34.79-.15-69.58-2.62-104.37-2.58-27.18,0-54.24-1.59-81.35-2.52-27-.92-53.94-1.22-80.92-1.18q-21.53,0-42.91-1.79c-15-1.25-30,.47-44.94.43-33.65-.09-67.2-3.09-100.84-3.28-9,0-18-.4-27-.61-4.29-1.13-8.73.21-13-.77l-.43.05Z"/><path class="cls-5" d="M1364.18,157.95l1.2,3.12c-8.53-3-16.51-5.85-25.35-6.32-13.51-.71-25.54,3.12-37.31,9-8.86,4.46-17,10.15-26.53,13.55-12,4.29-24.39,6.17-36.86,7.69-18.57,2.26-37.29,1.46-55.88.71-21.48-.86-43,.16-64.4-.92-18.64-.93-37.29-.18-55.9-1-24.92-1.05-49.86-1.33-74.78-2.08-15.31-.46-30.64.09-45.89-.94-17.48-1.18-35,.06-52.4-1-13.65-.83-27.34.19-40.88-1.05-11.45-1.05-22.92.23-34.34-1.42-3.11-.45-6.53-.16-9.81-.21-26.63-.41-53.28-.19-79.88-1.3-19-.79-38.12,0-57.15-1.37-3.22-.23-6.54-.39-9.82-.45q-27.2-.43-54.39-1c-11.73-.25-23.46-.6-35.18-.95-1.61,0-3.38.34-4.74-1,3.91-2.82,8.36-.92,12.53-1.42,5.17-.31,10.41.57,15.54-.73,43,.1,85.91.59,128.86,1.78,26,.72,52,1,77.92,1.57,3.13.07,6.33-.43,9.4.66-1.82,2-4.27,1.53-6.55,1.59-15.32.4-30.62-.63-42-.52,18.65.8,41.26-.13,63.81.72,29.12,1.1,58.23,1.34,87.35,2,26.12.59,52.25,1.07,78.35,2.08,13.75.53,27.55,1,41.29,1.42,18.26.56,36.58,1.47,54.86.71,3.93-.16,7.77,2.56,11.67.17,39.3-.72,78.59.15,117.87,1.27,17.78.51,35.2-2.35,52.48-5.64,10.14-1.93,18.94-7.91,27.87-13.16,12.21-7.17,24.58-14.33,39.55-13.36C1345,150.89,1355.31,151.72,1364.18,157.95Z"/><path class="cls-6" d="M1252.71,271.24c-.72-1.87-1.72-3.42-6.35-4.26-7.45-1.36-14.38-4.45-22.07-5.17-9.49-.89-18.93-.62-28.39-.69-21.79-.17-43.57-.89-65.34-1.38-12.78-.29-25.63.2-38.36-.85-13-1.07-25.92-.59-38.88-.87-15.39-.34-30.79-.25-46.16-1.07-23-1.23-46.14.2-69.13-1.12-30.75-1.77-61.5-1.09-92.23-2-16.63-.52-33.29.29-49.84-1-8.26-.64-16.56-1-24.79-1.33-19.67-.86-39.44.36-59.09-.67-14.92-.78-29.86-.66-44.78-1.32-13.86-.61-27.72-2.5-41.65-1.51-1.29.09-2.7.29-3.75-.85,23-.71,45.93.65,68.89.93,22.58.27,45.18.44,67.74,1.22,14.26.49,28.56.07,42.77,1,17.65,1.19,35.31-.09,52.91,1,18.15,1.09,36.33-.27,54.4,1,29.2,2.09,58.44.86,87.6,2.16,15.12.67,30.24.08,45.37,1.17,5.81.42,11.87.38,17.81.43,23.3.23,46.63.25,69.9,1.3,14.65.66,29.31.06,43.92.91,14.94.87,29.88.41,44.8,1,16.15.61,31,6.44,45.7,12.82,10.77,4.68,20.11,12.27,31.66,15.28,5.6,1.46,11.16,3,16.74,4.56-2.37,2.37-5.24,1.53-8,1.14-2.45-.36-4.83-1.2-7.36-.74-13.11-4.56-24.91-11.88-37.36-17.82Z"/><path class="cls-2" d="M97.92,65.06,96.85,65c.25-4.05,3.87-5.14,6.48-6.73,3.6-2.2,6.7-4.35,8.41-8.55,1.48-3.65,6-4.5,8.64-7.19.81-.81,2-1.32,2.66-2.19,1.33-1.71-1.31-.31-1.13-1.27a13,13,0,0,1,5-4c5.46.11,8.79-4.13,13.07-6.42,1.65-.88,2.84-3.09,5.21-1.58a2.84,2.84,0,0,1,.24,1.44c-.9,2.63-3.35,3.62-5.4,5a158.91,158.91,0,0,0-17.36,12.8c10.66-5.84,22.72-6.89,34.1-10.28a30.1,30.1,0,0,1,9.88-1.23c10.44.42,20.85-1.05,31.34.89C229.7,41.49,257.47,55,280,78c12.71,13,22.11,28.33,26.72,46.2.83,3.21,2.47,6.22,2.5,9.64a6.46,6.46,0,0,0,1.22,3.68c3.31,5,3.22,5.88-.93,10.12a57.28,57.28,0,0,1-6.45,6.16c-1.27.94-2.8,1.45-4.09.25a2.64,2.64,0,0,1,.06-4c9.67-7.62,3.39-15.66.78-23.6-3.66-7.8-6.76-15.81-11.19-23.29A107.3,107.3,0,0,0,251,65c-11.19-6.74-22.72-12.55-35-16.49-15.23-4.87-30.69-7.83-47-5.65a197.9,197.9,0,0,0-53.16,14.45c-4.43,1.93-8.52,4.51-12.84,6.64C101.33,64.73,100,66.41,97.92,65.06Z"/><path class="cls-7" d="M343,379.07c6.38-4,7.9-11.61,12.74-16.77,7-7.45,12.55-16.72,21.13-22.13,10.33-6.51,20.07-14.36,32-18.19,1.77-.42,3.22-1.68,5-2.07,1.19-.27,3.06-1.44,3.17,1.27-29.06,13-51.64,33.3-69.79,59.51-15.73,22.71-33.17,44.53-56.59,59.91-23.87,15.67-50.24,23.33-79.18,18.32-11.31-2-22.69-3.65-33.44-7.95-.86-3.75,1.8-2.81,3.52-2.41,9.21,2.14,18.79,1,28,3.27,11.53,5.67,23.4,2.49,35.12,1.12a85.71,85.71,0,0,0,37.91-14.07c9.35-6.24,18.57-12.78,26.33-21.07,11.75-10.5,20.48-23.59,30.49-35.58C340.35,381,341.09,379.34,343,379.07Z"/><path class="cls-8" d="M1096.92,181.1c.63,4-2.61,1.92-3.57,1.8-14.77-1.86-29.61-.17-44.38-.93s-29.41-.55-44.1-1.07c-10.71-.38-21.42-.65-32.14-.93-18.12-.47-36.28-.34-54.35-1.22-16.65-.81-33.27,0-49.88-.77-30.37-1.45-60.75-1.73-91.14-2.24-9.52-.16-19.2,0-28.74-1v-1.57l59.55-.25q37,.67,73.94,1.33c50.14.84,100.24,3,150.35,4.55a10.8,10.8,0,0,1,1.47.25c7.32,1.1,14.69.2,22,.51,2.44.1,4.91-.39,7.32.36l4.66.15c6.49,1.06,13,.19,19.52.49,1.95.09,3.93-.32,5.84.36Z"/><path class="cls-9" d="M405.87,113.19a3.05,3.05,0,0,1,.31.39c.92,1.66,5,.61,3.91,3.17-1.25,2.86-4.82.85-6.13-.07-7.43-5.2-16.59-6.37-24.22-10.83s-14.6-10.22-21.94-15.26c-8.55-5.87-14.57-14.43-22.89-20.46-4.12-2.52-7.12-6.31-10.59-9.55q-15.25-14.2-30.47-28.43c-7.35-6.86-16.22-11.39-25-16a22.05,22.05,0,0,1-4.26-2.54c-1.36-1-3-1.17-4.53-1.75s-3.74-.94-3.31-2.91c.55-2.49,2.79-1.27,4.43-1.07,24.86,7,42,25.11,59.79,42.08C333.31,61.81,345.22,74.12,358,85.53c10.92,9.74,22.86,17.69,36.49,23C398.33,110,401.68,112.64,405.87,113.19Z"/><path class="cls-10" d="M539.95,113c-.15-.07-.37-.09-.45-.21-4.29-6.36-10.79-7.78-17.79-7.69-19.73.25-38.5-5.16-57.44-9.51a33.65,33.65,0,0,0-7.39-.53c-2.41,1.51-4.47-.37-6.63-.79-6.15-1.2-6.62-1.06-9,4.61A5.6,5.6,0,0,1,440,101c.64,4.36,3.05,8,4.89,11.86.63,1.33,1.54,2.7.77,4.22-.49,1-1.41.58-2.15.2-1.57-.81-3.47-1.22-3.55-3.62-.05-1.57.61-3.38-1.07-4.6-4.2-6-2.81-13.16-3.58-19.78-.34-2.92,3.26-4.39,6.31-4.07a49.26,49.26,0,0,1,10.77,1.89,308.83,308.83,0,0,0,74,15.15c5.14.43,10.78.29,14.84,4.63C539.46,108.63,541.59,111.21,539.95,113Z"/><path class="cls-11" d="M261.13,7.9c-1.12.63-2.66-.34-3.75,1.11,2.11,2.78,6.54,1,8.35,4.14-2.38,1.93-4.75.49-7.12,0a14.61,14.61,0,0,1-1.39-.47c-3.21-1.1-6.32-2.56-9.85-2.3a17,17,0,0,1-7-1.42A32.47,32.47,0,0,0,228.7,6.51a139.37,139.37,0,0,0-47.75,5.15c-8.78,2.57-17,6.46-25.8,9-2.92-1-1.43-2.45-.33-3.83a147.12,147.12,0,0,1,45-15.39C220.87-2.2,241.15,1.55,261.13,7.9Z"/><path class="cls-12" d="M539.95,113a5.07,5.07,0,0,0-.86-3.23c-2.24-3.09.66-2.5,2.13-2.93,4,1.88,4.62,5,4.65,9.24.1,15.24.87,30.48,1.24,45.72.07,2.92,1,4,4,4.2,7.27.46,14.52,1.29,21.78,2,1.11,1,2.5.29,3.72.6,2.37.61,1.54,1.49.14,2.37l-12.87.1c-3.26-.1-6.52-.13-9.77-.31-6.6-.37-6.59-.41-6.1,6.21-.5,6.71.61,13.48-.5,21a11.9,11.9,0,0,1-2.63-8.42c.58-16.65-2.57-33.11-2.53-49.69,0-6.12-.93-12.19-.43-18.29A14.38,14.38,0,0,0,539.95,113Z"/><path class="cls-13" d="M469.82,339.06h-5.23c4-4.09,8.45-5.44,12.09-7.89,13.6-9.15,28.7-15.15,44.07-20.59,6.48-2.3,13.26-2.94,19.88-4.4,10-2.2,13.17-6.79,11.58-17-.66-4.25-.25-8.59-1.16-12.88-.7-3.31,1.12-3.79,3.75-2.2.81,6.76,2.17,13.51,2.28,20.29.14,8.65-4.31,13.19-13.07,14.45-16.27,2.34-31.91,6.82-46.5,14.4C488.08,328.09,479,333.74,469.82,339.06Z"/><path class="cls-14" d="M35.83,108c1.25,3.81,2.65,1.69,4,.1s3.11-5.13,5.08-3.5c2.26,1.87-.25,4.72-1.87,6.74-5.14,6.39-10.39,12.5-14,20.2-2.23,4.78-6.85,8.7-9.21,13.88-.47,1-1.63,2.68-3,2-1.65-.76-.87-2.57-.59-4,.46-2.33,2-4.17,3.07-6.19a254.81,254.81,0,0,1,13.55-21.74c.9-1.31,2.59-3.23-1.15-2.66C32.44,110.72,34.13,109.36,35.83,108Z"/><path class="cls-11" d="M121.91,39c.91.29,2-1,2.7.07s-.16,1.87-1,2.48c-2.38,1.75-4.78,3.46-7.17,5.19-.8.57-2.12,1-2.34,1.71-2.5,8.33-10.93,10.2-16.38,15.3A7.71,7.71,0,0,0,96.85,65c-3.18.46-5.13,2.76-7.25,4.82-.58.57-1.29,1.25-2.11.64S87,69,87.44,68.22q2.23-4.07,4.48-8.12C101.85,53,111.53,45.51,121.91,39Z"/><path class="cls-15" d="M1296.77,292.27c1.7-2.06,4-1.43,6-1a32,32,0,0,0,9.34.57c9.9,2.17,19.84,3.63,30,2.25a2.56,2.56,0,0,1,2.69.81c-5.86,3.25-11.76,5-18.77,3.69C1316.21,296.75,1306.06,296.53,1296.77,292.27Z"/><path class="cls-16" d="M417,321.17c-3-2.82-5.28,2-8.13.8,9.07-5.32,19.15-7.92,29.07-11.06,5.43-1.72,11-.33,16.33-2.11,1.45-.49,1.62,1.23,1.08,2.45-1.05,2.38-2.16,4.74-3.23,7.1-1.69-.4-.74-1.78-1.32-2.46-.8-3.31-2.93-3.87-6-3.17-7.57,1.73-15.12,3.43-22.18,6.84C420.86,320.39,419.06,321.41,417,321.17Z"/><path class="cls-17" d="M431.93,118.11c.42.26.81.55,1.25.77,1.38.69,4-.76,4.21,1.4s-1.51,4.09-3.7,4.81c-5.12,1.68-9.48,4.59-13.72,7.8-.83.63-2,2.6-3.28,1-1.44-1.74.92-2,1.7-2.8,1.29-1.26,2.93-2.16,4.24-3.41,1.47-1.41,3-3.53,2-5.26-2.72-4.76.34-4.55,3.43-4.61Z"/><path class="cls-18" d="M210,453c-8.31-1.85-17-.48-25.24-3.4-2.09-.74-5.18-2.34-6.77,1.35-2.72-.11-4.79-1.75-7-3-.64-4,2.48-1.85,3.49-1.73,4.53.53,9,1.51,13.51,2.3,1,.17,2.52.62,2.8.23,2.85-4,6.13-.88,9.2-.73C203.66,448.88,208.16,448.23,210,453Z"/><path class="cls-11" d="M144.86,27c-4.81,3-9.63,6-14.41,9-1.6,1-3,1.75-3.53-1,5.6-5.41,12.26-9.28,19-13,2-.13,1.65,1.33,1.65,2.53A3.28,3.28,0,0,1,144.86,27Z"/><path class="cls-8" d="M576.76,171c.61-1,.75-1.79-.81-1.91-1.1-.09-2.32.13-3.05-1.06,6.38-.2,12.75-.3,19.06.91-1.23,2.8-3.74,2.08-5.93,2.12C582.95,171.07,579.85,171,576.76,171Z"/><path class="cls-2" d="M146.89,25c0-1.08.19-2.23-.95-3a27.69,27.69,0,0,1,8.88-5.28c0,1.08-1.53,2.2.09,3.24C153.3,23.41,151,25.67,146.89,25Z"/><path class="cls-5" d="M1063.26,179.93q-12.85.06-25.7.11c-1.29,0-2.68.25-3.64-1C1043.7,179.32,1053.51,178.77,1063.26,179.93Z"/><path class="cls-5" d="M1093.28,180.92l-22.21.12c-1.15,0-2.33.09-3.16-1C1076.38,180.31,1084.86,179.79,1093.28,180.92Z"/><path class="cls-2" d="M553.81,249.2c4.36,0,8.77-.83,13,.77A40.85,40.85,0,0,1,553.81,249.2Z"/><path class="cls-1" d="M97.92,65.06c9-4.57,17.65-9.8,27.22-13.11,15.68-5.42,31.63-9.59,48.27-10.88,19.09-1.47,36.7,3.74,54.28,10.48,10.61,4.07,20,10,29.49,15.86,16.07,9.92,26.83,24.68,36,40.91,3.24,5.72,4.44,12.13,7.68,17.73,1.23,4.27,2.11,8.65,3.85,12.77a6.09,6.09,0,0,1-1.65,7.61c-3,2.74-6.19,5.46-7.06,10.18,3.67-.21,6.11-2.05,8.22-4.4A141.63,141.63,0,0,1,335.92,126c5.76-2.41,11-6.16,17.69-6.13a10.58,10.58,0,0,1,8,3.31c7.26,7.34,14.5,14.7,21.93,21.86,2.64,2.55,2.71,4.26.05,6.92-4.38,4.4-10,7.18-14.46,11.38-6.14,5.74-12,11.7-16,19.4-.63-4.86.61-9.36,1.4-13.89q2.73-15.64,5.74-31.24c.4-2.06.38-3.9-1.82-4.41-2.65-.62-3.2,1.32-3.56,3.57-1.92,11.92-4.13,23.79-5.94,35.72-1.69,11.12-7,21-10.59,31.4-2.57,7.44-5.86,14.64-8.29,22.12-1.54,4.76-3,9.56-5.72,13.7-7.57,11.64-12,24.68-17.43,37.3a216.1,216.1,0,0,0-9.22,25.08c-1.81,5.72-6,10.36-9.86,14.88-15.49,18.35-33.89,32.94-56.41,41.93-2.13.85-4.57.71-6.5,2.13-20.68,7.64-42.07,11.61-64,9.69-13.76-1.2-27.43-3.55-40.7-8.4-8-2.92-16-6-24.16-8.73-6.81-2.28-12.76-7-19.35-10.1-12.42-5.83-23.68-13.26-33-23.27-16.61-17.78-30.25-37.22-36-61.59-3.7-15.74-3.3-31.43-3.4-47.36-.09-14.16,3.85-27.12,7.76-40.15,2-6.6,4.53-13.54,9.85-18.68.24-.23.4-.53.62-.78,1.71-2,1.06-6.69,4.76-6,2.93.54,1.94,4.61,2.5,7,3.38,14.43,10.6,27.2,17.22,40.19,4.48,8.8,12.65,14.57,20.16,20.48,9.07,7.14,18.71,13.71,29.57,18.11.77.31,1.6,1.14,2.24,1,2.45-.56,6.25,1.41,7.08-.82.91-2.45-3-1.94-4.68-2.74a167.69,167.69,0,0,1-42.87-30.11c-4.64-4.43-7.6-10.05-10.52-15.61-6.43-12.23-12.13-24.8-14.61-38.52-.84-4.68-.58-8.83,2.47-13.52C44,118.53,53.17,106.79,64.1,96.64c9.76-9.07,19-18.66,28.65-27.8A48.9,48.9,0,0,1,97.92,65.06Z"/><path class="cls-1" d="M198.94,446c-5.48-3.31-10.85-6.83-16.49-9.83a48.48,48.48,0,0,1-6.84-4c-11.67-8.92-24.31-16.46-35.55-26.07-14.58-12.46-29.83-24.14-43.92-37.2-4.85-4.5-10.26-8.39-15.35-12.65-1.06-.89-3.16-2-2.19-3.42,1.16-1.71,3-.51,4.25.67,4.16,3.81,9.5,5,14.61,6.83,13.26,4.65,26.2,10.22,40,13.14,17.2,3.62,34.4,3.85,51.86,1.89a162,162,0,0,0,63.26-21A105.16,105.16,0,0,0,274.91,337c1.68-2.11,2.84-1.13,3.48.77.49,1.44-.19,2.92-.52,4.36-14.84,28.39-36,50.62-64.55,65.45-12.17,6.33-25.11,7.26-38.39,3.93-2-.51-4-1.74-6.57-.69,1.08,2,3,2.7,4.79,3.19,11.14,3.1,22.24,3.7,33.36-.39,15.91-5.86,29.39-15.26,41.6-26.94,10.58-10.12,19-21.8,27-33.86,4.48-4.79,7.33-10.72,10-16.49,3.1-6.76,6.32-13.44,9.77-20a12.22,12.22,0,0,1,.7-1.29c2.56-6.63,4.82-13.53,8.64-19.42,3-4.66,4.71-9.62,6.69-14.59,6.67-15.63,12.71-31.47,21.74-46.09,6.18-10,9.1-22.12,15.55-31.93s9.71-22,19.23-29.88c7.41-6.13,15.21-11.8,22.42-18.15,11.68-10.28,25.9-16.62,38.55-25.4,4.23-2.94,9.82-3.82,13.13-8.44,1.24-1.72,3-1.14,4.26.34a97.23,97.23,0,0,1,10.09,14.12c.71,1.23,1.32,3.11.89,4.29-2.72,7.4,2.68,11.32,6.45,16,.9,1.11,2.76,1.81,2.27,3.57s-2.39,1.31-3.78,1.72c-18.2,5.28-32.88,14.68-42,32.34-5.63,11-5.15,21.4-3.61,33,1.26,9.5,7.73,14,13.41,19.43s12.39,10.39,20.15,13.22c2.6.95,2.56,2.38.34,3.82-18.57,12-35.3,26.38-52,40.78-5.89,5.08-9.55,12.25-14.23,18.47-9.55,12.67-17.93,26.22-28.95,37.76-11.75,16.42-23.73,32.64-37,47.87-4.37,5-9.36,9.4-13.77,14.36-8.37,7-17.41,13-26.67,18.91-16,10.17-34,11.39-51.74,14a18.25,18.25,0,0,1-9.73-1.22A136.36,136.36,0,0,1,198.94,446Z"/><path class="cls-1" d="M440,101c.33-7.81,2.38-9.34,9.93-8.12,2.5.41,4.56,1.84,7,2.19,6.18,1.63,12.3,3.54,18.56,4.82,9.23,1.89,18.24,4.73,27.73,5.51C510.09,106,517,107.72,524,107c10.61-1.13,15.37,7.15,15.89,15.63.16,2.66.12,5.33.09,8-.16,14.8,1.14,29.49,2.77,44.19.95,8.57,0,17.24,1.08,25.89,2.85,22.22,2.52,44.69,4.89,67,.93,8.72,1.32,17.52,2,26.28.38,4.69-3.9,8.72-11.24,9.91-15.9,2.56-30.78,8.25-45.29,14.8-7.94,3.58-15.8,7.63-22.7,13.2-6.19,5-11.8,5.32-16.75,1.4-2.37-1.87-3.55-4.34-2.64-7,3-8.79,4.8-18.15,12-25,4.33-4.11,7-9.09,6.83-15.46-.2-6.92,3.89-12.83,5.2-19.47,1-5.18.93-5.15-4.14-6.35-14.86-3.5-29.29-8.14-40.72-19.08s-15.42-30.16-7.43-44.1c6.77-11.81,16.26-21.47,29.55-26.39,6.34-2.35,12.63-4.94,19.5-5.37a4,4,0,0,0,3.76-2.79c.6-1.75-.8-2.74-1.84-3.79-3.86-3.87-7.69-7.77-11.63-11.55a5.66,5.66,0,0,1-1.74-6.22c1.36-5.17.39-9.91-4-13.53C450,120.87,446,112.26,442,103.67A4.88,4.88,0,0,0,440,101Z"/><path class="cls-19" d="M240.9,8.07c2.28.58,4.53,1.31,6.93,1.06,3.21,1.45,6.73,1.86,10,3h0C269.36,16,280.31,21,289.45,29.21,303,41.37,317.08,53,329.95,65.93c1.85,1.86,3.83,3.7,4.93,6.18a183.67,183.67,0,0,0,31.88,28.12c14.27,9.76,30.1,15.86,45.92,22.15,1.93.77,4.24.56,6.34.94.94.17,2,.47,2.36,1.56a2.08,2.08,0,0,1-1.4,2.37c-4.35,2-7.48,5.85-12.18,7.57-3.93,1.44-7.39,4.23-10.92,6.62s-6,1.76-9.21-1c-7.64-6.42-14.15-14-21.74-20.44-8-9.38-17-7.11-26.41-2.6a39.67,39.67,0,0,0-9.79,6.67c-4.51,4.22-10.32,6.55-14.62,11-2.52,2.62-5.3,2.59-7.17-1.11-2.9-11.58-5.82-23.13-12.57-33.27-4.69-7-9.1-14.27-14.8-20.59-11.77-13-26.65-21.6-41.88-29.88S207,37.82,190,36.28a119.31,119.31,0,0,0-42.3,3.25c-9.56,2.58-18.77,5.95-28.48,9.5.3-2.92,2.11-3.84,3.64-5q11-8,22.12-16c9.22-8.05,20.4-12.4,31.83-15.71,10.6-3.08,21.28-6.3,32.53-6.53C219.92,5.66,230.49,5.68,240.9,8.07Z"/><path class="cls-20" d="M470.73,267.11c-1,2.58-2.54,5.12-3.64,7.88s-2.23,5.82-2,8.58c.38,5.82-3.29,9.4-5.8,13.82-3.75,6.59-8.43,9.55-16.47,10.65-15.82,2.17-30.45,9-44.7,16.18-4,2-7.63,4.68-11.48,7-.87.51-1.63,2.1-2.95.87s-.19-2.2.39-3.13c4.73-7.63,10.83-14.06,17.48-20,12-10.76,24-21.46,37.09-30.86,6.58-4.73,13.22-9.47,20.53-13.09,3-1.48,6.19-1,9.32-.76C469.94,264.27,470.82,265.29,470.73,267.11Z"/><path class="cls-21" d="M276.9,342c-1.43-1.36,3.83-5.4-2-5l1.7-5.14c-1.48-1.18-2.19.16-2.89.88-10.14,10.58-22.71,17.56-35.55,24.16a40.16,40.16,0,0,1-13.24,4.11c5.79-2.74,11.59-5.43,17.36-8.22a110,110,0,0,0,37-28.52c2.87-3.44,6.12-6.52,9.11-9.85,7.94-8.83,10-20.27,14.68-30.53,1.09-2.39,1.8-5,3.81-6.9.27,4-2.66,7-3.46,10.64-.31,1.39-2.82,2.92-.37,4s4-.74,4.7-3.05c.78-2.66,1-5.54,3.13-7.61a41.75,41.75,0,0,1-4.76,13.41,87,87,0,0,0-8.35,19.42,3.28,3.28,0,0,1-1.88,2.19c-1.37-1-.78-2.83-2.41-4.69A59.11,59.11,0,0,1,280,328c4.2,2.06,6.62.82,8.25-2.43,1.34-2.68,3.1-5.08,4.65-7.61.66-1.08,1.25-2.46,3-1.89-4.94,10-9,20.46-14.72,30.09-1.48,2.5-2.24,5.59-5.27,6.92-.48-4.81,3.22-7.92,4.84-11.88.79-1.91,2.7-3.28,2.92-5.61C280.23,336.6,280.78,341.62,276.9,342Z"/><path class="cls-22" d="M307.94,134c3.21,3.23,5.54,1.22,8.48-.87,9.75-6.93,18.35-15.7,30.31-19.23,9.19-2.71,13-1.63,19.21,6.12-3.14-.19-4.36-3.31-6.95-4.51-7.39-3.43-14-.18-19.78,3.15-7.95,4.56-15.08,10.57-22.43,16.12-1.08.81-3.56,2-2,3.74,1.24,1.42,2.45-.77,3.67-1.44,6-3.34,10.45-9.26,17.47-11-5.56,4.38-11.06,8.86-16.71,13.13-6,4.53-10.88,10.23-16.28,15.38-2.32,2.21-5.83,5.32-7.93,3.28-2.84-2.77,1.15-5.89,3.33-7.45,6.63-4.73,7.09-10.28,3.86-17.06a13.31,13.31,0,0,1-1.3-7.28c2.75,4.22,3.26,9.25,4.9,13.86,1.49,4.19-1.85,6.61-4.4,9.23-1.13,1.16-3.66,2.46-1.73,4.34,1.58,1.54,2.86-.7,4-1.74,1.47-1.33,2.77-2.87,4.25-4.18,3.39-3,6.15-5.91,1-9.82C307.85,136.94,307.81,135.37,307.94,134Z"/><path class="cls-23" d="M334.88,72.11c-7.52-6.5-14-14.07-21.73-20.39-6-4.92-11.55-10.41-17.67-15.17-2.63-2-4.59-4.65-7.1-6.79-8.16-7-17.52-11.6-27.34-15.5-1.26-.5-2.54-.8-3.15-2.16l7.86,1.06c7.46,4.52,15.67,7.7,22.69,13.06a187.4,187.4,0,0,1,17,15.14c9.84,9.59,21,17.87,29.51,28.77Z"/><path class="cls-24" d="M303.9,421c8.75-9.23,17.38-18.56,25.18-28.62q10.92-14.07,21.7-28.24A14.42,14.42,0,0,1,354.9,360c-3.16,5-6.28,10.07-9.52,15-.86,1.32-2.55,2.13-2.4,4.05-9.28,12.33-18.57,24.65-29.34,35.75-1.14,1.18-2.49,2.16-3.75,3.23C307.68,418.63,307.09,422.42,303.9,421Z"/><path class="cls-25" d="M182.53,445.89c-8.69-.88-15.36-4.52-21.79-8.66C149.48,430,140.66,420,131.18,410.75a8.94,8.94,0,0,1-1.37-1.45c-.67-1-2.12-2.17-.86-3.45,1.43-1.45,2.28.33,3.27,1,8.22,5.9,14.69,14.19,23.82,18.69,8.07,4,14.54,10.32,22.69,14.06a21.49,21.49,0,0,1,4.43,3.19c.72.59,1.75,1.32,1.18,2.46A1.41,1.41,0,0,1,182.53,445.89Z"/><path class="cls-26" d="M303.9,421c2.58.17,3.41-3.15,6-3-2.81,4-6.52,7-10.27,10-9.54,7.73-19.59,14.69-30.71,19.83a82.9,82.9,0,0,1-28.84,7c-6.86.5-13.66,3.25-20.65,1.22-3.17-.92-6.3-2-9.44-3-2.59-3.19-7.25-2.21-10.05-5l-1-2.06c4.5.71,8.44,2.81,12.31,5,8.3,4.74,17.1,2.75,25.73,1.75,5.4-.62,10.69-2.1,16-3.22,18.88-4,33.85-15.06,48.55-26.65Z"/><path class="cls-8" d="M671.76,171.8c10.62-.2,21.17-.26,31.67-.27,11.56,0,23.09,1.51,34.66.62,1.77-.14,5.23-1.54,5.26,1.53,0,2.35-3.27,1.28-5.06,1.3-17.08.16-34.13-1.22-51.22-1.21C682.11,173.77,676.68,174,671.76,171.8Z"/><path class="cls-8" d="M620.63,170.37H656.2l0,1.37c-11.8,3.52-23.74-1.06-35.58.32Z"/><path class="cls-8" d="M608.23,171.06a14.85,14.85,0,0,1,10-.26C614.75,172.58,612.18,172.24,608.23,171.06Z"/><path class="cls-27" d="M240.9,8.07c-8.09-.62-16.17-1.53-24.27-1.76-5.6-.16-11.48-.28-16.8,1.18-8.94,2.44-18.16,3.73-26.93,7A150.27,150.27,0,0,0,145,28.12l-.1-1.13,2-2c3.13-.92,5.36-3.3,8-5C167.7,13.56,181.39,10,195.34,6.94,208.74,4,222,4.72,235.45,6.06,237.41,6.26,239.4,6.55,240.9,8.07Z"/><path class="cls-23" d="M257.88,12.09c-3.62-.09-7.22-.19-10-3C251.53,8.94,254.78,10.27,257.88,12.09Z"/><path class="cls-22" d="M136.87,242.22c-5.82-.81-11.23-1.52-16.62-2.33a2.23,2.23,0,0,1-2.1-2.82c.34-1.55,1.49-2,3-1.78a95.86,95.86,0,0,0,32.19-.46c10.35-2,20.44-5.38,30.37-9.14,21.15-8,40.16-19.93,58.33-33,12.47-9,26-16.52,37.56-26.74a29.27,29.27,0,0,1,5.9-3.68c1.21-.63,2.82-2.11,4-.36,1,1.59-.59,2.82-1.72,3.69-7.83,6-14.93,12.9-23.32,18.29-10.43,6.71-20,14.68-30.45,21.41-14.33,9.27-28.92,18.09-44.81,24.7-12,5-24.51,8-37.05,11.16C146.83,242.5,141.59,240.19,136.87,242.22Z"/><path class="cls-3" d="M276.9,342c1.55-2.34,3-4.73,4.67-7,.85-1.15,2-2.71,3.65-1.47,1.42,1.08.26,2.58-.44,3.55-3.57,5-6.09,10.51-8.85,15.92-2.45,6.09-7,10.82-10.7,16.05A136.33,136.33,0,0,1,225,406.36c-9.72,5.94-20.27,11-32,11.51-8.25.37-16.57-.43-24.18-4.35-1.48-.76-3.35-1.49-2.69-3.59.77-2.47,2.92-1.08,4.28-.84,4.87.87,9.55,2.58,14.56,3,16.26,1.35,29.71-5.56,42.54-14.24,17.16-11.61,30.69-26.81,42.32-43.79C272.46,350.23,274.56,346.06,276.9,342Z"/><path class="cls-3" d="M295.92,316a54.74,54.74,0,0,0-6.64,10.21c-2.51,4.69-4.88,5.51-9.75,3.73-1.86-.68-1.38-1.65-.45-2.54,5-4.82,9.76-9.89,13.14-16.09.45-.83,1.28-2.21,2.73-1.46,1,.52.94,1.66,1,2.66,0,1.16,0,2.32,0,3.49Z"/></g></g></svg>