<svg xmlns="http://www.w3.org/2000/svg" viewBox="0 0 702.82 159.88"><defs><style>.cls-1{fill:none;}.cls-2{fill:#d9b45c;}.cls-3{fill:#efe2a9;}.cls-4{fill:#bfa044;}.cls-5{fill:#fefefe;}.cls-6{fill:#f8f3e1;}.cls-7{fill:#a7a08e;}.cls-8{fill:#887237;}.cls-9{fill:#615e57;}.cls-10{fill:#816c37;}.cls-11{fill:#737067;}.cls-12{fill:#918f81;}.cls-13{fill:#7d7c73;}.cls-14{fill:#9b9787;}.cls-15{fill:#b1ab97;}.cls-16{fill:#796634;}.cls-17{fill:#9c9c93;}.cls-18{fill:#625f57;}.cls-19{fill:#727270;}.cls-20{fill:#8e8b7d;}.cls-21{fill:#76662f;}.cls-22{fill:#acaa9c;}.cls-23{fill:#afac9a;}.cls-24{fill:#818075;}.cls-25{fill:#7f7f7f;}.cls-26{fill:#8f8a7c;}.cls-27{fill:#9a9a9a;}.cls-28{fill:#939393;}.cls-29{fill:#e3e4e2;}.cls-30{fill:#d6a946;}.cls-31{fill:#a4a5a1;}.cls-32{fill:#e6cb81;}.cls-33{fill:#edd3a4;}.cls-34{fill:#bdb5b6;}.cls-35{fill:#cfcbca;}.cls-36{fill:#ddb557;}.cls-37{fill:#efe1a9;}.cls-38{fill:#e3e3e2;}.cls-39{fill:#a2a29f;}.cls-40{fill:#a4a4a1;}.cls-41{fill:#c0b7b7;}.cls-42{fill:#c1b7b8;}.cls-43{fill:#bfb5b6;}.cls-44{fill:#a19a99;}.cls-45{fill:#beb6b7;}</style></defs><title>Date_background</title><g id="레이어_2" data-name="레이어 2"><g id="레이어_1-2" data-name="레이어 1"><path class="cls-1" d="M415.38,82.23h0v0Z"/><polygon class="cls-1" points="619.69 28.21 619.69 28.21 619.69 28.21 619.69 28.2 619.69 28.2 619.69 28.21"/><path class="cls-1" d="M352.18,82.23h0v0Z"/><path class="cls-1" d="M478.58,82.23h0v0Z"/><path class="cls-1" d="M162.57,82.23h0v0Z"/><path class="cls-1" d="M289,82.23h0v0Z"/><polygon class="cls-1" points="83.13 28.21 83.13 28.21 83.13 28.21 83.13 28.2 83.13 28.2 83.13 28.21"/><path class="cls-1" d="M225.78,82.23h0v0Z"/><path class="cls-2" d="M694.45,80.09c-.86,0-1.34-.22-1.27-1.15l-2.33-.09h0c-1.4,0-2.8,0-4.19.08-.86,0-1.93-.42-2.35.93-.11.35-.73.21-1.12.21l-59.95,0a2.39,2.39,0,0,1-2.31-2.23c0-.95,0-1.9,0-2.85h0l-1.17,0c-.44,0-1,.09-1.32-.12-1.64-1-2,0-2.46,1.31a12.84,12.84,0,0,0-1.13,4.42,2.42,2.42,0,0,1-1.09,2.18h0c0,.94-.05,1.89,0,2.83,0,.61-.07,1.11-.83,1.11h0l-.09,2.35h0c0,2.55,0,5.09,0,7.64q0,22,0,44.06c0,.94.15,1.89-.83,2.65a2,2,0,0,1-1.26.52c-.9,0-1.8,0-2.7,0h-64.9c-.45,0-.9,0-1.35,0h-.43v0l-.86,0-61.75,0h-.59l-.86,0-61.75,0h-.59l-.86,0-61.75,0h-.59l-.86,0-61.75,0h-.59l-.86,0-61.75,0h-.59l-.86,0-61.75,0h0l-1.11,0H161c-.45,0-.9,0-1.35,0H94.79c-.9,0-1.8,0-2.7,0a2,2,0,0,1-1.26-.52c-1-.76-.83-1.71-.83-2.65q0-22,0-44.06c0-2.55,0-5.09,0-7.64h0L90,86.73h0c-.77,0-.84-.5-.83-1.11,0-.94,0-1.89,0-2.83h0A2.42,2.42,0,0,1,88,80.61a12.84,12.84,0,0,0-1.13-4.42c-.42-1.27-.81-2.33-2.46-1.31-.34.21-.87.09-1.32.12l-1.17,0h0c0,.95,0,1.9,0,2.85a2.39,2.39,0,0,1-2.31,2.23l-59.95,0c-.39,0-1,.14-1.12-.21-.43-1.35-1.49-.89-2.35-.93-1.4-.07-2.79-.06-4.19-.08h0l-2.33.09c.07.93-.41,1.16-1.27,1.15-2.48,0-5,0-7.45,0l0,.87h0c.72.25,1.94-.62,2.06.94.33.12.84,0,.86.57,0,.24.05.61.33.56,1.31-.26,2,1.24,3.3,1.06.65-.09.7,1.1,1.51.81.85.13,2.2-.6,2.11,1.19,1.24,1.08,3.24.89,4.14,2.69.3.6,1.54.56,2.31,1.13,1.58,1.15,3,2.6,4.62,3.52a30.15,30.15,0,0,1,4,3.27,62.23,62.23,0,0,1,4.66,4.49c1.54,1.56,3,3.24,4.57,4.73.75.7.53,1.77,1.47,2.44,1.55,1.09,2,3.11,3.17,4.52s1.91,3.24,3,4.69a14.93,14.93,0,0,1,2.11,4.08,23,23,0,0,0,2.24,3.52A8,8,0,0,1,48.89,128c.07.46,0,1.05.77,1,.31,0,.38.25.4.52.08.75.68,1.56.69,2,0,1.67,1.25,2.94,1.2,4.56,0,.48-.1,1,.68,1a.34.34,0,0,1,.38.37c-.29,1.66.84,3,1.18,4.5a23.52,23.52,0,0,1,.77,4.93h0c.77,0,1.22.26,1.16,1.12,0,.64,0,1.29,0,1.94l.1,3.81c1.47.3.63,1.43.78,2.19.11,2.38.49,2.91,2.12,3h0l3.6,0H640.16l3.6,0h0c1.63-.07,2-.59,2.12-3,.15-.77-.69-1.9.78-2.19l.1-3.81c0-.65,0-1.29,0-1.94-.06-.86.39-1.15,1.16-1.12h0a23.53,23.53,0,0,1,.77-4.93c.34-1.51,1.47-2.84,1.18-4.5a.34.34,0,0,1,.38-.37c.78,0,.69-.56.68-1-.05-1.62,1.17-2.89,1.2-4.56,0-.47.61-1.28.69-2,0-.27.09-.53.4-.52.77,0,.7-.56.77-1a8,8,0,0,1,1.48-2.83,23,23,0,0,0,2.24-3.52,14.93,14.93,0,0,1,2.11-4.08c1.11-1.45,1.81-3.19,3-4.69s1.62-3.43,3.17-4.52c.94-.66.72-1.74,1.47-2.44,1.6-1.49,3-3.17,4.57-4.73a62.22,62.22,0,0,1,4.66-4.49,30.15,30.15,0,0,1,4-3.27c1.6-.93,3-2.37,4.62-3.53.77-.56,2-.53,2.31-1.13.9-1.8,2.9-1.61,4.14-2.69-.09-1.8,1.26-1.06,2.11-1.19.81.29.86-.9,1.51-.81,1.28.18,2-1.32,3.3-1.06.27.05.32-.32.33-.56,0-.61.53-.45.86-.57.12-1.55,1.34-.69,2.06-.94h0l0-.87C699.42,80.09,696.94,80.05,694.45,80.09Z"/><path class="cls-3" d="M643.11,3.89l-5.37,0c-.38,0-1-.14-1.08.28-.31,1.15-1.19.79-1.93.86-4.6.43-9.32-.91-13.83.94q0,3.89,0,7.78h0q0,30.61,0,61.23h0c0,.95,0,1.9,0,2.85a2.39,2.39,0,0,0,2.31,2.23l59.95,0c.39,0,1,.14,1.12-.21.43-1.35,1.49-.89,2.35-.93,1.4-.07,2.79-.06,4.19-.08,0-.29,0-.63-.32-.79-1.42-.7-2.61-1.78-4.18-2.28a5.74,5.74,0,0,1-2.45-2.28c-.14-.18-.14-.5-.44-.53-2.22-.22-3.13-2.23-4.62-3.43-.11-.09-.13-.34-.22-.37-3-.75-4.34-3.48-6.4-5.35A51.18,51.18,0,0,0,667.4,60c-.6-.43-1.55-.82-1.15-2a1.59,1.59,0,0,0-.77-1,3.61,3.61,0,0,1-1.78-1.74,4.07,4.07,0,0,0-1.41-1.37c-.75-.45-1.56-1-1.48-2.1,0-.19,0-.5-.12-.56-1.76-.89-1.88-3.07-3.32-4.19a1.17,1.17,0,0,1-.43-1c0-.5,0-1-.72-1.1-.36,0-.4-.35-.49-.65a8.21,8.21,0,0,0-2.7-4.56,3.44,3.44,0,0,1-.94-2c-.23-1.34-1.55-2.31-1.2-3.79a.75.75,0,0,0-.62-1c-.17,0-.46-.24-.44-.32.37-1.74-1.31-3-1-4.73h0c-1.18,0-.83-.88-.85-1.54l0-1.47h0c-.9.09-1.32-.33-1.18-1.22.33-2.13-1.49-3.92-1-6.08-1.77-2.52-.67-5.36-.72-8a4.44,4.44,0,0,1,1.6-3.26h0L646.77,5h0l-.1-1.71A5.71,5.71,0,0,1,643.11,3.89Z"/><path class="cls-4" d="M640.16,159H62.67l-3.6,0h0c0,.61.31.85.94.83,1.1,0,2.2,0,3.3,0H639.52c1.1,0,2.2-.05,3.3,0,.63,0,.92-.23.94-.83h0Z"/><path class="cls-5" d="M702.69,75.22c-.05-.33-.52-.1-.78-.21-.79-.11-1.92.64-2.14-.87h0l-.83-.07c-.92,0-2.14.54-2.15-1.15h0l-.83-.05c-.8-.07-1.89.57-2.15-.86h0c-.77-.14-1.88.55-2.12-.88-.34-.14-1,.15-.91-.59s-.54-.49-.88-.63c-.79-.09-1.87.51-2.11-.9-.2,0-.53,0-.57-.06-.52-1.21-2.49-.42-2.74-2,0-.06-.37-.06-.56-.08-.62,0-1.4.29-1.26-.83-.93.32-.88-1.17-1.75-1s-1.44-.1-1.25-1.15c-.24,0-.63,0-.71-.12A3.38,3.38,0,0,0,676.3,62c-.13,0-.35-.11-.36-.19-.19-1.59-1.86-1.68-2.73-2.59-.4-.42-.18-1.62-1.28-1.33-.65,0-1.37.17-1.21-.89a1,1,0,0,0-.9-.9c-1,.16-.93-.55-.9-1.2h0c-.65,0-1.38.17-1.2-.9-.9-2.15-3.2-3.13-4.29-5.15a15.94,15.94,0,0,0-2.62-3.41c-.71-.73-.68-2.17-1.18-2.37-2-.77-1.6-2.88-2.7-4.08-1.57,0-1.25-1.13-1.22-2.08h0c-1.34-.09-.83-1.09-.89-1.81h0c-1.48-.2-.73-1.35-.9-2.1h0c-1.69,0-1.15-1.21-1.18-2.12h0c-1.39-.11-.82-1.12-.85-1.86l-.09-2-.84-.07c-.74.07-1.06-.14-1.28-1-.33-1.29-1.16-2.46-1-3.94-1.07.8-.58,1.9-.74,2.85h0l0,1.47c1,.14.89.84.85,1.54h0c-.27,1.71,1.4,3,1,4.73,0,.08.27.29.44.32a.75.75,0,0,1,.62,1c-.36,1.49,1,2.45,1.2,3.79a3.44,3.44,0,0,0,.94,2,8.21,8.21,0,0,1,2.7,4.56c.09.3.13.61.49.65.7.08.68.6.72,1.1a1.17,1.17,0,0,0,.43,1c1.44,1.11,1.57,3.29,3.32,4.19.11.06.14.37.12.56-.08,1.11.73,1.66,1.48,2.1a4.07,4.07,0,0,1,1.41,1.37A3.61,3.61,0,0,0,665.48,57a1.59,1.59,0,0,1,.77,1c-.4,1.14.55,1.53,1.15,2a51.18,51.18,0,0,1,4.82,3.83c2.05,1.87,3.4,4.6,6.4,5.35.1,0,.12.28.22.37,1.5,1.2,2.4,3.2,4.62,3.43.29,0,.3.35.44.53a5.74,5.74,0,0,0,2.45,2.28c1.57.5,2.76,1.58,4.18,2.28.32.16.29.49.32.79h0l2.33.09H702c.24,0,.68-.06.69-.13A11.82,11.82,0,0,0,702.69,75.22Z"/><path class="cls-6" d="M646.73,9.42c0-1,0-2.07-.08-3.1h0A4.44,4.44,0,0,0,645,9.58c0,2.67-1,5.51.72,8-.54,2.16,1.29,3.95,1,6.08-.14.89.28,1.31,1.18,1.22h0c.16-.95-.33-2,.74-2.85-.16,1.48.67,2.65,1,3.94.22.85.54,1.06,1.28,1q0-1.05,0-2.1l-.06-.84c-1.93.07-1-1.34-1.11-2.18.42-1.16-1-1.67-.95-2.7s0-2.15,0-3.23c-.51-.06-.79-.28-.78-.85,0-1,0-2.07,0-3.11h0l-.08-1.46C647.08,10.58,646.71,10.26,646.73,9.42Z"/><path class="cls-3" d="M694.45,80.09c2.48,0,5,0,7.45,0l.09-1.17h-8.81C693.11,79.87,693.59,80.1,694.45,80.09Z"/><path class="cls-7" d="M646.65,6.32h0c0,1,.11,2.07.08,3.1,0,.85.35,1.16,1.14,1.1,0-1.53,0-3.06,0-4.59,0-.91-.5-.92-1.12-.92h0Z"/><path class="cls-6" d="M643.31,3.35c-.09,0-.14.35-.2.53h0a5.71,5.71,0,0,0,3.57-.59V2.13c-1,.09-.85-.64-.84-1.25s-.22-1-.92-.8C644.79,1.37,645.49,3.05,643.31,3.35Z"/><path class="cls-8" d="M646.72,148.1c0,.64,0,1.29,0,1.94.76,0,1.21-.28,1.16-1.13,0-.64,0-1.29,0-1.93h0C647.11,147,646.66,147.23,646.72,148.1Z"/><path class="cls-9" d="M648,15.09c0,.57.28.79.78.85,0-1,0-2.06,0-3.08,0-.59-.19-1-.85-.88h0C648,13,648,14.05,648,15.09Z"/><path class="cls-10" d="M691.71,86.09c.88-.09,2.17.57,2.11-1.19C693,85,691.62,84.3,691.71,86.09Z"/><path class="cls-11" d="M650.86,24c-.12-.85.77-2.22-1.11-2.18C649.91,22.71,648.93,24.12,650.86,24Z"/><path class="cls-12" d="M653.9,33c-.12-.86.59-2.18-1.18-2.12C652.75,31.8,652.21,33,653.9,33Z"/><path class="cls-13" d="M656.92,39c-.09-.88.44-2.12-1.22-2.08C655.68,37.85,655.35,39,656.92,39Z"/><path class="cls-14" d="M698.95,74.07c0-1.82-1.31-1-2.15-1.15C696.81,74.61,698,74.06,698.95,74.07Z"/><path class="cls-15" d="M701.91,75c-.23-1.48-1.37-.7-2.14-.87h0C700,75.64,701.13,74.9,701.91,75Z"/><path class="cls-16" d="M699.82,81.9c.72-.25,2,.72,2.06-.94h0C701.16,81.21,699.94,80.35,699.82,81.9Z"/><path class="cls-17" d="M693.82,72c-.24-1.42-1.33-.79-2.12-.88C691.94,72.54,693.05,71.85,693.82,72Z"/><path class="cls-18" d="M651.77,27.06c-.11-.79.65-1.91-.84-2.17q0,1.05,0,2.1Z"/><path class="cls-19" d="M689.91,69.9c-.23-1.4-1.34-.76-2.11-.9C688,70.41,689.12,69.81,689.91,69.9Z"/><path class="cls-20" d="M654.8,35.11c-.08-.79.52-1.88-.9-2.1C654.08,33.76,653.32,34.91,654.8,35.11Z"/><path class="cls-21" d="M645.87,156c1.46-.3.67-1.41.78-2.19C645.18,154.15,646,155.27,645.87,156Z"/><path class="cls-22" d="M696,72.86c-.2-1.56-1.42-.6-2.15-.86C694.07,73.44,695.16,72.79,696,72.86Z"/><path class="cls-23" d="M652.71,30.9c-.18-.67.67-1.81-.85-1.86h0C651.89,29.78,651.31,30.79,652.71,30.9Z"/><path class="cls-24" d="M655.7,36.91c0-.73.4-1.7-.89-1.81C654.87,35.82,654.36,36.82,655.7,36.91Z"/><path class="cls-25" d="M680.93,65.08c.18-1-.3-1.34-1.25-1.15C679.48,65,680,65.26,680.93,65.08Z"/><path class="cls-26" d="M646.67,2.13c.06-.65.24-1.37-.84-1.25C645.82,1.49,645.63,2.22,646.67,2.13Z"/><path class="cls-25" d="M683.94,66.87c.13-1.1-.63-.87-1.26-.83C682.54,67.16,683.32,66.89,683.94,66.87Z"/><path class="cls-27" d="M671.93,57.89c.17-1.07-.58-.9-1.21-.89C670.56,58.06,671.28,57.92,671.93,57.89Z"/><path class="cls-27" d="M669.82,56.1c0-.64.18-1.38-.9-1.2C668.88,55.54,668.77,56.26,669.82,56.1Z"/><path class="cls-28" d="M668.92,54.89c.17-1.06-.57-.91-1.2-.9C667.54,55.06,668.27,54.92,668.92,54.89Z"/><path class="cls-5" d="M612.85,68.44c0-.6.17-1,.82-1q0-18.73,0-37.47c0-.8,0-1.6.06-2.4l-.08-.56h0L599,27c-.6,0-1.2,0-1.8,0L544,27c-2.63,0-2.27-.29-2.27,2.34q0,25.55,0,51.1c0,.5,0,1-.05,1.5h0l.11,7.46h0a8,8,0,0,1,2.36-.28h28.75c.82,0,1.6,0,2.1-.8.32-.52.88-.38,1.36-.38h30.7c.39,0,1-.05,1.14.17,1.27,1.62,3,.83,4.57,1h0l.09-2.35h0Q612.86,77.58,612.85,68.44Z"/><path class="cls-29" d="M608.2,88.08c-.17-.22-.75-.17-1.14-.17h-30.7c-.48,0-1-.14-1.36.38-.5.82-1.29.8-2.1.8H544.14a8,8,0,0,0-2.36.28h0c0,2.9-.05,5.79-.05,8.69q0,21.74,0,43.47c0,.8,0,1.6.06,2.4h0c.45,0,.9,0,1.35,0H608c.9,0,1.8,0,2.7,0a2,2,0,0,0,1.26-.52c1-.76.83-1.71.83-2.65q0-22,0-44.06c0-2.55,0-5.09,0-7.64h0C611.22,88.91,609.47,89.7,608.2,88.08Z"/><path class="cls-30" d="M619.69,28.21h0c-.39-1.56-.77-3.12-1.19-4.67-.15-.57-.32-1.2-1.06-1.3s-.89.5-1.33.79c-1.27.85-1.31,2-1.2,3.34.08.86-.18,1.36-1.15,1.24h0c0,.8-.05,1.6-.06,2.4q0,18.73,0,37.47,0,7.67.07,15.33h0a2.42,2.42,0,0,0,1.09-2.18,12.84,12.84,0,0,1,1.13-4.42c.42-1.27.81-2.33,2.46-1.31.34.21.87.09,1.32.12q0-23.39,0-46.79Z"/><path class="cls-31" d="M541.73,98.07c0-2.9,0-5.79.05-8.69h0l-.11-7.46h0a1.57,1.57,0,0,0-.32.13v61.9h.43c0-.8-.06-1.6-.06-2.4Q541.72,119.8,541.73,98.07Z"/><path class="cls-32" d="M620.9,13.79h0c-1,.25-1.21.88-1.2,1.87.05,4.18,0,8.36,0,12.55h0q0,23.39,0,46.79l1.17,0h0Q620.9,44.4,620.9,13.79Z"/><path class="cls-33" d="M612.85,68.44q0,9.14,0,18.29h0c.77,0,.84-.5.83-1.11,0-.94,0-1.89,0-2.83h0q0-7.67-.07-15.33C613,67.47,612.84,67.84,612.85,68.44Z"/><path class="cls-6" d="M648.79,27.92h0c0-.69.1-1.4-.85-1.54C648,27,647.62,27.91,648.79,27.92Z"/><path class="cls-34" d="M598.44,26.1h15.28q0-.62,0-1.23h0l-9.89,0c-7.45,0-14.9.17-22.34-.05s-14.8.85-22.19-.75c-3-.65-6.21-.29-9.32-.39a22.42,22.42,0,0,1-6.15-.73,11.18,11.18,0,0,0-2.48-.62V82a1.57,1.57,0,0,1,.32-.13h0c0-.5.05-1,.05-1.5q0-25.55,0-51.1c0-2.63-.35-2.34,2.27-2.34l53.2,0C597.18,26.05,597.81,26.1,598.44,26.1Z"/><path class="cls-35" d="M613.71,26.11H598.44c-.62,0-1.25,0-1.24.86.6,0,1.2,0,1.8,0l14.69,0h0Z"/><path class="cls-5" d="M59.51,3.36c.09,0,.14.35.2.53h0l5.37,0c.38,0,1-.14,1.08.28.31,1.15,1.19.79,1.93.86,4.6.43,9.32-.91,13.83.94h0L92.07,6c.8,0,1.6-.07,2.39-.07H608.36c.8,0,1.6,0,2.39.07l10.16,0h0c4.51-1.84,9.23-.51,13.83-.94.74-.07,1.61.29,1.93-.86.12-.42.69-.27,1.08-.28l5.37,0h0c.07-.18.11-.52.2-.53,2.18-.3,1.48-2,1.59-3.27-.8,0-1.59-.08-2.39-.08H60.3c-.8,0-1.59.05-2.39.08C58,1.37,57.33,3.05,59.51,3.36Z"/><path class="cls-3" d="M56.17,6.32h0a4.44,4.44,0,0,1,1.6,3.26c0,2.67,1,5.51-.72,8,.54,2.16-1.29,3.95-1,6.08.14.89-.28,1.31-1.18,1.22h0l0,1.47c0,.66.32,1.52-.85,1.54h0c.27,1.71-1.4,3-1,4.73,0,.08-.27.29-.44.32a.75.75,0,0,0-.62,1c.36,1.49-1,2.45-1.2,3.79a3.44,3.44,0,0,1-.94,2,8.21,8.21,0,0,0-2.7,4.56c-.09.3-.13.61-.49.65-.7.08-.68.6-.72,1.1a1.17,1.17,0,0,1-.43,1C44,48.2,43.9,50.38,42.14,51.28c-.11.06-.14.37-.12.56.08,1.11-.73,1.66-1.48,2.1a4.07,4.07,0,0,0-1.41,1.37A3.61,3.61,0,0,1,37.34,57a1.59,1.59,0,0,0-.77,1c.4,1.14-.55,1.53-1.15,2a51.18,51.18,0,0,0-4.82,3.83c-2.05,1.87-3.4,4.6-6.4,5.35-.1,0-.12.28-.22.37-1.5,1.2-2.4,3.2-4.62,3.43-.29,0-.3.35-.44.53a5.74,5.74,0,0,1-2.45,2.28c-1.57.5-2.76,1.58-4.18,2.28-.32.16-.29.49-.32.79,1.4,0,2.8,0,4.19.08.86,0,1.93-.42,2.35.93.11.35.73.21,1.12.21l59.95,0a2.39,2.39,0,0,0,2.31-2.23c0-.95,0-1.9,0-2.85h0q0-30.61,0-61.23h0q0-3.89,0-7.78c-4.51-1.84-9.23-.51-13.83-.94-.74-.07-1.61.29-1.93-.86-.12-.42-.69-.27-1.08-.28l-5.37,0a5.71,5.71,0,0,1-3.57-.59L56.05,5h0Z"/><path class="cls-5" d="M12,78.85h0c0-.29,0-.63.32-.79,1.42-.7,2.6-1.78,4.18-2.28a5.74,5.74,0,0,0,2.45-2.28c.14-.18.14-.5.44-.53,2.22-.22,3.13-2.23,4.62-3.43.11-.09.13-.34.22-.37,3-.75,4.34-3.48,6.4-5.35A51.18,51.18,0,0,1,35.42,60c.6-.43,1.55-.82,1.15-2a1.59,1.59,0,0,1,.77-1,3.61,3.61,0,0,0,1.78-1.74,4.07,4.07,0,0,1,1.41-1.37c.75-.45,1.56-1,1.48-2.1,0-.19,0-.5.12-.56,1.76-.89,1.88-3.07,3.32-4.19a1.17,1.17,0,0,0,.43-1c0-.5,0-1,.72-1.1.36,0,.4-.35.49-.65a8.21,8.21,0,0,1,2.7-4.56,3.44,3.44,0,0,0,.94-2c.23-1.34,1.55-2.31,1.2-3.79a.75.75,0,0,1,.62-1c.17,0,.46-.24.44-.32-.37-1.74,1.31-3,1-4.73h0c0-.69-.1-1.4.85-1.54l0-1.47h0c-.16-.95.33-2-.74-2.85.16,1.48-.67,2.65-1,3.94-.22.85-.54,1.06-1.28,1l-.84.07L51,29c0,.74.54,1.75-.85,1.86h0c0,.91.51,2.14-1.18,2.12h0c-.17.76.59,1.91-.9,2.1h0c-.06.72.45,1.72-.89,1.81h0c0,.95.35,2.07-1.22,2.08-1.1,1.19-.72,3.3-2.7,4.08-.51.2-.47,1.63-1.18,2.37a15.94,15.94,0,0,0-2.62,3.41c-1.1,2-3.4,3-4.29,5.15.18,1.07-.55.93-1.2.9h0c0,.65.15,1.36-.9,1.2a1,1,0,0,0-.9.9c.16,1.06-.56.93-1.21.89-1.1-.29-.89.91-1.28,1.33-.87.91-2.54,1-2.73,2.59,0,.08-.23.17-.36.19a3.38,3.38,0,0,0-2.67,1.81c-.07.13-.46.08-.71.12.2,1-.31,1.33-1.25,1.15s-.82,1.27-1.75,1c.14,1.13-.64.86-1.26.83-.2,0-.55,0-.56.08-.25,1.57-2.22.78-2.74,2,0,.09-.37,0-.57.06-.23,1.41-1.31.81-2.11.9-.35.13-.94-.1-.88.63s-.57.45-.91.59c-.23,1.43-1.35.74-2.12.88H9c-.25,1.44-1.34.8-2.15.86L6,72.92H6c0,1.7-1.24,1.14-2.15,1.15L3,74.14H3c-.22,1.5-1.35.76-2.14.87-.26.11-.73-.12-.78.21a11.82,11.82,0,0,0,0,3.57c0,.08.45.09.69.13H9.64Z"/><path class="cls-6" d="M53.17,26c.33-1.29,1.16-2.46,1-3.94,1.07.8.58,1.9.74,2.85h0c.9.09,1.32-.33,1.18-1.22-.33-2.13,1.49-3.92,1-6.08,1.77-2.52.67-5.36.72-8a4.44,4.44,0,0,0-1.6-3.26h0c0,1-.11,2.07-.08,3.1,0,.85-.35,1.16-1.14,1.1L54.87,12h0c0,1-.05,2.08,0,3.11,0,.57-.28.79-.78.85C54,17,54,18.1,54,19.17s-1.37,1.55-.95,2.7c-.16.83.82,2.25-1.11,2.18l-.06.84V27C52.64,27.06,53,26.86,53.17,26Z"/><path class="cls-3" d="M8.37,80.09c.86,0,1.34-.22,1.27-1.15H.83l.09,1.17C3.4,80.09,5.89,80.05,8.37,80.09Z"/><path class="cls-7" d="M56.09,9.42c0-1,0-2.07.08-3.1h0L56.05,5h0c-.63,0-1.16,0-1.12.92.06,1.53,0,3.06,0,4.59C55.74,10.58,56.11,10.26,56.09,9.42Z"/><path class="cls-6" d="M59.71,3.89h0c-.07-.18-.11-.52-.2-.53-2.18-.3-1.48-2-1.59-3.27-.7-.19-.88.22-.92.8s.2,1.34-.84,1.25q0,.58,0,1.17A5.71,5.71,0,0,0,59.71,3.89Z"/><path class="cls-8" d="M54.94,147h0c0,.64,0,1.29,0,1.93-.05.85.39,1.14,1.16,1.13,0-.65,0-1.29,0-1.94C56.17,147.23,55.72,147,54.94,147Z"/><path class="cls-9" d="M54.83,15.09c0-1,0-2.07,0-3.11h0c-.66-.07-.86.29-.85.88,0,1,0,2.06,0,3.08C54.55,15.88,54.84,15.66,54.83,15.09Z"/><path class="cls-10" d="M9,84.9c-.06,1.76,1.23,1.1,2.11,1.19C11.2,84.3,9.86,85,9,84.9Z"/><path class="cls-11" d="M53.07,21.87c-1.88,0-1,1.32-1.11,2.18C53.89,24.12,52.92,22.71,53.07,21.87Z"/><path class="cls-12" d="M50.1,30.89C48.32,30.82,49,32.15,48.92,33,50.61,33,50.07,31.8,50.1,30.89Z"/><path class="cls-13" d="M47.12,36.91c-1.66,0-1.13,1.2-1.22,2.08C47.47,39,47.15,37.85,47.12,36.91Z"/><path class="cls-14" d="M6,72.92c-.85.14-2.2-.66-2.15,1.15C4.79,74.06,6,74.61,6,72.92Z"/><path class="cls-15" d="M3,74.14H3c-.76.17-1.91-.62-2.14.87C1.7,74.9,2.83,75.64,3,74.14Z"/><path class="cls-16" d="M.95,81h0c.07,1.66,1.34.69,2.06.94C2.88,80.35,1.66,81.21.95,81Z"/><path class="cls-17" d="M11.12,71.11c-.79.1-1.88-.54-2.12.88C9.77,71.85,10.89,72.54,11.12,71.11Z"/><path class="cls-18" d="M51.9,24.89c-1.48.26-.73,1.38-.84,2.17L51.9,27Z"/><path class="cls-19" d="M15,69c-.77.14-1.87-.5-2.11.9C13.7,69.81,14.78,70.41,15,69Z"/><path class="cls-20" d="M48.92,33c-1.41.23-.81,1.31-.9,2.1C49.51,34.91,48.75,33.76,48.92,33Z"/><path class="cls-21" d="M56.17,153.85c.12.78-.68,1.89.78,2.19C56.8,155.27,57.64,154.15,56.17,153.85Z"/><path class="cls-22" d="M9,72c-.72.27-1.94-.7-2.15.86C7.67,72.79,8.76,73.44,9,72Z"/><path class="cls-23" d="M51,29h0c-1.52.05-.67,1.19-.85,1.86C51.51,30.79,50.94,29.78,51,29Z"/><path class="cls-24" d="M48,35.1c-1.3.11-.86,1.07-.89,1.81C48.46,36.82,48,35.82,48,35.1Z"/><path class="cls-25" d="M23.14,63.93c-.95-.19-1.42.12-1.25,1.15C22.83,65.26,23.34,65,23.14,63.93Z"/><path class="cls-26" d="M57,.88c-1.08-.12-.9.6-.84,1.25C57.19,2.22,57,1.49,57,.88Z"/><path class="cls-25" d="M20.14,66c-.62,0-1.38-.26-1.26.83C19.51,66.89,20.29,67.16,20.14,66Z"/><path class="cls-27" d="M32.11,57c-.63,0-1.38-.18-1.21.89C31.55,57.92,32.26,58.06,32.11,57Z"/><path class="cls-27" d="M33.91,54.9c-1.08-.18-.92.56-.9,1.2C34.05,56.26,33.94,55.54,33.91,54.9Z"/><path class="cls-28" d="M35.1,54c-.64,0-1.37-.16-1.2.9C34.55,54.92,35.28,55.06,35.1,54Z"/><path class="cls-36" d="M83.13,15.66c-.05,4.18,0,8.36,0,12.55h0c.39-1.56.77-3.12,1.19-4.67.15-.57.32-1.2,1.06-1.3s.89.5,1.33.79c1.27.85,1.31,2,1.2,3.34-.08.86.18,1.36,1.15,1.24h0l.08-.56h0l0-.93V24.88h0c-.28-.7.51-1.78-.77-2.13-.14,0-.14-.14,0-.2,1.51-.7.58-2,.7-3,.19-1.65.78-2.4,2.43-2.42,1.2,0,2.4,0,3.6,0h512.7c1.2,0,2.4,0,3.6,0,1.65,0,2.24.77,2.43,2.42.12,1-.81,2.33.7,3,.13.06.13.16,0,.2-1.28.34-.49,1.43-.77,2.13h0q0,.62,0,1.23l0,.93h0l.08.56h0c1,.12,1.22-.39,1.15-1.24-.11-1.29-.07-2.49,1.2-3.34.43-.29.68-.88,1.33-.79s.9.74,1.06,1.3c.42,1.55.8,3.11,1.19,4.67h0c0-4.18.06-8.36,0-12.55,0-1,.21-1.62,1.2-1.87h0q0-3.89,0-7.78h0L610.75,6c-.07,1.15-1,.81-1.58.81q-14.92,0-29.85,0H123.49q-14.92,0-29.85,0c-.62,0-1.5.33-1.58-.81L81.91,6h0q0,3.89,0,7.78h0C82.92,14,83.14,14.67,83.13,15.66Z"/><path class="cls-5" d="M94.62,88.08c.17-.22.75-.17,1.14-.17h30.7c.48,0,1-.14,1.36.38.5.82,1.29.8,2.1.8h28.75a8,8,0,0,1,2.36.28h0l.11-7.46h0c0-.5-.05-1-.05-1.5q0-25.55,0-51.1c0-2.63.35-2.34-2.27-2.34l-53.2,0c-.6,0-1.2,0-1.8,0L89.14,27h0l-.08.56c0,.8.05,1.6.06,2.4q0,18.73,0,37.47c.65,0,.82.39.82,1q0,9.14,0,18.29h0l.09,2.35h0C91.61,88.91,93.35,89.7,94.62,88.08Z"/><path class="cls-29" d="M161.09,98.07c0-2.9,0-5.79-.05-8.69h0a8,8,0,0,0-2.36-.28H129.93c-.82,0-1.6,0-2.1-.8-.32-.52-.88-.38-1.36-.38H95.77c-.39,0-1-.05-1.14.17-1.27,1.62-3,.82-4.57,1h0c0,2.55,0,5.09,0,7.64q0,22,0,44.06c0,.94-.15,1.89.83,2.65a2,2,0,0,0,1.26.52c.9,0,1.8,0,2.7,0h64.9c.45,0,.9,0,1.35,0h0c0-.8.06-1.6.06-2.4Q161.1,119.8,161.09,98.07Z"/><path class="cls-30" d="M89.11,30c0-.8,0-1.6-.06-2.4h0c-1,.12-1.22-.39-1.15-1.24C88,25.07,88,23.87,86.7,23c-.43-.29-.68-.88-1.33-.79s-.9.74-1.06,1.3c-.42,1.55-.8,3.11-1.19,4.67h0q0,23.39,0,46.79c.44,0,1,.09,1.32-.12,1.64-1,2,0,2.46,1.31A12.84,12.84,0,0,1,88,80.61a2.42,2.42,0,0,0,1.09,2.18h0q0-7.67.07-15.33Q89.13,48.73,89.11,30Z"/><path class="cls-31" d="M161.62,82.14a1.43,1.43,0,0,0-.46-.23h0L161,89.37h0c0,2.9.05,5.79.05,8.69q0,21.74,0,43.47c0,.8,0,1.6-.06,2.4h.58V82.14Z"/><path class="cls-32" d="M83.13,28.21h0c0-4.18-.06-8.36,0-12.55,0-1-.21-1.62-1.2-1.87h0q0,30.61,0,61.23h0l1.17,0q0-23.39,0-46.79Z"/><path class="cls-33" d="M90,68.44c0-.6-.17-1-.82-1q0,7.67-.07,15.33h0c0,.94.05,1.89,0,2.83,0,.61.07,1.11.83,1.11h0Q90,77.58,90,68.44Z"/><path class="cls-37" d="M93.65,6.85q14.92,0,29.85,0H579.33q14.92,0,29.85,0c.62,0,1.5.33,1.58-.81-.8,0-1.6-.07-2.39-.07H94.47c-.8,0-1.6,0-2.39.07C92.14,7.19,93,6.85,93.65,6.85Z"/><path class="cls-6" d="M54.88,26.38c-1,.14-.89.84-.85,1.54h0C55.21,27.91,54.86,27,54.88,26.38Z"/><path class="cls-35" d="M121.35,24.84c7.39-.22,14.8.85,22.19-.75,3-.65,6.21-.29,9.32-.39A22.42,22.42,0,0,0,159,23a10.18,10.18,0,0,1,2.62-.64v0a12.73,12.73,0,0,1,4.46.85,12.28,12.28,0,0,0,4.49.68c6.64-.11,13.17,1.48,19.82,1a110.61,110.61,0,0,1,12.39-.35c4.52.2,8.92-.75,13.39-.94a53.57,53.57,0,0,0,8.38-1.26,5.7,5.7,0,0,1,.8-.1v.12a12.62,12.62,0,0,1,3.93.82,12.28,12.28,0,0,0,4.49.68c6.64-.11,13.17,1.48,19.82,1A110.61,110.61,0,0,1,266,24.57c4.52.2,8.92-.75,13.39-.94a53.57,53.57,0,0,0,8.38-1.26,5.7,5.7,0,0,1,.8-.1v.12a12.61,12.61,0,0,1,3.93.82,12.28,12.28,0,0,0,4.49.68c6.64-.11,13.17,1.48,19.82,1a110.61,110.61,0,0,1,12.39-.35c4.52.2,8.92-.75,13.39-.94a53.57,53.57,0,0,0,8.38-1.26,5.7,5.7,0,0,1,.8-.1v.12a12.62,12.62,0,0,1,3.93.82,12.28,12.28,0,0,0,4.49.68c6.64-.11,13.17,1.48,19.82,1a110.61,110.61,0,0,1,12.39-.35c4.52.2,8.92-.75,13.39-.94a53.57,53.57,0,0,0,8.38-1.26,5.7,5.7,0,0,1,.8-.1v.12a12.62,12.62,0,0,1,3.93.82,12.28,12.28,0,0,0,4.49.68c6.64-.11,13.17,1.48,19.82,1a110.61,110.61,0,0,1,12.39-.35c4.52.2,8.92-.75,13.39-.94a53.57,53.57,0,0,0,8.38-1.26,5.7,5.7,0,0,1,.8-.1v.12a12.62,12.62,0,0,1,3.93.82,12.28,12.28,0,0,0,4.49.68c6.64-.11,13.17,1.48,19.82,1a110.61,110.61,0,0,1,12.39-.35c4.52.2,8.92-.75,13.39-.94a53.57,53.57,0,0,0,8.38-1.26,5.7,5.7,0,0,1,.8-.1v.08a11.18,11.18,0,0,1,2.48.62,22.42,22.42,0,0,0,6.15.73c3.11.1,6.33-.26,9.32.39,7.38,1.6,14.8.53,22.19.75s14.89.05,22.34.05l9.89,0h0c.28-.7-.51-1.78.77-2.13.14,0,.14-.14,0-.2-1.51-.7-.58-2-.7-3-.19-1.65-.78-2.4-2.43-2.42-1.2,0-2.4,0-3.6,0H95.06c-1.2,0-2.4,0-3.6,0-1.65,0-2.24.77-2.43,2.42-.12,1,.81,2.33-.7,3-.13.06-.13.16,0,.2,1.28.34.49,1.43.77,2.13h0l9.89,0C106.46,24.89,113.91,25.07,121.35,24.84Z"/><path class="cls-34" d="M161.62,24V22.33A10.18,10.18,0,0,0,159,23a22.42,22.42,0,0,1-6.15.73c-3.11.1-6.33-.26-9.32.39-7.38,1.6-14.8.53-22.19.75s-14.89.05-22.34.05l-9.89,0h0v1.23h15.28c.62,0,1.25,0,1.24.86l53.2,0c2.63,0,2.27-.29,2.27,2.34q0,25.55,0,51.1c0,.5,0,1,.05,1.5h0a1.43,1.43,0,0,1,.46.23V24Z"/><path class="cls-35" d="M104.39,26.1H89.11l0,.93h0l14.69,0c.6,0,1.2,0,1.8,0C105.64,26.05,105,26.1,104.39,26.1Z"/><path class="cls-38" d="M540.42,88.78c-2.62-1.52-5.48-.74-8.24-.85-3-.11-6,0-9,0-.88,0-1.8-.19-2.31.89-.22.46-.81.28-1.24.28H478.72c0,9.39-.06,18.79-.06,28.18,0,8.89,0,17.79.07,26.68h0l61.75,0q0-27.23,0-54.46C540.47,89.27,540.44,89,540.42,88.78Z"/><path class="cls-39" d="M478.72,89.08q0-3.42-.1-6.84h0a1.6,1.6,0,0,0-.43.12V144h.59c0-8.89-.07-17.79-.07-26.68C478.66,107.87,478.7,98.47,478.72,89.08Z"/><path class="cls-40" d="M540.52,86.41l-.09,2.36h0c0,.25,0,.5,0,.75q0,27.23,0,54.46l.86,0V86.26A1.31,1.31,0,0,1,540.52,86.41Z"/><path class="cls-5" d="M540.42,27h0l-25.16,0c-.7,0-1.4,0-2.09,0l-32.23,0c-.75,0-1.5,0-2.25.06h0q0,4-.06,8h0q0,20.5,0,41c0,2,0,4.09,0,6.13h0v0q0,3.42.1,6.84h40.91c.43,0,1,.18,1.24-.28.52-1.08,1.43-.89,2.31-.89,3,0,6-.09,9,0,2.76.1,5.62-.67,8.24.85h0l.09-2.36q0-8.92,0-17.85Q540.44,47.79,540.42,27Z"/><path class="cls-41" d="M478.62,82.22c0-2,.05-4.09,0-6.13q0-20.5,0-41h0a2.32,2.32,0,0,1-.48-.39V82.34a1.6,1.6,0,0,1,.43-.12h0Z"/><path class="cls-42" d="M540.53,27l-.11,0h0q0,20.77.05,41.55,0,8.92,0,17.85a1.31,1.31,0,0,0,.83-.16V27Z"/><path class="cls-41" d="M540.55,22.37a53.57,53.57,0,0,1-8.38,1.26c-4.47.19-8.87,1.14-13.39.94a110.61,110.61,0,0,0-12.39.35c-6.65.45-13.18-1.13-19.82-1a12.28,12.28,0,0,1-4.49-.68,12.62,12.62,0,0,0-3.93-.82v-.12a5.7,5.7,0,0,0-.8.1A53.57,53.57,0,0,1,469,23.64c-4.47.19-8.87,1.14-13.39.94a110.61,110.61,0,0,0-12.39.35c-6.65.45-13.18-1.13-19.82-1a12.28,12.28,0,0,1-4.49-.68,12.62,12.62,0,0,0-3.93-.82v-.12a5.7,5.7,0,0,0-.8.1,53.57,53.57,0,0,1-8.38,1.26c-4.47.19-8.87,1.14-13.39.94a110.61,110.61,0,0,0-12.39.35c-6.65.45-13.18-1.13-19.82-1a12.28,12.28,0,0,1-4.49-.68,12.62,12.62,0,0,0-3.93-.82v-.12a5.7,5.7,0,0,0-.8.1,53.57,53.57,0,0,1-8.38,1.26c-4.47.19-8.87,1.14-13.39.94a110.61,110.61,0,0,0-12.39.35c-6.65.45-13.18-1.13-19.82-1a12.28,12.28,0,0,1-4.49-.68,12.61,12.61,0,0,0-3.93-.82v-.12a5.7,5.7,0,0,0-.8.1,53.57,53.57,0,0,1-8.38,1.26c-4.47.19-8.87,1.14-13.39.94a110.61,110.61,0,0,0-12.39.35c-6.65.45-13.18-1.13-19.82-1a12.28,12.28,0,0,1-4.49-.68,12.62,12.62,0,0,0-3.93-.82v-.12a5.7,5.7,0,0,0-.8.1,53.57,53.57,0,0,1-8.38,1.26c-4.47.19-8.87,1.14-13.39.94a110.61,110.61,0,0,0-12.39.35c-6.65.45-13.18-1.13-19.82-1a12.28,12.28,0,0,1-4.49-.68,12.73,12.73,0,0,0-4.46-.85V24l.18.07c3.23,1.49,6.5.39,9.71.78.54.07,1.1,0,1.54.63a4.35,4.35,0,0,1-2.36.59c-2.29,0-4.59,0-6.88,0-.67,0-1.22.07-1.13.94h0c.75,0,1.5-.05,2.25-.06l32.23,0c.29-.83.94-.87,1.69-.87,5.25,0,10.5,0,15.75,0a1.32,1.32,0,0,1,1.66-1.17,15.05,15.05,0,0,0,1.9,0c.18-.83.84-.89,1.5-.9,1.89,0,3.79,0,5.68,0v.26c3.12,1.27,6.27.26,9.37.64.54.07,1.1,0,1.54.63a4.35,4.35,0,0,1-2.36.59c-2.29,0-4.59,0-6.88,0-.67,0-1.22.07-1.13.94h0c.75,0,1.5-.05,2.25-.06l32.23,0c.29-.83.94-.87,1.69-.87,5.25,0,10.5,0,15.75,0a1.32,1.32,0,0,1,1.66-1.17,15.05,15.05,0,0,0,1.9,0c.18-.83.84-.89,1.5-.9,1.89,0,3.79,0,5.68,0v.26c3.12,1.27,6.27.26,9.37.64.54.07,1.1,0,1.54.63a4.35,4.35,0,0,1-2.36.59c-2.29,0-4.59,0-6.88,0-.67,0-1.22.07-1.13.94h0c.75,0,1.5-.05,2.25-.06l32.23,0c.29-.83.94-.87,1.69-.87,5.25,0,10.5,0,15.75,0a1.32,1.32,0,0,1,1.66-1.17,15.05,15.05,0,0,0,1.9,0c.18-.83.84-.89,1.5-.9,1.89,0,3.79,0,5.68,0v.26c3.12,1.27,6.27.26,9.37.64.54.07,1.1,0,1.54.63a4.35,4.35,0,0,1-2.36.59c-2.29,0-4.59,0-6.88,0-.67,0-1.22.07-1.13.94h0c.75,0,1.5-.05,2.25-.06l32.23,0c.29-.83.94-.87,1.69-.87,5.25,0,10.5,0,15.75,0a1.32,1.32,0,0,1,1.66-1.17,15.05,15.05,0,0,0,1.9,0c.18-.83.84-.89,1.5-.9,1.89,0,3.79,0,5.68,0v.26c3.12,1.27,6.27.26,9.37.64.54.07,1.1,0,1.54.63a4.35,4.35,0,0,1-2.36.59c-2.29,0-4.59,0-6.88,0-.67,0-1.22.07-1.13.94h0c.75,0,1.5-.05,2.25-.06L450,27c.29-.83.94-.87,1.69-.87,5.25,0,10.5,0,15.75,0a1.32,1.32,0,0,1,1.66-1.17,15.05,15.05,0,0,0,1.9,0c.18-.83.84-.89,1.5-.9,1.89,0,3.79,0,5.68,0v.26c3.12,1.27,6.27.26,9.37.64.54.07,1.1,0,1.54.63a4.35,4.35,0,0,1-2.36.59c-2.29,0-4.59,0-6.88,0-.67,0-1.22.07-1.13.94h0c.75,0,1.5-.05,2.25-.06l32.23,0c.29-.83.94-.87,1.69-.87,5.25,0,10.5,0,15.75,0a1.32,1.32,0,0,1,1.66-1.17,15.05,15.05,0,0,0,1.9,0c.18-.83.84-.89,1.5-.9,1.89,0,3.79,0,5.68,0V22.27A5.7,5.7,0,0,0,540.55,22.37Z"/><path class="cls-43" d="M479.82,26.09c2.29,0,4.59,0,6.88,0a4.35,4.35,0,0,0,2.36-.59c-.44-.61-1-.56-1.54-.62-3.1-.38-6.25.63-9.37-.64V34.7a2.32,2.32,0,0,0,.48.39h0q0-4,.06-8h0C478.59,26.16,479.15,26.09,479.82,26.09Z"/><path class="cls-35" d="M539.19,26.08h-8.58c-5.25,0-10.5,0-15.75,0-.75,0-1.4,0-1.69.87.7,0,1.4,0,2.09,0l25.16,0,.11,0C540.53,26,539.85,26.08,539.19,26.08Z"/><path class="cls-44" d="M534.17,24.9a15.05,15.05,0,0,1-1.9,0,1.32,1.32,0,0,0-1.66,1.17h8.58c.66,0,1.34-.07,1.34.89h.82V24.89Z"/><path class="cls-45" d="M535.67,24c-.65,0-1.32.07-1.5.9h7.18V24C539.45,24,537.56,24,535.67,24Z"/><path class="cls-38" d="M477.22,88.78c-2.62-1.52-5.48-.74-8.24-.85-3-.11-6,0-9,0-.88,0-1.8-.19-2.31.89-.22.46-.81.28-1.24.28H415.52c0,9.39-.06,18.79-.06,28.18,0,8.89,0,17.79.07,26.68h0l61.75,0q0-27.23,0-54.46C477.27,89.27,477.24,89,477.22,88.78Z"/><path class="cls-39" d="M415.52,89.08q0-3.42-.1-6.84h0a1.6,1.6,0,0,0-.43.12V144h.59c0-8.89-.07-17.79-.07-26.68C415.46,107.87,415.5,98.47,415.52,89.08Z"/><path class="cls-40" d="M477.31,86.41l-.09,2.36h0c0,.25,0,.5,0,.75q0,27.23,0,54.46l.86,0h0V86.26A1.31,1.31,0,0,1,477.31,86.41Z"/><path class="cls-5" d="M477.22,27h0l-25.16,0c-.7,0-1.4,0-2.09,0l-32.23,0c-.75,0-1.5,0-2.25.06h0q0,4-.06,8h0q0,20.5,0,41c0,2,0,4.09,0,6.13h0v0q0,3.42.1,6.84h40.91c.43,0,1,.18,1.24-.28.52-1.08,1.43-.89,2.31-.89,3,0,6-.09,9,0,2.76.1,5.62-.67,8.24.85h0l.09-2.36q0-8.92,0-17.85Q477.24,47.79,477.22,27Z"/><path class="cls-41" d="M415.42,82.22c0-2,.05-4.09,0-6.13q0-20.5,0-41h0a2.32,2.32,0,0,1-.48-.38V82.34a1.6,1.6,0,0,1,.43-.12h0Z"/><path class="cls-42" d="M478.15,27h-.82l-.11,0h0q0,20.77.05,41.55,0,8.92,0,17.85a1.31,1.31,0,0,0,.83-.16V27Z"/><path class="cls-43" d="M416.62,26.09c2.29,0,4.59,0,6.88,0a4.35,4.35,0,0,0,2.36-.59c-.44-.61-1-.56-1.54-.62-3.1-.38-6.25.63-9.37-.64V34.7a2.32,2.32,0,0,0,.48.38h0q0-4,.06-8h0C415.39,26.16,415.95,26.09,416.62,26.09Z"/><path class="cls-35" d="M476,26.08h-8.58c-5.25,0-10.5,0-15.75,0-.75,0-1.4,0-1.69.87.7,0,1.4,0,2.09,0l25.16,0,.11,0C477.33,26,476.65,26.08,476,26.08Z"/><path class="cls-44" d="M471,24.9a15.05,15.05,0,0,1-1.9,0,1.32,1.32,0,0,0-1.66,1.17H476c.66,0,1.34-.07,1.34.89h.82V24.89Z"/><path class="cls-45" d="M478.15,24.89V24c-1.89,0-3.79,0-5.68,0-.65,0-1.32.07-1.5.9Z"/><path class="cls-38" d="M414,88.78c-2.62-1.52-5.48-.74-8.24-.85-3-.11-6,0-9,0-.88,0-1.8-.19-2.31.89-.22.46-.81.28-1.24.28H352.32c0,9.39-.06,18.79-.06,28.18,0,8.89,0,17.79.07,26.68h0l61.75,0q0-27.23,0-54.46C414.07,89.27,414,89,414,88.78Z"/><path class="cls-39" d="M352.32,89.08q0-3.42-.1-6.84h0a1.6,1.6,0,0,0-.43.12V144h.59c0-8.89-.07-17.79-.07-26.68C352.26,107.87,352.3,98.47,352.32,89.08Z"/><path class="cls-40" d="M414.11,86.41,414,88.78h0c0,.25,0,.5,0,.75q0,27.23,0,54.46l.86,0h0V86.26A1.31,1.31,0,0,1,414.11,86.41Z"/><path class="cls-5" d="M414,27h0l-25.16,0c-.7,0-1.4,0-2.09,0l-32.23,0c-.75,0-1.5,0-2.25.06h0q0,4-.06,8h0q0,20.5,0,41c0,2,0,4.09,0,6.13h0v0q0,3.42.1,6.84h40.91c.43,0,1,.18,1.24-.28.52-1.08,1.43-.89,2.31-.89,3,0,6-.09,9,0,2.76.1,5.62-.67,8.24.85h0l.09-2.36q0-8.92,0-17.85Q414,47.79,414,27Z"/><path class="cls-41" d="M352.22,82.22c0-2,.05-4.09,0-6.13q0-20.5,0-41h0a2.32,2.32,0,0,1-.48-.39V82.34a1.6,1.6,0,0,1,.43-.12h0Z"/><path class="cls-42" d="M414.95,27h-.82L414,27h0q0,20.77.05,41.55,0,8.92,0,17.85a1.31,1.31,0,0,0,.83-.16V27Z"/><path class="cls-43" d="M353.42,26.09c2.29,0,4.59,0,6.88,0a4.35,4.35,0,0,0,2.36-.59c-.44-.61-1-.56-1.54-.62-3.1-.38-6.25.63-9.37-.64V34.7a2.32,2.32,0,0,0,.48.39h0q0-4,.06-8h0C352.19,26.16,352.74,26.09,353.42,26.09Z"/><path class="cls-35" d="M412.79,26.08h-8.58c-5.25,0-10.5,0-15.75,0-.75,0-1.4,0-1.69.87.7,0,1.4,0,2.09,0L414,27l.11,0C414.13,26,413.45,26.08,412.79,26.08Z"/><path class="cls-44" d="M407.77,24.9a15.05,15.05,0,0,1-1.9,0,1.32,1.32,0,0,0-1.66,1.17h8.58c.66,0,1.34-.07,1.34.89h.82V24.89Z"/><path class="cls-45" d="M414.95,24.89V24c-1.89,0-3.79,0-5.68,0-.65,0-1.32.07-1.5.9Z"/><path class="cls-38" d="M350.82,88.78c-2.62-1.52-5.48-.74-8.24-.85-3-.11-6,0-9,0-.88,0-1.8-.19-2.31.89-.22.46-.81.28-1.24.28H289.12c0,9.39-.06,18.79-.06,28.18,0,8.89,0,17.79.07,26.68h0l61.75,0q0-27.23,0-54.46C350.87,89.27,350.84,89,350.82,88.78Z"/><path class="cls-39" d="M289.12,89.08q0-3.42-.1-6.84h0a1.6,1.6,0,0,0-.43.12V144h.59c0-8.89-.07-17.79-.07-26.68C289.06,107.87,289.1,98.47,289.12,89.08Z"/><path class="cls-40" d="M350.91,86.41l-.09,2.36h0c0,.25,0,.5,0,.75q0,27.23,0,54.46l.86,0h0V86.26A1.31,1.31,0,0,1,350.91,86.41Z"/><path class="cls-5" d="M350.81,27h0l-25.16,0c-.7,0-1.4,0-2.09,0l-32.23,0c-.75,0-1.5,0-2.25.06h0q0,4-.06,8h0q0,20.5,0,41c0,2,0,4.09,0,6.13h0v0q0,3.42.1,6.84H330c.43,0,1,.18,1.24-.28.52-1.08,1.43-.89,2.31-.89,3,0,6-.09,9,0,2.76.1,5.62-.67,8.24.85h0l.09-2.36q0-8.92,0-17.85Q350.83,47.79,350.81,27Z"/><path class="cls-41" d="M289,82.22c0-2,.05-4.09,0-6.13q0-20.5,0-41h0a2.32,2.32,0,0,1-.48-.38V82.34a1.6,1.6,0,0,1,.43-.12h0Z"/><path class="cls-42" d="M351.75,27h-.82l-.11,0h0q0,20.77.05,41.55,0,8.92,0,17.85a1.31,1.31,0,0,0,.83-.16V27Z"/><path class="cls-43" d="M290.22,26.09c2.29,0,4.59,0,6.88,0a4.35,4.35,0,0,0,2.36-.59c-.44-.61-1-.56-1.54-.62-3.1-.38-6.25.63-9.37-.64V34.7a2.32,2.32,0,0,0,.48.38h0q0-4,.06-8h0C289,26.16,289.54,26.09,290.22,26.09Z"/><path class="cls-35" d="M349.59,26.08H341c-5.25,0-10.5,0-15.75,0-.75,0-1.4,0-1.69.87.7,0,1.4,0,2.09,0l25.16,0,.11,0C350.93,26,350.25,26.08,349.59,26.08Z"/><path class="cls-44" d="M344.57,24.9a15.05,15.05,0,0,1-1.9,0A1.32,1.32,0,0,0,341,26.07h8.58c.66,0,1.34-.07,1.34.89h.82V24.89Z"/><path class="cls-45" d="M351.75,24.89V24c-1.89,0-3.79,0-5.68,0-.65,0-1.32.07-1.5.9Z"/><path class="cls-38" d="M287.62,88.78c-2.62-1.52-5.48-.74-8.24-.85-3-.11-6,0-9,0-.88,0-1.8-.19-2.31.89-.22.46-.81.28-1.24.28H225.92c0,9.39-.06,18.79-.06,28.18,0,8.89,0,17.79.07,26.68h0l61.75,0q0-27.23,0-54.46C287.67,89.27,287.64,89,287.62,88.78Z"/><path class="cls-39" d="M225.92,89.08q0-3.42-.1-6.84h0a1.6,1.6,0,0,0-.43.12V144h.59c0-8.89-.07-17.79-.07-26.68C225.86,107.87,225.9,98.47,225.92,89.08Z"/><path class="cls-40" d="M287.71,86.41l-.09,2.36h0c0,.25,0,.5,0,.75q0,27.23,0,54.46l.86,0h0V86.26A1.31,1.31,0,0,1,287.71,86.41Z"/><path class="cls-5" d="M287.61,27h0l-25.16,0c-.7,0-1.4,0-2.09,0l-32.23,0c-.75,0-1.5,0-2.25.06h0q0,4-.06,8h0q0,20.5,0,41c0,2,0,4.09,0,6.13h0v0q0,3.42.1,6.84h40.91c.43,0,1,.18,1.24-.28.52-1.08,1.43-.89,2.31-.89,3,0,6-.09,9,0,2.76.1,5.62-.67,8.24.85h0l.09-2.36q0-8.92,0-17.85Q287.63,47.79,287.61,27Z"/><path class="cls-41" d="M225.82,82.22c0-2,.05-4.09,0-6.13q0-20.5,0-41h0a2.32,2.32,0,0,1-.48-.39V82.34a1.6,1.6,0,0,1,.43-.12h0Z"/><path class="cls-42" d="M288.55,27h-.82l-.11,0h0q0,20.77.05,41.55,0,8.92,0,17.85a1.31,1.31,0,0,0,.83-.16V27Z"/><path class="cls-43" d="M227,26.09c2.29,0,4.59,0,6.88,0a4.35,4.35,0,0,0,2.36-.59c-.44-.61-1-.56-1.54-.62-3.1-.38-6.25.63-9.37-.64V34.7a2.32,2.32,0,0,0,.48.39h0q0-4,.06-8h0C225.79,26.16,226.34,26.09,227,26.09Z"/><path class="cls-35" d="M286.39,26.08h-8.58c-5.25,0-10.5,0-15.75,0-.75,0-1.4,0-1.69.87.7,0,1.4,0,2.09,0l25.16,0,.11,0C287.73,26,287,26.08,286.39,26.08Z"/><path class="cls-44" d="M281.37,24.9a15.05,15.05,0,0,1-1.9,0,1.32,1.32,0,0,0-1.66,1.17h8.58c.66,0,1.34-.07,1.34.89h.82V24.89Z"/><path class="cls-45" d="M288.55,24.89V24c-1.89,0-3.79,0-5.68,0-.65,0-1.32.07-1.5.9Z"/><path class="cls-38" d="M224.42,88.78c-2.62-1.52-5.48-.74-8.24-.85-3-.11-6,0-9,0-.88,0-1.8-.19-2.31.89-.22.46-.81.28-1.24.28H162.72c0,9.39-.06,18.79-.06,28.18,0,8.89,0,17.79.07,26.68h0l61.75,0q0-27.23,0-54.46C224.47,89.27,224.44,89,224.42,88.78Z"/><path class="cls-39" d="M162.72,89.08q0-3.42-.1-6.84h0a1.14,1.14,0,0,0-1,.57V144h0l1.11,0h0c0-8.89-.07-17.79-.07-26.68C162.66,107.87,162.7,98.47,162.72,89.08Z"/><path class="cls-40" d="M224.51,86.41l-.09,2.36h0c0,.25,0,.5,0,.75q0,27.23,0,54.46l.86,0h0V86.26A1.31,1.31,0,0,1,224.51,86.41Z"/><path class="cls-5" d="M224.41,27h0l-25.16,0c-.7,0-1.4,0-2.09,0l-32.23,0c-.75,0-1.5,0-2.25.06h0q0,4-.06,8h0q0,20.5,0,41c0,2,0,4.09,0,6.13h0v0q0,3.42.1,6.84h40.91c.43,0,1,.18,1.24-.28.52-1.08,1.43-.89,2.31-.89,3,0,6-.09,9,0,2.76.1,5.62-.67,8.24.85h0l.09-2.36q0-8.92,0-17.85Q224.43,47.79,224.41,27Z"/><path class="cls-41" d="M162.62,82.22c0-2,.05-4.09,0-6.13q0-20.5,0-41h0a2.14,2.14,0,0,1-1-1.27v49a1.14,1.14,0,0,1,1-.57h0Z"/><path class="cls-42" d="M225.35,27h-.82l-.11,0h0q0,20.77.05,41.55,0,8.92,0,17.85a1.31,1.31,0,0,0,.83-.16V27Z"/><path class="cls-43" d="M163.82,26.09c2.29,0,4.59,0,6.88,0a4.35,4.35,0,0,0,2.36-.59c-.44-.61-1-.56-1.54-.62-3.21-.39-6.48.71-9.71-.78l-.18-.07v9.77a2.14,2.14,0,0,0,1,1.27h0q0-4,.06-8h0C162.59,26.16,163.14,26.09,163.82,26.09Z"/><path class="cls-35" d="M223.19,26.08h-8.58c-5.25,0-10.5,0-15.75,0-.75,0-1.4,0-1.69.87.7,0,1.4,0,2.09,0l25.16,0,.11,0C224.52,26,223.85,26.08,223.19,26.08Z"/><path class="cls-44" d="M218.17,24.9a15.05,15.05,0,0,1-1.9,0,1.32,1.32,0,0,0-1.66,1.17h8.58c.66,0,1.34-.07,1.34.89h.82V24.89Z"/><path class="cls-45" d="M225.35,24.89V24c-1.89,0-3.79,0-5.68,0-.65,0-1.32.07-1.5.9Z"/></g></g></svg>