<svg xmlns="http://www.w3.org/2000/svg" viewBox="0 0 472 472"><defs><style>.cls-1{fill:#40210f;}.cls-2,.cls-3,.cls-4,.cls-5,.cls-6{fill:none;}.cls-2,.cls-3,.cls-4,.cls-6,.cls-8{stroke:#f2a75f;}.cls-2,.cls-3,.cls-4,.cls-5,.cls-6,.cls-8{stroke-miterlimit:10;}.cls-2{stroke-width:2px;}.cls-3{stroke-width:9px;}.cls-4{stroke-width:4px;}.cls-5{stroke:#dcbb6b;}.cls-6{stroke-width:6px;}.cls-7,.cls-8{fill:#f2a75f;}.cls-8{stroke-width:1.2px;}</style></defs><title>Gear_index</title><g id="레이어_2" data-name="레이어 2"><g id="레이어_1-2" data-name="레이어 1"><path class="cls-1" d="M236,0C105.66,0,0,105.66,0,236S105.66,472,236,472,472,366.34,472,236,366.34,0,236,0Zm0,399.48A164.92,164.92,0,1,1,400.92,234.56,164.92,164.92,0,0,1,236,399.48Z"/><line class="cls-2" x1="235.5" y1="21.36" x2="235.5" y2="9.75"/><line class="cls-2" x1="235.5" y1="9.75" x2="235.5" y2="21.36"/><line class="cls-2" x1="235.5" y1="9.75" x2="235.5" y2="21.36"/><line class="cls-2" x1="235.5" y1="9.75" x2="235.5" y2="21.36"/><line class="cls-2" x1="235.5" y1="9.75" x2="235.5" y2="21.36"/><line class="cls-2" x1="235.5" y1="9.75" x2="235.5" y2="21.36"/><line class="cls-2" x1="235.5" y1="9.75" x2="235.5" y2="21.36"/><line class="cls-2" x1="235.5" y1="9.75" x2="235.5" y2="21.36"/><line class="cls-2" x1="235.5" y1="9.75" x2="235.5" y2="21.36"/><line class="cls-2" x1="235.5" y1="9.75" x2="235.5" y2="21.36"/><line class="cls-2" x1="235.5" y1="9.75" x2="235.5" y2="21.36"/><line class="cls-2" x1="235.5" y1="9.75" x2="235.5" y2="21.36"/><line class="cls-2" x1="235.5" y1="9.75" x2="235.5" y2="21.36"/><line class="cls-2" x1="235.5" y1="9.75" x2="235.5" y2="21.36"/><line class="cls-2" x1="235.5" y1="9.75" x2="235.5" y2="21.36"/><line class="cls-2" x1="235.5" y1="9.75" x2="235.5" y2="21.36"/><line class="cls-2" x1="235.5" y1="9.75" x2="235.5" y2="21.36"/><line class="cls-2" x1="235.5" y1="9.75" x2="235.5" y2="21.36"/><line class="cls-2" x1="235.5" y1="9.75" x2="235.5" y2="21.36"/><line class="cls-2" x1="235.5" y1="9.75" x2="235.5" y2="21.36"/><line class="cls-2" x1="235.5" y1="9.75" x2="235.5" y2="21.36"/><line class="cls-2" x1="235.5" y1="9.75" x2="235.5" y2="21.36"/><line class="cls-2" x1="235.5" y1="9.75" x2="235.5" y2="21.36"/><line class="cls-2" x1="235.5" y1="9.75" x2="235.5" y2="21.36"/><line class="cls-2" x1="235.5" y1="9.75" x2="235.5" y2="21.36"/><line class="cls-2" x1="235.5" y1="9.75" x2="235.5" y2="21.36"/><line class="cls-2" x1="235.5" y1="9.75" x2="235.5" y2="21.36"/><line class="cls-2" x1="235.5" y1="9.75" x2="235.5" y2="21.36"/><line class="cls-2" x1="235.5" y1="9.75" x2="235.5" y2="21.36"/><line class="cls-2" x1="235.5" y1="9.75" x2="235.5" y2="21.36"/><line class="cls-2" x1="235.5" y1="9.75" x2="235.5" y2="21.36"/><line class="cls-2" x1="235.5" y1="9.75" x2="235.5" y2="21.36"/><line class="cls-2" x1="235.5" y1="9.75" x2="235.5" y2="21.36"/><line class="cls-2" x1="235.5" y1="9.75" x2="235.5" y2="21.36"/><line class="cls-2" x1="235.5" y1="9.75" x2="235.5" y2="21.36"/><line class="cls-2" x1="235.5" y1="9.75" x2="235.5" y2="21.36"/><line class="cls-2" x1="235.5" y1="9.75" x2="235.5" y2="21.36"/><line class="cls-2" x1="235.5" y1="9.75" x2="235.5" y2="21.36"/><line class="cls-2" x1="235.5" y1="9.75" x2="235.5" y2="21.36"/><line class="cls-2" x1="235.5" y1="9.75" x2="235.5" y2="21.36"/><line class="cls-2" x1="235.5" y1="9.75" x2="235.5" y2="21.36"/><line class="cls-2" x1="235.5" y1="9.75" x2="235.5" y2="21.36"/><line class="cls-2" x1="235.5" y1="9.75" x2="235.5" y2="21.36"/><line class="cls-2" x1="235.5" y1="9.75" x2="235.5" y2="21.36"/><line class="cls-2" x1="235.5" y1="9.75" x2="235.5" y2="21.36"/><line class="cls-2" x1="235.5" y1="9.75" x2="235.5" y2="21.36"/><line class="cls-2" x1="235.5" y1="9.75" x2="235.5" y2="21.36"/><line class="cls-2" x1="235.5" y1="9.75" x2="235.5" y2="21.36"/><line class="cls-2" x1="235.5" y1="9.75" x2="235.5" y2="21.36"/><line class="cls-2" x1="235.5" y1="9.75" x2="235.5" y2="21.36"/><line class="cls-2" x1="235.5" y1="9.75" x2="235.5" y2="21.36"/><line class="cls-2" x1="235.5" y1="9.75" x2="235.5" y2="21.36"/><line class="cls-2" x1="235.5" y1="9.75" x2="235.5" y2="21.36"/><line class="cls-2" x1="235.5" y1="9.75" x2="235.5" y2="21.36"/><line class="cls-2" x1="235.5" y1="9.75" x2="235.5" y2="21.36"/><line class="cls-2" x1="235.5" y1="9.75" x2="235.5" y2="21.36"/><line class="cls-2" x1="235.5" y1="9.75" x2="235.5" y2="21.36"/><line class="cls-2" x1="235.5" y1="9.75" x2="235.5" y2="21.36"/><line class="cls-2" x1="235.5" y1="9.75" x2="235.5" y2="21.36"/><line class="cls-2" x1="235.5" y1="9.75" x2="235.5" y2="21.36"/><line class="cls-2" x1="235.5" y1="21.36" x2="235.5" y2="9.75"/><line class="cls-2" x1="258.72" y1="22.61" x2="259.97" y2="11.07"/><line class="cls-2" x1="281.21" y1="26.27" x2="283.68" y2="14.93"/><line class="cls-2" x1="302.84" y1="32.21" x2="306.5" y2="21.2"/><line class="cls-2" x1="323.48" y1="40.31" x2="328.28" y2="29.75"/><line class="cls-2" x1="343.02" y1="50.44" x2="348.88" y2="40.42"/><line class="cls-2" x1="361.31" y1="62.45" x2="368.17" y2="53.09"/><line class="cls-2" x1="378.23" y1="76.24" x2="386.01" y2="67.62"/><line class="cls-2" x1="393.65" y1="91.66" x2="402.26" y2="83.88"/><line class="cls-2" x1="407.43" y1="108.58" x2="416.79" y2="101.72"/><line class="cls-2" x1="419.45" y1="126.87" x2="429.46" y2="121"/><line class="cls-2" x1="429.57" y1="146.4" x2="440.14" y2="141.61"/><line class="cls-2" x1="437.67" y1="167.05" x2="448.68" y2="163.38"/><line class="cls-2" x1="443.62" y1="188.68" x2="454.95" y2="186.2"/><line class="cls-2" x1="447.28" y1="211.17" x2="458.82" y2="209.92"/><line class="cls-2" x1="448.53" y1="234.39" x2="460.14" y2="234.39"/><line class="cls-2" x1="447.28" y1="257.61" x2="458.82" y2="258.86"/><line class="cls-2" x1="443.62" y1="280.09" x2="454.95" y2="282.57"/><line class="cls-2" x1="437.67" y1="301.72" x2="448.68" y2="305.39"/><line class="cls-2" x1="429.57" y1="322.37" x2="440.14" y2="327.17"/><line class="cls-2" x1="419.45" y1="341.9" x2="429.46" y2="347.77"/><line class="cls-2" x1="407.43" y1="360.2" x2="416.79" y2="367.06"/><line class="cls-2" x1="393.65" y1="377.12" x2="402.26" y2="384.89"/><line class="cls-2" x1="378.23" y1="392.53" x2="386.01" y2="401.15"/><line class="cls-2" x1="361.31" y1="406.32" x2="368.17" y2="415.68"/><line class="cls-2" x1="343.02" y1="418.34" x2="348.88" y2="428.35"/><line class="cls-2" x1="323.48" y1="428.46" x2="328.28" y2="439.03"/><line class="cls-2" x1="302.84" y1="436.56" x2="306.5" y2="447.57"/><line class="cls-2" x1="281.21" y1="442.5" x2="283.68" y2="453.84"/><line class="cls-2" x1="258.72" y1="446.17" x2="259.97" y2="457.7"/><line class="cls-2" x1="235.5" y1="447.42" x2="235.5" y2="459.02"/><line class="cls-2" x1="212.28" y1="446.17" x2="211.03" y2="457.7"/><line class="cls-2" x1="189.79" y1="442.5" x2="187.32" y2="453.84"/><line class="cls-2" x1="168.16" y1="436.56" x2="164.5" y2="447.57"/><line class="cls-2" x1="147.52" y1="428.46" x2="142.72" y2="439.03"/><line class="cls-2" x1="127.98" y1="418.34" x2="122.12" y2="428.35"/><line class="cls-2" x1="109.69" y1="406.32" x2="102.83" y2="415.68"/><line class="cls-2" x1="92.77" y1="392.53" x2="84.99" y2="401.15"/><line class="cls-2" x1="77.35" y1="377.12" x2="68.74" y2="384.89"/><line class="cls-2" x1="63.57" y1="360.2" x2="54.21" y2="367.06"/><line class="cls-2" x1="51.55" y1="341.9" x2="41.54" y2="347.77"/><line class="cls-2" x1="41.43" y1="322.37" x2="30.86" y2="327.17"/><line class="cls-2" x1="33.33" y1="301.72" x2="22.32" y2="305.39"/><line class="cls-2" x1="27.38" y1="280.09" x2="16.05" y2="282.57"/><line class="cls-2" x1="23.72" y1="257.61" x2="12.18" y2="258.86"/><line class="cls-2" x1="22.47" y1="234.39" x2="10.86" y2="234.39"/><line class="cls-2" x1="23.72" y1="211.17" x2="12.18" y2="209.92"/><line class="cls-2" x1="27.38" y1="188.68" x2="16.05" y2="186.2"/><line class="cls-2" x1="33.33" y1="167.05" x2="22.32" y2="163.38"/><line class="cls-2" x1="41.43" y1="146.4" x2="30.86" y2="141.61"/><line class="cls-2" x1="51.55" y1="126.87" x2="41.54" y2="121"/><line class="cls-2" x1="63.57" y1="108.58" x2="54.21" y2="101.72"/><line class="cls-2" x1="77.35" y1="91.66" x2="68.74" y2="83.88"/><line class="cls-2" x1="92.77" y1="76.24" x2="84.99" y2="67.62"/><line class="cls-2" x1="109.69" y1="62.45" x2="102.83" y2="53.09"/><line class="cls-2" x1="127.98" y1="50.44" x2="122.12" y2="40.42"/><line class="cls-2" x1="147.52" y1="40.31" x2="142.72" y2="29.75"/><line class="cls-2" x1="168.16" y1="32.21" x2="164.5" y2="21.2"/><line class="cls-2" x1="189.79" y1="26.27" x2="187.32" y2="14.93"/><line class="cls-2" x1="212.28" y1="22.61" x2="211.03" y2="11.07"/><line class="cls-2" x1="235.5" y1="21.36" x2="235.5" y2="9.75"/><line class="cls-3" x1="235.5" y1="9.75" x2="235.5" y2="21.36"/><line class="cls-3" x1="235.5" y1="21.36" x2="235.5" y2="9.75"/><line class="cls-3" x1="235.5" y1="21.36" x2="235.5" y2="9.75"/><line class="cls-3" x1="235.5" y1="21.36" x2="235.5" y2="9.75"/><line class="cls-3" x1="235.5" y1="21.36" x2="235.5" y2="9.75"/><line class="cls-3" x1="235.5" y1="21.36" x2="235.5" y2="9.75"/><line class="cls-3" x1="235.5" y1="21.36" x2="235.5" y2="9.75"/><line class="cls-3" x1="235.5" y1="21.36" x2="235.5" y2="9.75"/><line class="cls-3" x1="235.5" y1="21.36" x2="235.5" y2="9.75"/><line class="cls-3" x1="235.5" y1="21.36" x2="235.5" y2="9.75"/><line class="cls-3" x1="235.5" y1="21.36" x2="235.5" y2="9.75"/><line class="cls-3" x1="235.5" y1="21.36" x2="235.5" y2="9.75"/><line class="cls-3" x1="235.5" y1="9.75" x2="235.5" y2="21.36"/><line class="cls-3" x1="348.88" y1="40.42" x2="343.02" y2="50.44"/><line class="cls-3" x1="429.46" y1="121" x2="419.45" y2="126.87"/><line class="cls-3" x1="460.14" y1="234.39" x2="448.53" y2="234.39"/><line class="cls-3" x1="429.46" y1="347.77" x2="419.45" y2="341.9"/><line class="cls-3" x1="348.88" y1="428.35" x2="343.02" y2="418.34"/><line class="cls-3" x1="229.7" y1="453.22" x2="241.3" y2="453.22"/><line class="cls-3" x1="122.12" y1="428.35" x2="127.98" y2="418.34"/><line class="cls-3" x1="41.54" y1="347.77" x2="51.55" y2="341.9"/><line class="cls-3" x1="10.86" y1="234.39" x2="22.47" y2="234.39"/><line class="cls-3" x1="41.54" y1="121" x2="51.55" y2="126.87"/><line class="cls-3" x1="122.12" y1="40.42" x2="127.98" y2="50.44"/><line class="cls-3" x1="235.5" y1="9.75" x2="235.5" y2="21.36"/><circle class="cls-4" cx="235.5" cy="234.31" r="224.56"/><circle class="cls-5" cx="235.66" cy="234.58" r="231.33"/><circle class="cls-4" cx="235.5" cy="234.31" r="212.96"/><circle class="cls-6" cx="235.5" cy="234.31" r="164.92"/><path class="cls-7" d="M325.37,88l17.81-30.84a1.24,1.24,0,0,1,1.69-.45l.31.18a.76.76,0,0,0,1-.28h0l-9.36-5.4h0a.76.76,0,0,0,.28,1l.31.18a1.24,1.24,0,0,1,.45,1.69L320.09,84.95a1.24,1.24,0,0,1-1.69.45l-.31-.18a.76.76,0,0,0-1,.28h0l9.36,5.4h0a.76.76,0,0,0-.28-1l-.31-.18A1.24,1.24,0,0,1,325.37,88Z"/><path class="cls-7" d="M383.34,146.86l30.84-17.81a1.24,1.24,0,0,1,1.69.45l.18.31a.76.76,0,0,0,1,.28h0l-5.4-9.36h0a.76.76,0,0,0-.28,1l.18.31a1.24,1.24,0,0,1-.45,1.69l-30.84,17.81a1.24,1.24,0,0,1-1.69-.45l-.18-.31a.76.76,0,0,0-1-.28h0l5.4,9.36h0a.76.76,0,0,0,.28-1l-.18-.31A1.24,1.24,0,0,1,383.34,146.86Z"/><path class="cls-7" d="M387.95,154.84,418.79,137a1.24,1.24,0,0,1,1.69.45l.18.31a.76.76,0,0,0,1,.28h0l-5.4-9.36h0a.76.76,0,0,0-.28,1l.18.31a1.24,1.24,0,0,1-.45,1.69L384.9,149.56a1.24,1.24,0,0,1-1.69-.45l-.18-.31a.76.76,0,0,0-1-.28h0l5.4,9.36h0a.76.76,0,0,0,.28-1l-.18-.31A1.24,1.24,0,0,1,387.95,154.84Z"/><path class="cls-7" d="M406.91,229.58h35.61a1.24,1.24,0,0,1,1.24,1.24v.36a.76.76,0,0,0,.76.76h0V221.13h0a.76.76,0,0,0-.76.76v.36a1.24,1.24,0,0,1-1.24,1.24H406.91a1.24,1.24,0,0,1-1.24-1.24v-.36a.76.76,0,0,0-.76-.76h0v10.81h0a.76.76,0,0,0,.76-.76v-.36A1.24,1.24,0,0,1,406.91,229.58Z"/><path class="cls-7" d="M406.91,238.8h35.61a1.24,1.24,0,0,1,1.24,1.24v.36a.76.76,0,0,0,.76.76h0V230.35h0a.76.76,0,0,0-.76.76v.36a1.24,1.24,0,0,1-1.24,1.24H406.91a1.24,1.24,0,0,1-1.24-1.24v-.36a.76.76,0,0,0-.76-.76h0v10.81h0a.76.76,0,0,0,.76-.76V240A1.24,1.24,0,0,1,406.91,238.8Z"/><path class="cls-7" d="M406.91,248h35.61a1.24,1.24,0,0,1,1.24,1.24v.36a.76.76,0,0,0,.76.76h0V239.56h0a.76.76,0,0,0-.76.76v.36a1.24,1.24,0,0,1-1.24,1.24H406.91a1.24,1.24,0,0,1-1.24-1.24v-.36a.76.76,0,0,0-.76-.76h0v10.81h0a.76.76,0,0,0,.76-.76v-.36A1.24,1.24,0,0,1,406.91,248Z"/><path class="cls-7" d="M386.53,315.7l30.84,17.81a1.24,1.24,0,0,1,.45,1.69l-.18.31a.76.76,0,0,0,.28,1h0l5.4-9.36h0a.76.76,0,0,0-1,.28l-.18.31a1.24,1.24,0,0,1-1.69.45l-30.84-17.81a1.24,1.24,0,0,1-.45-1.69l.18-.31a.76.76,0,0,0-.28-1h0l-5.4,9.36h0a.76.76,0,0,0,1-.28l.18-.31A1.24,1.24,0,0,1,386.53,315.7Z"/><path class="cls-7" d="M411.62,347.47a.76.76,0,0,0-1,.28l-.18.31a1,1,0,0,1-1.55.31L393,334.24l19.54,7.6a1.24,1.24,0,0,1,.45,1.69l-.18.31a.76.76,0,0,0,.28,1l5.4-9.36a.76.76,0,0,0-1,.28l-.18.31a1.24,1.24,0,0,1-1.69.45l-36.14-12.39a.15.15,0,0,0-.14.25l9.44,8.16h0L408,349.7a1.34,1.34,0,0,1,.45,1.7l-.11.2a.76.76,0,0,0,.28,1Z"/><path class="cls-7" d="M223.21,405.83v35.61a1.24,1.24,0,0,1-1.24,1.24h-.36a.76.76,0,0,0-.76.76h10.81a.76.76,0,0,0-.76-.76h-.36a1.24,1.24,0,0,1-1.24-1.24V405.83a1.24,1.24,0,0,1,1.24-1.24h.36a.76.76,0,0,0,.76-.76H220.85a.76.76,0,0,0,.76.76H222A1.24,1.24,0,0,1,223.21,405.83Z"/><path class="cls-7" d="M236.37,443.44a.76.76,0,0,0-.76-.76h-.36a1,1,0,0,1-1-1.19l4.31-20.77,3.18,20.72a1.24,1.24,0,0,1-1.24,1.24h-.36a.76.76,0,0,0-.76.76h10.81a.76.76,0,0,0-.76-.76H249a1.24,1.24,0,0,1-1.24-1.24L240.46,404a.15.15,0,0,0-.29,0l-2.35,12.26v0l-5.19,25.22a1.34,1.34,0,0,1-1.24,1.24h-.23a.76.76,0,0,0-.76.76Z"/><path class="cls-7" d="M142.48,378.39l-17.81,30.84a1.24,1.24,0,0,1-1.69.45l-.31-.18a.76.76,0,0,0-1,.28h0l9.36,5.4h0a.76.76,0,0,0-.28-1l-.31-.18a1.24,1.24,0,0,1-.45-1.69l17.81-30.84a1.24,1.24,0,0,1,1.69-.45l.31.18a.76.76,0,0,0,1-.28h0l-9.36-5.4h0a.76.76,0,0,0,.28,1l.31.18A1.24,1.24,0,0,1,142.48,378.39Z"/><path class="cls-7" d="M134.16,373.58l-17.81,30.84a1.24,1.24,0,0,1-1.69.45l-.31-.18a.76.76,0,0,0-1,.28h0l9.36,5.4h0a.76.76,0,0,0-.28-1l-.31-.18a1.24,1.24,0,0,1-.45-1.69l17.81-30.84a1.24,1.24,0,0,1,1.69-.45l.31.18a.76.76,0,0,0,1-.28h0l-9.36-5.4h0a.76.76,0,0,0,.28,1l.31.18A1.24,1.24,0,0,1,134.16,373.58Z"/><path class="cls-7" d="M135.07,417.54a.76.76,0,0,0-.28-1l-.31-.18a1,1,0,0,1-.31-1.55l14.12-15.83-7.6,19.54a1.24,1.24,0,0,1-1.69.45l-.31-.18a.76.76,0,0,0-1,.28l9.36,5.4a.76.76,0,0,0-.28-1l-.31-.18a1.24,1.24,0,0,1-.45-1.69l12.39-36.14a.15.15,0,0,0-.25-.14l-8.16,9.44v0l-17.1,19.24a1.34,1.34,0,0,1-1.7.45l-.2-.11a.76.76,0,0,0-1,.28Z"/><path class="cls-7" d="M64.07,221.37,28.45,232.73a1.24,1.24,0,0,1-1.24-1.24v-.36a.76.76,0,0,0-.76-.76h0v10.81h0a.76.76,0,0,0,.76-.76v-.36c0-.68.51-1,1.24-1.24l35.61-11.36a1.24,1.24,0,0,1,1.24,1.24v.36a.76.76,0,0,0,.76.76h0V219h0a.76.76,0,0,0-.76.76v.36C65.31,220.81,64.8,221.12,64.07,221.37Z"/><path class="cls-7" d="M64.07,236.7,28.45,225.35a1.24,1.24,0,0,0-1.24,1.24v.36a.76.76,0,0,1-.76.76h0v-6.58h0a.76.76,0,0,1,.76.76v.36c0,.68.57,1,1.24,1.24l35.61,11.36a1.24,1.24,0,0,0,1.24-1.24v-.36a.76.76,0,0,1,.76-.76h0v6.58h0a.76.76,0,0,1-.76-.76v-.36C65.31,237.26,64.74,236.91,64.07,236.7Z"/><path class="cls-7" d="M64.07,241.31H28.45a1.24,1.24,0,0,1-1.24-1.24v-.36a.76.76,0,0,0-.76-.76h0v10.81h0a.76.76,0,0,0,.76-.76v-.36a1.24,1.24,0,0,1,1.24-1.24H64.07a1.24,1.24,0,0,1,1.24,1.24V249a.76.76,0,0,0,.76.76h0V239h0a.76.76,0,0,0-.76.76v.36A1.24,1.24,0,0,1,64.07,241.31Z"/><path class="cls-7" d="M151.49,84.77,123.85,59.61a1.24,1.24,0,0,1,.45-1.69l.31-.18a.76.76,0,0,0,.28-1h0l-9.36,5.4h0a.76.76,0,0,0,1,.28l.31-.18c.59-.34,1.12-.06,1.69.45l27.64,25.16a1.24,1.24,0,0,1-.45,1.69l-.31.18a.76.76,0,0,0-.28,1h0l9.36-5.4h0a.76.76,0,0,0-1-.28l-.31.18C152.59,85.57,152.07,85.29,151.49,84.77Z"/><path class="cls-7" d="M138.21,92.44l-8-36.52a1.24,1.24,0,0,0-1.69-.45l-.31.18a.76.76,0,0,1-1-.28h0l5.7-3.29h0a.76.76,0,0,1-.28,1l-.31.18c-.59.34-.62,1-.45,1.69l8,36.52a1.24,1.24,0,0,0,1.69.45l.31-.18a.76.76,0,0,1,1,.28h0l-5.7,3.29h0a.76.76,0,0,1,.28-1l.31-.18C138.35,93.79,138.37,93.13,138.21,92.44Z"/><path class="cls-7" d="M159,80.43,141.21,49.58a1.24,1.24,0,0,1,.45-1.69l.31-.18a.76.76,0,0,0,.28-1h0l-9.36,5.4h0a.76.76,0,0,0,1,.28l.31-.18a1.24,1.24,0,0,1,1.69.45l17.81,30.84a1.24,1.24,0,0,1-.45,1.69l-.31.18a.76.76,0,0,0-.28,1h0l9.36-5.4h0a.76.76,0,0,0-1-.28l-.31.18A1.24,1.24,0,0,1,159,80.43Z"/><path class="cls-7" d="M235.35,63.09,224,27.48a1.24,1.24,0,0,1,1.24-1.24h.36a.76.76,0,0,0,.76-.76H215.54a.76.76,0,0,0,.76.76h.36c.68,0,1,.51,1.24,1.24l11.36,35.61A1.24,1.24,0,0,1,228,64.33h-.36a.76.76,0,0,0-.76.76h10.81a.76.76,0,0,0-.76-.76h-.36C235.91,64.33,235.59,63.82,235.35,63.09Z"/><path class="cls-7" d="M220,63.09l11.36-35.61a1.24,1.24,0,0,0-1.24-1.24h-.36a.76.76,0,0,1-.76-.76h6.58a.76.76,0,0,1-.76.76h-.36c-.68,0-1,.57-1.24,1.24L221.89,63.09a1.24,1.24,0,0,0,1.24,1.24h.36a.76.76,0,0,1,.76.76h-6.58a.76.76,0,0,1,.76-.76h.36C219.46,64.33,219.81,63.77,220,63.09Z"/><path class="cls-7" d="M244,63.09V27.48a1.24,1.24,0,0,1,1.24-1.24h.36a.76.76,0,0,0,.76-.76H235.59a.76.76,0,0,0,.76.76h.36a1.24,1.24,0,0,1,1.24,1.24V63.09a1.24,1.24,0,0,1-1.24,1.24h-.36a.76.76,0,0,0-.76.76H246.4a.76.76,0,0,0-.76-.76h-.36A1.24,1.24,0,0,1,244,63.09Z"/><path class="cls-7" d="M253.1,63.09V27.48a1.24,1.24,0,0,1,1.24-1.24h.36a.76.76,0,0,0,.76-.76H244.65a.76.76,0,0,0,.76.76h.36A1.24,1.24,0,0,1,247,27.48V63.09a1.24,1.24,0,0,1-1.24,1.24h-.36a.76.76,0,0,0-.76.76h10.81a.76.76,0,0,0-.76-.76h-.36A1.24,1.24,0,0,1,253.1,63.09Z"/><path class="cls-7" d="M91.85,140.41l-36.52-8a1.24,1.24,0,0,1-.45-1.69l.18-.31a.76.76,0,0,0-.28-1h0l-5.4,9.36h0a.76.76,0,0,0,1-.28l.18-.31c.34-.59.94-.61,1.69-.45l36.52,8a1.24,1.24,0,0,1,.45,1.69l-.18.31a.76.76,0,0,0,.28,1h0l5.4-9.36h0a.76.76,0,0,0-1,.28l-.18.31C93.21,140.55,92.61,140.57,91.85,140.41Z"/><path class="cls-7" d="M84.19,153.69,59,126.05a1.24,1.24,0,0,0-1.69.45l-.18.31a.76.76,0,0,1-1,.28h0l3.29-5.7h0a.76.76,0,0,1,.28,1l-.18.31c-.34.59,0,1.19.45,1.69l25.16,27.64a1.24,1.24,0,0,0,1.69-.45l.18-.31a.76.76,0,0,1,1-.28h0l-3.29,5.7h0a.76.76,0,0,1-.28-1l.18-.31C85,154.8,84.67,154.21,84.19,153.69Z"/><path class="cls-7" d="M86.69,318.78,55.85,336.58a1.24,1.24,0,0,1-1.69-.45l-.18-.31a.76.76,0,0,0-1-.28h0l5.4,9.36h0a.76.76,0,0,0,.28-1l-.18-.31a1.24,1.24,0,0,1,.45-1.69l30.84-17.81a1.24,1.24,0,0,1,1.69.45l.18.31a.76.76,0,0,0,1,.28h0l-5.4-9.36h0a.76.76,0,0,0-.28,1l.18.31A1.24,1.24,0,0,1,86.69,318.78Z"/><path class="cls-7" d="M81.89,310.45,51,328.26a1.24,1.24,0,0,1-1.69-.45l-.18-.31a.76.76,0,0,0-1-.28h0l5.4,9.36h0a.76.76,0,0,0,.28-1l-.18-.31a1.24,1.24,0,0,1,.45-1.69l30.84-17.81a1.24,1.24,0,0,1,1.69.45l.18.31a.76.76,0,0,0,1,.28h0l-5.4-9.36h0a.76.76,0,0,0-.28,1l.18.31A1.24,1.24,0,0,1,81.89,310.45Z"/><path class="cls-7" d="M77.14,302.22,46.29,320a1.24,1.24,0,0,1-1.69-.45l-.18-.31a.76.76,0,0,0-1-.28h0l5.4,9.36h0a.76.76,0,0,0,.28-1l-.18-.31a1.24,1.24,0,0,1,.45-1.69L80.18,307.5a1.24,1.24,0,0,1,1.69.45l.18.31a.76.76,0,0,0,1,.28h0l-5.4-9.36h0a.76.76,0,0,0-.28,1l.18.31A1.24,1.24,0,0,1,77.14,302.22Z"/><path class="cls-7" d="M60.7,349a.76.76,0,0,0,.28-1l-.18-.31a1,1,0,0,1,.5-1.5l20.15-6.65L65.1,352.6a1.24,1.24,0,0,1-1.69-.45l-.18-.31a.76.76,0,0,0-1-.28l5.4,9.36a.76.76,0,0,0,.28-1l-.18-.31a1.24,1.24,0,0,1,.45-1.69l28.8-25.1a.15.15,0,0,0-.14-.25L85,336.62h0l-24.43,8.11a1.34,1.34,0,0,1-1.69-.46l-.11-.2a.76.76,0,0,0-1-.28Z"/><path class="cls-7" d="M338.51,416.31a.76.76,0,0,0-1-.28l-.31.18a1,1,0,0,1-1.5-.5L329,395.56l13.12,16.35a1.24,1.24,0,0,1-.45,1.69l-.31.18a.76.76,0,0,0-.28,1l9.36-5.4a.76.76,0,0,0-1-.28l-.31.18a1.24,1.24,0,0,1-1.69-.45l-25.1-28.8a.15.15,0,0,0-.25.14l4.1,11.79v0l8.11,24.43a1.34,1.34,0,0,1-.46,1.69l-.2.11a.76.76,0,0,0-.28,1Z"/><line class="cls-8" x1="180.53" y1="29.25" x2="192.87" y2="75.27"/><path class="cls-8" d="M182.05,53.59h0a.08.08,0,0,1,0-.15h0a5.16,5.16,0,0,0,3.36-5.82h0a.08.08,0,0,1,.15,0h0a5.16,5.16,0,0,0,5.82,3.36h0a.08.08,0,0,1,0,.15h0A5.16,5.16,0,0,0,188,56.91h0a.08.08,0,0,1-.15,0h0A5.16,5.16,0,0,0,182.05,53.59Z"/><line class="cls-8" x1="84.27" y1="85.06" x2="118.13" y2="118.58"/><path class="cls-8" d="M97.86,105.31h0a.08.08,0,0,1-.11-.11h0a5.16,5.16,0,0,0,0-6.72h0a.08.08,0,0,1,.11-.11h0a5.16,5.16,0,0,0,6.72,0h0a.08.08,0,0,1,.11.11h0a5.16,5.16,0,0,0,0,6.72h0a.08.08,0,0,1-.11.11h0A5.16,5.16,0,0,0,97.86,105.31Z"/><line class="cls-8" x1="30.23" y1="178.38" x2="76.16" y2="191.05"/><path class="cls-8" d="M52,189.39h0a.08.08,0,0,1-.15,0h0a5.16,5.16,0,0,0-3.32-5.85h0a.08.08,0,0,1,0-.15h0A5.16,5.16,0,0,0,54.41,180h0a.08.08,0,0,1,.15,0h0a5.16,5.16,0,0,0,3.32,5.85h0a.08.08,0,0,1,0,.15h0A5.16,5.16,0,0,0,52,189.39Z"/><line class="cls-8" x1="29.89" y1="289.48" x2="75.91" y2="277.15"/><path class="cls-8" d="M54.22,288h0a.08.08,0,0,1-.15,0h0a5.16,5.16,0,0,0-5.82-3.36h0a.08.08,0,0,1,0-.15h0a5.16,5.16,0,0,0,3.36-5.82h0a.08.08,0,0,1,.15,0h0A5.16,5.16,0,0,0,57.54,282h0a.08.08,0,0,1,0,.15h0A5.16,5.16,0,0,0,54.22,288Z"/><line class="cls-8" x1="85.74" y1="385.53" x2="119.18" y2="351.59"/><path class="cls-8" d="M106,371.89h0a.08.08,0,0,1-.11.11h0a5.16,5.16,0,0,0-6.72.05h0a.08.08,0,0,1-.11-.11h0a5.16,5.16,0,0,0-.05-6.72h0a.08.08,0,0,1,.11-.11h0a5.16,5.16,0,0,0,6.72-.05h0a.08.08,0,0,1,.11.11h0A5.16,5.16,0,0,0,106,371.89Z"/><line class="cls-8" x1="179.19" y1="439.32" x2="191.76" y2="393.36"/><path class="cls-8" d="M190.16,417.54h0a.08.08,0,0,1,0,.15h0a5.16,5.16,0,0,0-5.84,3.33h0a.08.08,0,0,1-.15,0h0a5.16,5.16,0,0,0-3.33-5.84h0a.08.08,0,0,1,0-.15h0a5.16,5.16,0,0,0,5.84-3.33h0a.08.08,0,0,1,.15,0h0A5.16,5.16,0,0,0,190.16,417.54Z"/><line class="cls-8" x1="290.47" y1="439.52" x2="278.13" y2="393.5"/><path class="cls-8" d="M288.95,415.18h0a.08.08,0,0,1,0,.15h0a5.16,5.16,0,0,0-3.36,5.82h0a.08.08,0,0,1-.15,0h0a5.16,5.16,0,0,0-5.82-3.36h0a.08.08,0,0,1,0-.15h0a5.16,5.16,0,0,0,3.36-5.82h0a.08.08,0,0,1,.15,0h0A5.16,5.16,0,0,0,288.95,415.18Z"/><line class="cls-8" x1="386.73" y1="383.71" x2="352.87" y2="350.19"/><path class="cls-8" d="M373.14,363.46h0a.08.08,0,0,1,.11.11h0a5.16,5.16,0,0,0,0,6.72h0a.08.08,0,0,1-.11.11h0a5.16,5.16,0,0,0-6.72,0h0a.08.08,0,0,1-.11-.11h0a5.16,5.16,0,0,0,0-6.72h0a.08.08,0,0,1,.11-.11h0A5.16,5.16,0,0,0,373.14,363.46Z"/><line class="cls-8" x1="440.77" y1="290.4" x2="394.84" y2="277.72"/><path class="cls-8" d="M419,279.38h0a.08.08,0,0,1,.15,0h0a5.16,5.16,0,0,0,3.32,5.85h0a.08.08,0,0,1,0,.15h0a5.16,5.16,0,0,0-5.85,3.32h0a.08.08,0,0,1-.15,0h0a5.16,5.16,0,0,0-3.32-5.85h0a.08.08,0,0,1,0-.15h0A5.16,5.16,0,0,0,419,279.38Z"/><line class="cls-8" x1="441.11" y1="179.29" x2="395.09" y2="191.62"/><path class="cls-8" d="M416.78,180.81h0a.08.08,0,0,1,.15,0h0a5.16,5.16,0,0,0,5.82,3.36h0a.08.08,0,0,1,0,.15h0a5.16,5.16,0,0,0-3.36,5.82h0a.08.08,0,0,1-.15,0h0a5.16,5.16,0,0,0-5.82-3.36h0a.08.08,0,0,1,0-.15h0A5.16,5.16,0,0,0,416.78,180.81Z"/><line class="cls-8" x1="385.26" y1="83.25" x2="351.82" y2="117.19"/><path class="cls-8" d="M365,96.88h0a.08.08,0,0,1,.11-.11h0a5.16,5.16,0,0,0,6.72-.05h0a.08.08,0,0,1,.11.11h0a5.16,5.16,0,0,0,.05,6.72h0a.08.08,0,0,1-.11.11h0a5.16,5.16,0,0,0-6.72.05h0a.08.08,0,0,1-.11-.11h0A5.16,5.16,0,0,0,365,96.88Z"/><line class="cls-8" x1="291.81" y1="29.45" x2="279.24" y2="75.41"/><path class="cls-8" d="M280.84,51.23h0a.08.08,0,0,1,0-.15h0a5.16,5.16,0,0,0,5.84-3.33h0a.08.08,0,0,1,.15,0h0a5.16,5.16,0,0,0,3.33,5.84h0a.08.08,0,0,1,0,.15h0a5.16,5.16,0,0,0-5.84,3.33h0a.08.08,0,0,1-.15,0h0A5.16,5.16,0,0,0,280.84,51.23Z"/><line class="cls-8" x1="180.53" y1="29.25" x2="192.87" y2="75.27"/><path class="cls-8" d="M182.05,53.59h0a.08.08,0,0,1,0-.15h0a5.16,5.16,0,0,0,3.36-5.82h0a.08.08,0,0,1,.15,0h0a5.16,5.16,0,0,0,5.82,3.36h0a.08.08,0,0,1,0,.15h0A5.16,5.16,0,0,0,188,56.91h0a.08.08,0,0,1-.15,0h0A5.16,5.16,0,0,0,182.05,53.59Z"/></g></g></svg>