<svg xmlns="http://www.w3.org/2000/svg" viewBox="0 0 57.92 122.5"><defs><style>.cls-1{fill:#221108;stroke:#f2a75f;stroke-miterlimit:10;stroke-width:0.5px;}</style></defs><title>Gear_hour</title><g id="레이어_2" data-name="레이어 2"><g id="레이어_1-2" data-name="레이어 1"><path class="cls-1" d="M1.3,61.24a13.35,13.35,0,0,0,12,8.15l.52.53a2,2,0,0,1,.56,1.76L14,73.89a.57.57,0,0,0,1,.5l2.14-2.32a2,2,0,0,1,2.45-.5l.35.3h0c3,2.35,9.48,8.6,4.36,16.41L22,89.85a1,1,0,0,0,0,1.61l1.29.89A17.56,17.56,0,0,1,24.7,93.4,5.81,5.81,0,0,1,26,94.79a2.17,2.17,0,0,1,.27,1.84A2.7,2.7,0,0,1,25,98c-.65.36-1.36.61-2,1a12.56,12.56,0,0,0-5,5.33,12.44,12.44,0,0,0-1.12,3.6,12.51,12.51,0,0,0,12,14.39A12.5,12.5,0,0,0,34.9,98.94c-.65-.38-1.35-.62-2-1a2.7,2.7,0,0,1-1.23-1.32,2.17,2.17,0,0,1,.27-1.84,5.81,5.81,0,0,1,1.27-1.39,17.56,17.56,0,0,1,1.41-1.06l1.29-.89a1,1,0,0,0,0-1.61l-2.27-1.56C28.53,80.47,35,74.23,38,71.87h0l.35-.3a2,2,0,0,1,2.45.5L43,74.39a.57.57,0,0,0,1-.5l-.37-2.22a2,2,0,0,1,.56-1.76l.52-.53A13.35,13.35,0,1,0,36.85,45c-.47.32-.94.66-1.38,1h0a11.3,11.3,0,0,0-.9.83c-.3.31-.64,1.11-1.16.67a2.38,2.38,0,0,1-.79-1.4,2.47,2.47,0,0,1,.69-2.1A7.2,7.2,0,0,1,35,42.85l1.59-.93a.78.78,0,0,0,.39-.9C31.53,21.65,31.67,13.6,31.36,1A.42.42,0,0,0,31,.56L30.09.37A6.54,6.54,0,0,0,29,.25a6.54,6.54,0,0,0-1.13.12L26.9.56a.42.42,0,0,0-.34.41C26.25,13.6,26.39,21.65,21,41a.78.78,0,0,0,.39.9l1.59.93A7.2,7.2,0,0,1,24.61,44a2.47,2.47,0,0,1,.69,2.1,2.38,2.38,0,0,1-.79,1.4c-.52.45-.86-.36-1.16-.67a11.3,11.3,0,0,0-.9-.83h0c-.44-.36-.91-.7-1.38-1A13.36,13.36,0,0,0,1.3,61.24Zm31,48.51A3.35,3.35,0,1,1,29,106.4,3.35,3.35,0,0,1,32.31,109.75Zm2.92-54c0-.06,0-.11,0-.17s0-.28,0-.42V55.1q0-.24.06-.47l0-.15c0-.11,0-.21.06-.32l0-.18.07-.28.05-.19.08-.26.06-.19.09-.25.07-.19.1-.24.08-.19.11-.23.09-.18.12-.22.1-.18.14-.22.11-.17.15-.22.11-.16.17-.22.11-.14.2-.23.1-.11.31-.33h0l.33-.31.11-.1.23-.2.14-.11.22-.17.16-.11.22-.15.17-.11.22-.14.18-.1.22-.12.18-.09.23-.11.19-.08.24-.1.19-.07.25-.09.19-.06.26-.08.19-.05.28-.07.18,0,.32-.06.15,0,.47-.06h.05l.43,0h1l.23,0h.14l.33,0h.11l.33.06a9.14,9.14,0,0,1,7.19,7.19c0,.11,0,.22.06.33v.11c0,.11,0,.22,0,.33s0,.1,0,.14,0,.15,0,.23,0,0,0,.06,0,.19,0,.29,0,.13,0,.19,0,.21,0,.32,0,.11,0,.17,0,.28,0,.42V57q0,.24-.06.47l0,.15c0,.11,0,.21-.06.32l0,.18-.07.28-.05.19L53,58.8l-.06.19-.09.25-.07.19-.1.24-.08.19-.11.23-.09.18-.12.22-.1.18-.14.22-.11.17-.15.22-.11.16-.17.22-.11.14-.2.23-.1.11q-.3.34-.64.64l-.11.1-.23.2-.14.11-.22.17-.16.11-.22.15-.17.11-.22.14-.17.1-.23.12-.18.09-.23.11-.19.08-.24.1-.19.07-.25.09-.19.06-.26.08-.19.05-.28.07-.18,0-.32.06-.15,0-.47.06h-.05l-.43,0h-1l-.23,0h-.14L43,65h-.11l-.32-.06a9.14,9.14,0,0,1-7.19-7.19c0-.11,0-.22-.06-.33v-.11c0-.11,0-.22,0-.33s0-.1,0-.14,0-.15,0-.23,0,0,0-.06,0-.19,0-.29,0-.13,0-.19S35.23,55.86,35.23,55.75ZM24.79,64.23l.18-.12a2.57,2.57,0,0,0,.89-1l2.75-5a.4.4,0,0,1,.7,0l2.75,5a2.7,2.7,0,0,0,.67.8l.22.16.18.12,5,2.71.1.07a.44.44,0,0,1,.13.31.44.44,0,0,1-.07.24l-.06.07-.1.07-4.94,2.7a2.75,2.75,0,0,0-1.09,1.09h0l-2.68,4.9a.47.47,0,0,1-.83,0l-2.68-4.9h0a2.75,2.75,0,0,0-1.09-1.09l-4.94-2.7-.1-.07-.06-.07a.44.44,0,0,1-.07-.24.44.44,0,0,1,.13-.31l.1-.07ZM4.54,55.79c0-.1,0-.2,0-.29s0,0,0-.06,0-.15,0-.23,0-.1,0-.14,0-.22,0-.33v-.11c0-.11,0-.22.06-.33a9.14,9.14,0,0,1,7.19-7.19l.33-.06h.11l.33,0h.14L13,47h1l.43,0h.05l.47.06.15,0,.32.06.18,0,.28.07.19.05.26.08.19.06.25.09.19.07.24.1.19.08.23.11.18.09.22.12.18.1.22.14.17.11.22.15.16.11.22.17.14.11.23.2.11.1.33.31h0l.31.32.1.11.2.23.11.14.17.22.11.16.15.22.11.17.14.22.1.18.12.22.09.18.11.23.08.19.1.24.07.19.09.25.06.19.08.26.05.19.07.28,0,.18c0,.1,0,.21.06.32l0,.15q0,.23.06.47v.06c0,.14,0,.28,0,.42s0,.11,0,.17,0,.21,0,.32,0,.13,0,.19,0,.2,0,.29,0,0,0,.06,0,.15,0,.23,0,.1,0,.14,0,.22,0,.33v.11c0,.11,0,.22-.06.33a9.14,9.14,0,0,1-7.19,7.19L15,65H14.9l-.33,0h-.14l-.23,0h-1l-.43,0h-.05L12.22,65l-.15,0-.32-.06-.18,0-.28-.07-.19-.05-.26-.08-.19-.06-.25-.09-.19-.07-.24-.1-.19-.08-.23-.11-.18-.09-.23-.12L9,63.84l-.22-.14L8.6,63.6l-.22-.15-.16-.11L8,63.17l-.14-.11-.23-.2-.11-.1q-.34-.3-.64-.64L6.78,62l-.2-.23-.11-.14-.17-.22-.11-.16L6,61l-.11-.17-.14-.22-.1-.18-.12-.22-.09-.18-.11-.23-.08-.19-.1-.24-.07-.19L5,59,5,58.8l-.08-.26-.05-.19-.07-.28,0-.18c0-.11,0-.21-.06-.32l0-.15q0-.23-.06-.47V56.9c0-.14,0-.28,0-.42s0-.11,0-.17,0-.21,0-.32S4.54,55.86,4.54,55.79Z"/></g></g></svg>