<svg xmlns="http://www.w3.org/2000/svg" viewBox="0 0 22.92 192.19"><defs><style>.cls-1,.cls-2{fill:#221108;stroke-linecap:round;stroke-linejoin:round;stroke-width:0.5px;}.cls-1{stroke:#c79f62;}.cls-2{stroke:#f2a75f;}</style></defs><title>Gear_minute</title><g id="레이어_2" data-name="레이어 2"><g id="레이어_1-2" data-name="레이어 1"><path class="cls-1" d="M17.9,173h0Z"/><path class="cls-1" d="M18,172.11l-.73-.2a6.87,6.87,0,0,0,.74.21Z"/><path class="cls-1" d="M4.65,172.11l0,0a6.75,6.75,0,0,0,1-.28Z"/><path class="cls-1" d="M4.65,173l.53.15L4.65,173Z"/><path class="cls-2" d="M2.68,110.91a2.6,2.6,0,0,1-.13.46,36,36,0,0,0-1.27,3.93,32,32,0,0,0-1,8.06q0,.28,0,.56a20.21,20.21,0,0,0,1.47,7.42,16.67,16.67,0,0,0,1.62,3.05c.7,1,1.57,2,2.2,3.05a4.54,4.54,0,0,1,.9,3.07,2.33,2.33,0,0,1-.35.75l-.54.73a.51.51,0,0,0,.57.79L7,142.5a2,2,0,0,1,.7-.1.73.73,0,0,1,.68.74V146a1.56,1.56,0,0,1-.88,1.41,9,9,0,0,0-4.18,4.25,8.71,8.71,0,0,0,1.77,9.84,8.41,8.41,0,0,0,3.09,2,1.5,1.5,0,0,1,1,1.49c-.22,4-1.38,6-3.58,6.8a6.75,6.75,0,0,1-1,.28.44.44,0,0,0,0,.83l.54.15a8.14,8.14,0,0,1,2.7,1.38,3.82,3.82,0,0,1,1.27,4l-.55,2,1.83,10.79a.78.78,0,0,0,.93.6.78.78,0,0,0,.93-.6l1.83-10.79-.55-2a3.82,3.82,0,0,1,1.27-4,8.14,8.14,0,0,1,3-1.49h0l.1,0a.44.44,0,0,0,0-.85,6.87,6.87,0,0,1-.74-.21c-2.28-.81-3.48-2.78-3.71-6.85a1.5,1.5,0,0,1,1-1.49,8.43,8.43,0,0,0,3.11-2.06,8.73,8.73,0,0,0,1.6-10.13,9,9,0,0,0-3.75-3.81,1.71,1.71,0,0,1-.92-1.51v-4.27a1.73,1.73,0,0,1,.46-1.17l4.48-4.86a1.59,1.59,0,0,1,1.58-.46l.94.25a.47.47,0,0,0,.48-.75l-.77-.86a1.57,1.57,0,0,1-.39-1.29c.45-2.88,1.27-5.73,1.32-8.68q0-.28,0-.56a32.91,32.91,0,0,0-2.23-11.82,51.89,51.89,0,0,0-3.52-7.29c-1.17-2-2.37-4-3.46-5.78a.72.72,0,0,1,0-.73,46.78,46.78,0,0,1,2.42-4.22A1.36,1.36,0,0,1,17,93h1a.46.46,0,0,0,.26-.85l-.82-.57a1.45,1.45,0,0,1-.61-1.19c0-1.14.16-2.26.16-3.4a13.69,13.69,0,0,0-.31-2.91c-.35-1.6-.78-3-1.23-4.43-.33-1-.66-2.06-1-3.1-.35-1.19-.65-2.4-.89-3.62a6,6,0,0,1-.08-1.52c0-.76,0-1.52,0-2.29,0-.49,0-1,0-1.47,0-1.14.13-2.28.26-3.41s.3-2.29.53-3.42a33.51,33.51,0,0,1,.84-3.34,27,27,0,0,1,1.2-3.18q.21-.47.44-.93l.24-.46c0-.05.2-.44.24-.44,1.33-2.35.7-3.7-2-4.06a2,2,0,0,1-1.8-1.73,1.86,1.86,0,0,1,1.1-2c1-.64,2-.19,3-.48A1.51,1.51,0,0,0,18.77,43a2.24,2.24,0,0,0-.18-1A96.94,96.94,0,0,1,13.4,15.12c-.08-1.63-.12-3.23-.07-4.88,0-.8,0-1.59,0-2.39,0-1.19,0-2.39,0-3.58A8.61,8.61,0,0,0,13,1.45c0-.09-.22-.58-.33-.58a1.76,1.76,0,0,0-1.55-.6C10.25.39,9.88,1.21,9.78,2a21.08,21.08,0,0,0,.05,3.88c.07,1.3,0,2.62,0,3.92,0,.87,0,1.74-.06,2.6q-.06,2.33-.19,4.66c-.15,2.61-.37,5.23-.7,7.82-.22,1.69-.48,3.37-.81,5A50.85,50.85,0,0,1,4.44,41.72c-.74,1.59-.08,2.45,1.68,2.46a6.36,6.36,0,0,1,1.53.12,2.25,2.25,0,0,1,2,2.21c0,1-.78,1.69-2.17,1.9-2.26.34-3,1.61-2,3.66a30.7,30.7,0,0,1,2.8,8.37c.25,1.56.5,3.13.73,4.7.19,1.3.4,2.61.5,3.92,0,.57,0,1.14,0,1.71a9.18,9.18,0,0,1-.1,1.64A1.45,1.45,0,0,1,8,73.61H8l-.56,0a.42.42,0,0,0-.28.75l.44.34h0A2.14,2.14,0,0,1,8.32,77l-.17.57c-.33,1.08-.67,2.12-1,3.19s-.64,2.17-.9,3.37A13.69,13.69,0,0,0,5.94,87a15.62,15.62,0,0,0,.65,4.34,30.5,30.5,0,0,0,2.86,6.42.72.72,0,0,1,0,.73c-.83,1.37-1.71,2.79-2.59,4.28a9.08,9.08,0,0,1-1.48,1.9L5,105a1.6,1.6,0,0,1-1.4.42l-1.08-.2a.68.68,0,0,0-.61,1.14l.77.79a1.6,1.6,0,0,1,.42,1.4Zm12.57,44.52a3.61,3.61,0,1,1-3.61-3.61A3.61,3.61,0,0,1,15.25,155.43ZM9,87a10.59,10.59,0,0,1,.24-2.26c.31-1.45.72-2.77,1.15-4.16.22-.71.46-1.43.69-2.19a.36.36,0,0,1,.68,0h0c.34,1.12.69,2.16,1,3.18s.6,2,.83,3.12A10.59,10.59,0,0,1,13.88,87a12.52,12.52,0,0,1-.53,3.49,22.52,22.52,0,0,1-1.54,3.8.42.42,0,0,1-.74,0A23.57,23.57,0,0,1,9.7,90.94,12.87,12.87,0,0,1,9,87ZM5.38,112.64a48.84,48.84,0,0,1,3.31-6.85c.77-1.35,1.57-2.66,2.35-4a.48.48,0,0,1,.82,0,85.16,85.16,0,0,1,4.42,7.89A38.23,38.23,0,0,1,18,113.94a3.53,3.53,0,0,1,.16,1.4,2.13,2.13,0,0,1-1,1.71.36.36,0,0,0,.16.68,2,2,0,0,1,1.15.42,3.17,3.17,0,0,1,.95,1.94,28.68,28.68,0,0,1,.19,3.29q0,.25,0,.51a17.66,17.66,0,0,1-1.16,6.19,13.51,13.51,0,0,1-3.94,5.53,5.14,5.14,0,0,1-2.91,1.4,4,4,0,0,1-2.27-.88,13.61,13.61,0,0,1-4.27-5,16.64,16.64,0,0,1-1.67-7.24q0-.26,0-.51A29.8,29.8,0,0,1,5.38,112.64Z"/></g></g></svg>