<svg xmlns="http://www.w3.org/2000/svg" viewBox="0 0 530.59 532.28"><defs><style>.cls-1{fill:#f2a75f;}.cls-2{fill:#40210f;stroke:#c79f62;stroke-miterlimit:10;stroke-width:0.5px;}</style></defs><title>Gear_second</title><g id="레이어_2" data-name="레이어 2"><g id="레이어_1-2" data-name="레이어 1"><path class="cls-1" d="M507.67,266.14q0-2.69-.07-5.36a6,6,0,0,1,4.75-6L525,252.09a7,7,0,0,0,5.54-7.41q-.51-6.38-1.31-12.68a7,7,0,0,0-7-6.11H509.36a6,6,0,0,1-5.89-4.87q-1-5.34-2.23-10.59a6,6,0,0,1,3.41-6.82l11.83-5.25a7,7,0,0,0,3.87-8.4q-1.83-6.12-3.94-12.12a7,7,0,0,0-8.08-4.52L495.69,176a6,6,0,0,1-6.77-3.52q-2.1-5-4.42-9.88a6,6,0,0,1,1.91-7.4l10.48-7.59a7,7,0,0,0,2-9q-3.06-5.6-6.38-11a7,7,0,0,0-8.84-2.74l-11.84,5.29a6,6,0,0,1-7.35-2q-3.08-4.44-6.36-8.74a6,6,0,0,1,.33-7.63l8.67-9.6a7,7,0,0,0,.12-9.26q-4.16-4.84-8.54-9.47a7,7,0,0,0-9.22-.85l-10.46,7.62a6,6,0,0,1-7.62-.47q-3.93-3.71-8-7.24a6,6,0,0,1-1.25-7.52l6.48-11.2a7,7,0,0,0-1.8-9.07q-5.06-3.87-10.31-7.5a7,7,0,0,0-9.2,1.08l-8.63,9.61A6,6,0,0,1,391.15,59q-4.62-2.81-9.37-5.41a6,6,0,0,1-2.79-7.1l4-12.32a7,7,0,0,0-3.65-8.5q-5.74-2.73-11.64-5.19a7,7,0,0,0-8.77,3l-6.46,11.22a6,6,0,0,1-7.15,2.67Q340.24,35.52,335,34a6,6,0,0,1-4.21-6.37l1.37-12.87a7,7,0,0,0-5.35-7.56q-6.18-1.46-12.47-2.63a7,7,0,0,0-7.95,4.73l-4,12.33A6,6,0,0,1,296,25.7q-5.34-.67-10.75-1.11a6,6,0,0,1-5.45-5.35L278.47,6.36A7,7,0,0,0,271.68.08Q268.5,0,265.29,0t-6.39.08a7,7,0,0,0-6.79,6.28l-1.34,12.87a6,6,0,0,1-5.45,5.35q-5.41.44-10.75,1.11a6,6,0,0,1-6.43-4.1l-4-12.33a7,7,0,0,0-7.95-4.73q-6.29,1.17-12.47,2.63a7,7,0,0,0-5.35,7.56l1.37,12.87A6,6,0,0,1,195.54,34q-5.2,1.56-10.3,3.34a6,6,0,0,1-7.15-2.67l-6.46-11.22a7,7,0,0,0-8.77-3Q157,22.9,151.23,25.63a7,7,0,0,0-3.65,8.5l4,12.32a6,6,0,0,1-2.79,7.1q-4.75,2.6-9.37,5.41a6,6,0,0,1-7.55-1.13l-8.63-9.61a7,7,0,0,0-9.2-1.08q-5.25,3.63-10.31,7.5a7,7,0,0,0-1.8,9.07l6.48,11.2a6,6,0,0,1-1.25,7.52q-4.09,3.53-8,7.24a6,6,0,0,1-7.62.47L81.06,82.53a7,7,0,0,0-9.22.85Q67.47,88,63.31,92.85a7,7,0,0,0,.12,9.26l8.67,9.6a6,6,0,0,1,.33,7.63q-3.27,4.3-6.36,8.74a6,6,0,0,1-7.35,2l-11.84-5.29A7,7,0,0,0,38,127.57q-3.32,5.43-6.38,11a7,7,0,0,0,2,9l10.48,7.59a6,6,0,0,1,1.91,7.4q-2.32,4.88-4.42,9.88A6,6,0,0,1,34.9,176l-12.65-2.7a7,7,0,0,0-8.08,4.52q-2.11,6-3.94,12.12a7,7,0,0,0,3.87,8.4l11.83,5.25a6,6,0,0,1,3.41,6.82q-1.23,5.25-2.23,10.59a6,6,0,0,1-5.89,4.87H8.29a7,7,0,0,0-7,6.11q-.8,6.3-1.31,12.68a7,7,0,0,0,5.54,7.41l12.67,2.68a6,6,0,0,1,4.75,6q-.06,2.67-.07,5.36T23,271.5a6,6,0,0,1-4.75,6L5.56,280.19A7,7,0,0,0,0,287.6Q.53,294,1.33,300.28a7,7,0,0,0,7,6.11H21.23a6,6,0,0,1,5.89,4.87q1,5.34,2.23,10.59a6,6,0,0,1-3.41,6.82l-11.83,5.25a7,7,0,0,0-3.87,8.4q1.83,6.12,3.94,12.12A7,7,0,0,0,22.25,359l12.65-2.7a6,6,0,0,1,6.77,3.52q2.1,5,4.42,9.88a6,6,0,0,1-1.91,7.4L33.7,384.64a7,7,0,0,0-2,9q3.06,5.6,6.38,11a7,7,0,0,0,8.84,2.74l11.84-5.29a6,6,0,0,1,7.35,2q3.08,4.44,6.36,8.74a6,6,0,0,1-.33,7.63l-8.67,9.6a7,7,0,0,0-.12,9.26q4.16,4.84,8.54,9.47a7,7,0,0,0,9.22.85l10.46-7.62a6,6,0,0,1,7.62.47q3.93,3.71,8,7.24a6,6,0,0,1,1.25,7.52l-6.48,11.2a7,7,0,0,0,1.8,9.07q5.06,3.87,10.31,7.5a7,7,0,0,0,9.2-1.08l8.63-9.61a6,6,0,0,1,7.55-1.13q4.62,2.81,9.37,5.41a6,6,0,0,1,2.79,7.1l-4,12.32a7,7,0,0,0,3.65,8.5q5.74,2.73,11.64,5.19a7,7,0,0,0,8.77-3l6.46-11.22a6,6,0,0,1,7.15-2.67q5.1,1.78,10.3,3.34a6,6,0,0,1,4.21,6.37l-1.37,12.87a7,7,0,0,0,5.35,7.56q6.18,1.46,12.47,2.63a7,7,0,0,0,7.95-4.73l4-12.33a6,6,0,0,1,6.43-4.1q5.34.67,10.75,1.11a6,6,0,0,1,5.45,5.35l1.34,12.87a7,7,0,0,0,6.79,6.28q3.18.08,6.39.08t6.39-.08a7,7,0,0,0,6.79-6.28L280.33,508q7.91-.48,15.68-1.46a6,6,0,0,1,6.43,4.1l4,12.33a7,7,0,0,0,7.95,4.73q6.29-1.17,12.47-2.63a7,7,0,0,0,5.35-7.56l-1.37-12.87a6,6,0,0,1,4.21-6.37q5.2-1.56,10.3-3.34a6,6,0,0,1,7.15,2.67l6.46,11.22a7,7,0,0,0,8.77,3q5.89-2.46,11.64-5.19a7,7,0,0,0,3.65-8.5l-4-12.32a6,6,0,0,1,2.79-7.1q4.75-2.6,9.37-5.41a6,6,0,0,1,7.55,1.13l8.63,9.61a7,7,0,0,0,9.2,1.08q5.25-3.63,10.31-7.5a7,7,0,0,0,1.8-9.07l-6.48-11.2a6,6,0,0,1,1.25-7.52q4.09-3.53,8-7.24a6,6,0,0,1,7.62-.47l10.46,7.62a7,7,0,0,0,9.22-.85q4.38-4.63,8.54-9.47a7,7,0,0,0-.12-9.26l-8.67-9.6a6,6,0,0,1-.33-7.63q3.27-4.3,6.36-8.74a6,6,0,0,1,7.35-2l11.84,5.29a7,7,0,0,0,8.84-2.74q3.32-5.43,6.38-11a7,7,0,0,0-2-9L486.41,377a6,6,0,0,1-1.91-7.4q2.32-4.88,4.42-9.88a6,6,0,0,1,6.77-3.52l12.65,2.7a7,7,0,0,0,8.08-4.52q2.11-6,3.94-12.12a7,7,0,0,0-3.87-8.4l-11.83-5.25a6,6,0,0,1-3.41-6.82q1.23-5.25,2.23-10.59a6,6,0,0,1,5.89-4.87H522.3a7,7,0,0,0,7-6.11q.8-6.3,1.31-12.68a7,7,0,0,0-5.54-7.41l-12.67-2.68a6,6,0,0,1-4.75-6Q507.67,268.83,507.67,266.14Zm-242.38,233c-128.68,0-233-104.32-233-233s104.32-233,233-233,233,104.32,233,233S394,499.14,265.29,499.14Z"/><path class="cls-2" d="M266.39,8.49l.46,1.34A6.68,6.68,0,0,0,271,14l1.34.46a.63.63,0,0,1,0,1.2l-1.34.46a6.68,6.68,0,0,0-4.14,4.14l-.46,1.34a.63.63,0,0,1-1.2,0l-.46-1.34a6.68,6.68,0,0,0-4.14-4.14l-1.34-.46a.63.63,0,0,1,0-1.2l1.34-.46a6.68,6.68,0,0,0,4.14-4.14l.46-1.34A.63.63,0,0,1,266.39,8.49Z"/></g></g></svg>