<svg xmlns="http://www.w3.org/2000/svg" viewBox="0 0 52.5 52.5"><defs><style>.cls-1{fill:#231815;}.cls-2{fill:#f2a75f;}</style></defs><title>Gear_holder</title><g id="레이어_2" data-name="레이어 2"><g id="레이어_1-2" data-name="레이어 1"><circle class="cls-1" cx="26.25" cy="26.25" r="26.25"/><path class="cls-2" d="M26.25,2.92A23.33,23.33,0,1,0,49.58,26.25,23.33,23.33,0,0,0,26.25,2.92Zm0,34.74a11.4,11.4,0,1,1,11.4-11.4A11.4,11.4,0,0,1,26.25,37.65Z"/><path class="cls-2" d="M51.41,26.25H50.31a24.06,24.06,0,1,1-7-17,24,24,0,0,1,7,17H52.5a26.25,26.25,0,1,0-7.69,18.56A26.17,26.17,0,0,0,52.5,26.25Z"/></g></g></svg>