<svg xmlns="http://www.w3.org/2000/svg" viewBox="0 0 2029.08 2104"><defs><style>.cls-1{fill:none;}.cls-2{fill:#61402d;}.cls-3{fill:#613f2d;}.cls-4{fill:#62402d;}</style></defs><title>Climbing_rose</title><g id="레이어_2" data-name="레이어 2"><g id="레이어_1-2" data-name="레이어 1"><path class="cls-1" d="M182.09,787.82a43.78,43.78,0,0,1,0-5.11A7.8,7.8,0,0,0,182.09,787.82Z"/><path class="cls-1" d="M1150.62,208.13c.33-.21.67-.44,1-.69A2.59,2.59,0,0,0,1150.62,208.13Z"/><path class="cls-2" d="M752.33,2097.21c-7-11.31-1.53-21.85,1.67-32.58a242.4,242.4,0,0,0,6.81-27.11c2.48-14.05,10.9-20.66,24.47-21.94a7.37,7.37,0,0,0,4.52-1.69c-1.49-4.43-4.86-8.14-7.58-12-10.11-14.35-.71-34.48,15.46-40.79,4.52-1.76,8.42.42,12.49,1.82,3.42,1.17,6.16,3.93,11.45,4.43-1.81-22.6,15.2-27.88,31.59-33.24,9.66-3.16,18.78-8.88,29.63-7.53a5,5,0,0,1,1.31.79c10.52-3.84,14.1-3.89,18.75,4.2-6.79,1.92-12.44-.85-18.11-3.55a5.45,5.45,0,0,1,.34.44c4.36,14.93,3.29,19.58-8.48,28.58-8.6,6.58-15.76,15.67-27.56,17.25-1.76.24-3.21,1.19-2.73,3.35a3.62,3.62,0,0,0,4.39,3c2-.26,3.7-1.47,5.45-2.41,2.65-1.42,5.74-3.88,8.32-2.88,10.95,4.26,14.94-1.25,17.43-10.69.82-3.12,4.51-4.76,7.28-6.61,6.1-4.07,12.49-7.85,17.85-12.83,10.65-9.89,21.82-15.81,36.23-5.89,2.11-6-.22-10.45.18-14.93.59-6.71,3.63-10.79,10.54-10.8,10,0,19.92-1.39,29.87-2.06,15-1,18.26,1.38,29.82,18.82,3.23-.3,3.77-3.41,5.23-5.37,6-8.07,13.77-11.73,24-11.77,18.63-.07,37.31,1.45,55.89-1.52,8-1.28,14,3.18,19.52,8.32,2.4,2.23,3.53,5.71,8.34,7.54,5.42-20.95,22.94-22.82,40.44-25.26,10.54-1.47,21.16-3.51,31.15-7.1,11.85-4.26,22.19-3.2,31.62,5.09,4.59,4,7.14,3.67,8.61-2.71,2.74-11.89,9.87-19.29,21.59-24,14.78-6,29.25-13.53,41.55-23.69,9.52-7.86,19.4-9.36,30.67-8.16,1.94.21,3.89,1.17,7.26-.52-9.74-18.36,1.16-32.24,10.73-46.87A92.59,92.59,0,0,0,1363.6,1760c2.17-12.08,8.66-19.18,20.16-21.95,6.39-1.54,7.75-4.4,3.7-9.61-8.66-11.13-10.5-23.82-10.29-37.64.23-15.14-4.62-29.5-10.31-43.5-3.78-9.29-2.07-11.44,7.93-10.37,12.93,1.38,25.63,4.38,38.51,6,17.92,2.21,29.37,10.23,29.26,29,1.34,1,2,1.07,2.58.54,14.12-13.9,29.68-15.32,47.39-6.88,9.57,4.56,19.72,8.11,29.74,11.74,11.66,4.22,16.87,12.3,16.3,24.49a25.64,25.64,0,0,0,.23,6.55c.77.9,1.45,1.12,2.07.64,21.08-16.37,37.83-4.67,54.44,8.31,12.58,9.84,14.52,9.16,19.17-6.43l.28-1c5.38-18.85,5-19.43-14.2-16.27a25.86,25.86,0,0,1-18.14-3.33c-16.43-9.54-33.07-18.75-50.79-25.73-9.17-3.61-13.07-11-14.92-19.8-1.23-5.86-3.19-8.74-9.06-4.19-9.92,7.68-20.19,7.86-31.89,3.34a282.75,282.75,0,0,0-42.24-12.16c-11-2.36-19.14-7.34-23.43-17.89-2.46-6.07-5.28-6.64-9.93-1.65-7.26,7.8-15.92,10.72-27,8.85a290,290,0,0,0-51.67-4.46c-7.73.1-13.36-3.06-18-9-2.64-3.4-4.32-7.5-7.46-10.36-2.23-.13-3.07,1.44-4,2.76-8.3,12.39-19.25,18-34.73,16.91-11.48-.77-23.41.51-34.75,2.56-14.45,2.61-25.62-.33-34.19-12.35a4.17,4.17,0,0,0-3.44-2.08c-3,2.59-4.22,6.53-6.42,9.8-4.93,7.35-11.44,11.82-20.29,13.14a207.07,207.07,0,0,0-46.38,12c-11.3,4.5-21.33,4.24-31-3.09-6.24-4.74-8.16-2.63-8.94,4.46-1,9.48-5.76,16.91-14.91,21-2.74,1.22-5.09,3.27-7.81,4.44-6.32,2.71-12,10.28-19.74,4.52-4.44-3.31-4.58-21.94-1.17-27.75,3.51-6,8.81-10.59,12.88-15.8-1.47-2.62-3.62-2.84-5.43-3.52-12.63-4.71-21.6-12.39-24.43-26.5-1.7-8.45-5.75-16.32-8.82-24.42-5.58-14.73,1.55-26.44,17.46-27.65,9.63-.73,19.33-.14,29-.23,5,0,10.15.78,15-.5,9.5-2.52,17-.13,23.1,7.44,3.51,4.37,6.32,3.89,8.81-1.18,3.81-7.76,10.24-11.48,18.76-13.18a267.71,267.71,0,0,0,39.41-11.18c8-2.93,15.56-3.54,22.88,1.43,4.84,3.29,7.31,1.47,8.29-3.7,1.77-9.3,7.5-15.08,15.8-19.26,11.34-5.71,21.32-13.64,31.62-21,4.26-3,8.58-5.22,13.91-3.74,4.46,1.23,7.22.35,7-5-.27-6.6,3.34-11.27,7.79-15.56a98.41,98.41,0,0,0,17.1-21c-5.1.59-8.66,3.64-12.94,3.25-2.14-.19-4.26.71-4.55,3-1.54,12.39-12.14,16.79-20.32,23.29-3.12,2.48-6.64,4.45-10,6.64-6.58,4.31-13.27,6.18-20.53,1.57-4.58-2.91-7.46-2.27-7.67,3.83-.33,9.9-6,15.54-14.66,19.48-10,4.56-19.79,9.56-30,13.62-8.86,3.51-17,3.41-24-3.66-4-4-6.4-3.83-8.18,1.85-3.4,10.86-11.27,15.7-22.33,16.93-10.25,1.14-20.53,2.56-30.63,4.37-10.62,1.9-17.59-1.71-22.95-9.87-3.15-4.8-5.38-5-8.52-.22-8.9,13.58-22.55,12.38-35.92,10.8-7.5-.88-8.17-3.31-5.44-15.61-23,3.56-34.13-11.89-45.2-27.83-5.31-7.64-10.8-15.42-18.11-21.26-10.86-8.66-12.64-19.68-10.18-32.28a13,13,0,0,0,.64-3.92c0-.28-.3-.53-1.25-2.12-19.17,12-34.06,1.18-49.22-10-4.78-3.53-9.46-11-16.15-7.69-7.28,3.63-2.57,12.08-3.62,18.32-.43,2.54-.88,5.26-.16,7.93,2,1.63,3.92.35,5.66-.24,9.09-3.12,16.82-1.14,24.06,5.1q16.27,14,32.73,27.85c7.67,6.46,11.08,14,7.51,23.79-2.53,7-1.36,10.82,7.29,9.55a19.81,19.81,0,0,1,11.72,1.78c3.46,1.72,6.28,4.08,5.86,8.4-.4,4.11-3.15,6.54-6.83,7.81-3.89,1.35-7.9,1-11.86.21-9.16-1.77-18.24-4.1-27.48-5.36-14.53-2-26.94-6.23-28.83-22.34-1.86-.88-2.59-.93-3.1-.42-10.6,10.68-22.73,12.46-36.7,7.32-8.42-3.1-17.44-4.41-26.26-6.17-9.64-1.92-16.62-6.63-19.2-16.57-1.63-6.29-4.5-6.67-8.7-2-7,7.78-15.56,9.27-25.52,6.94a149.06,149.06,0,0,0-26.67-4c-14.64-.7-26-5.55-30.71-19.41-1.64-.75-2.47-.85-2.86-.3-7.84,11.1-17.95,15.12-31.85,13.44-12.12-1.47-24.63-1-36.93.23-8.16.82-13.06-3.82-17.12-9.91s-.17-10.71,3.13-15.33c2.32-3.25,4.94-6.31,7.15-9.63,4-6,9.22-9.44,16.7-8.88,6,.45,8.9-1.86,7-8.28-2.35-7.77.16-14,5.2-20.23q12.6-15.51,24.52-31.59c4.58-6.19,9.84-10.8,18.29-9.93,5.59.58,8-2,7-7.71-1.64-9.35,2.18-16.79,8.08-23.7,7.79-9.12,15.34-18.44,23-27.64,5.35-6.4,11.37-10.06,19.86-8.85,5.26.75,7.65-1,5.94-6.66-2.52-8.3.56-14.65,6.41-20.68,8.11-8.36,15.74-17.18,23.65-25.75,8.56-9.27,17.82-13.73,30.78-8.83.66-4.46-.12-8.35,0-12.18.18-4.94,1.73-9,5.6-12.3,11.74-9.86,23.52-19.63,36.46-28,6.22-4,12.21-5.16,18.74-1.61,4.48,2.43,7.26,2.73,7.57-3.73.44-9.09,5.87-14.55,14.21-17.35,11.37-3.81,22.47-8.35,34.16-11.26,8.4-2.09,16-1.79,22.08,4.94,4.09,4.52,6.56,3,8.95-1.45,4-7.49,10.62-10.87,18.87-11,10-.2,19.94-.5,29.88-2,14.82-2.18,26.34,2.12,31.16,18.72,6-12.54,14.65-17.58,27.85-15,11.43,2.2,23,3.64,34.48,5.86,8.4,1.63,15,5.46,18.25,13.76,2,5.05,4.46,6.08,8.77,2.29,6.2-5.45,13.14-5.3,20.62-2.67,12.58,4.42,25.28,8.44,37.49,13.88,7.17,3.19,12.54,7.72,13.4,16,.61,5.81,3.15,6.59,7.92,3.92,7.18-4,14.18-2.75,20.83,1.39q16.57,10.28,32.46,21.6c5.7,4,9.67,9.25,9.27,16.7-.3,5.59,1.49,8.22,7.57,6.45,5.54-1.62,10.39.18,14.95,3.56,10.24,7.6,20.23,16.07,27,26.49,4.91,7.61,8.92,14.64,17.38,18.64,3.6,1.7,4.66,7.25,9.37,7.91,2.43-2.81.25-3.82-1.15-5.1-9.22-8.42-15.14-19.35-22.2-29.39-2.77-3.95-2.27-9-1.38-13.64.77-4,.35-6.83-4.56-6.31-9.32,1-15.67-3.8-21.71-10.07a167.17,167.17,0,0,0-19.65-17c-10.38-7.85-17.07-16.88-14-30.29-2.89-2.2-5-.23-7,.43-10.18,3.35-19.45,2.41-28.42-4a101.79,101.79,0,0,0-22.18-11.43c-13.39-5.23-24.88-11.74-25.28-27.88-4.6-.1-6.9,2.11-9.41,3.57-7.4,4.29-14.86,5.24-23,2.07a155.34,155.34,0,0,0-27-7.31c-14.63-2.85-27.17-7.74-29-25.33-5.11,2.32-7.27,5.83-10.28,8.33-6.26,5.2-12.95,7.66-21.25,5.87-11.11-2.4-22.55-.7-33.83-2.49-17.51-2.78-17.6-2.24-28.76-15.63-2.44.23-3.16,2.39-4,4-5.06,10.11-13.85,13.85-24.43,14.69-13,1-25.88,2.28-38.54,5.4-11,2.7-17.85-5.14-25.41-10.32-2.11,1.12-2.3,2.88-2.79,4.4-3.6,11-9.89,19-21.36,23.27-10.62,3.92-20.39,10-29.61,16.56-7.75,5.53-15.46,7.57-24.23,3.29-5.59-2.73-8.5-1.16-7.71,5.08,1.55,12.22-4.48,20.16-13.78,26.82-7.06,5.06-13.12,11.43-18.71,18-9,10.55-19.41,14.8-32.18,10.24-1.4.44-2,1-1.87,1.61,3.44,15.39-3.22,27-13.61,37.43a169.4,169.4,0,0,0-14.06,15.57c-8.27,10.62-17.73,18.66-31.86,12.32-1.3.87-1.66,1.47-1.42,2.13,5.05,14.09,1.48,25.76-9,36.26a130.36,130.36,0,0,0-16.8,21.09c-5.5,8.48-12.66,12.41-22.68,11.17-5.12-.64-8.9.08-6.42,6.74,4.27,11.46.21,20.48-7.52,29.1-6.88,7.68-12.88,16.18-18.7,24.7-5.58,8.17-12.46,12.94-22.62,11.27-6-1-6.44,1.23-5.38,6.55,4,20.17-4.42,32.23-24.84,36.5-3.92.82-7.85,1.51-11.75,2.41-20.48,4.73-20.48,4.72-36.44-7-.69,0-1.49.19-1.63.85-3.15,15.15-12.64,24.12-27,29.14-7.54,2.64-14.22,7.48-20.42,12.47-11,8.81-22.27,11.57-37,2.55,6.25,19.37-3.8,30.93-14.52,42.16a137.36,137.36,0,0,0-16.69,21.17c-4.87,7.65-11.09,12.28-20.56,11.43-6.31-.57-8.77,1.27-5.57,7.88,4.63,9.55,4.51,18.86-.92,28.58A105,105,0,0,0,360.32,1661c-3.47,14.12-10,24.61-25.48,26.78.65,4.78,4.17,6.72,6,9.71s4.31,5.89,5.17,9.6c4.71,20.33-7.06,44.59-25.87,53.35-5.22,2.44-10.4,2-15.54.09-4.32-1.64-6.23-.41-6.28,4.24-.12,10.81-5.86,17.81-15,22.92-6.68,3.72-13,8.13-19.34,12.42-9.1,6.17-18.06,8.48-28.55,1.12-4.07,26-26.78,26.91-44.44,34.39-4.53,1.92-9.17,0-13-3.16-2.45-2-5.43-4-7.38.09-6.15,12.77-17.12,10.24-27.75,9.32-3.33-.29-8.16-3.69-9.65,1.06s2.2,9.5,4.87,13.63c1.43,2.21,3.73.56,5.17-.73,6.16-5.53,13.66-6.12,21.43-6.76a107.79,107.79,0,0,0,25.41-5.22c6.58-2.21,13-2.73,19.07,1.71,3.74,2.76,6.46,2.94,7.66-2.6,1.38-6.38,6-10.13,11.55-13,10.71-5.4,21.54-10.58,31.84-16.77,6-3.61,12.53-5,19.13-2,5.06,2.28,6.45.3,6.93-4.36.81-7.89,5.43-13.05,11.84-17.53,10.1-7.05,20.6-13.57,30-21.56a23.34,23.34,0,0,1,6.8-4.14c1.63-.62,3.38-.87,4.72.34,1.78,1.6,1.31,3.66.3,5.49-2.32,4.22-6.11,7-10,9.64-3.54,2.43-4.66,5.46-.58,7.72,11.53,6.36,13.76,17.1,14.46,28.73.62,10.35,2.66,20.51,4.89,30.57,2.11,9.54.8,17.89-5.73,25.15-3.9,4.34-3,6.85,2.41,8.32,11.53,3.1,18.75,10.64,23.08,21.63a65.54,65.54,0,0,0,11.08,17.75c8.53,10.21,18.87,19.75,11,37.17,15.24-5.39,26.69-2.37,37.36,4.94a20.48,20.48,0,0,0,6.46,2.65c3.06.79,6.76,3.68,9.17.29,2.29-3.22-.56-7-1.39-10.5-1.08-4.54-4.29-3.14-7.15-2.34-4.24,1.18-7.91,0-11.21-2.62-9.66-7.63-19.57-14.9-27.18-24.88-4.45-5.84-6.44-11.72-3.65-18.53,1.88-4.6,1.45-6.8-4.11-6.69-8.08.16-13-4.75-16.12-11.45a180,180,0,0,1-12.71-38.88,18.34,18.34,0,0,1,5.88-18.18c3.64-3.3,4.25-5.55-.59-8-10-5-12.15-13.58-12.21-24.16-.08-12.56-1.61-25.09.35-37.66.51-3.29,0-7.06,2.6-9.4,14.18-12.7,23.77-29.78,39.56-41a21.84,21.84,0,0,1,16-4c4.94.59,6.82-1.16,6-6.11-1.39-8.41,2.3-14.66,8.24-20.31,9.41-9,17.11-19.52,26.49-28.58,6-5.85,12.14-10.4,21-9.2,5.12.69,6.78-1.43,5.23-6.29-2.63-8.25.36-14.73,5.78-21,8.94-10.32,18.13-20.43,26.38-31.35,4.92-6.51,11.27-10.28,19.77-9.47,5,.48,6.74-1.68,5.23-6.53-2.9-9.32.67-16.74,6.55-23.82,8.09-9.74,15.76-19.84,23.33-30,4.76-6.37,10.25-10.18,18.39-9.94,4.33.13,8.19-.71,7.27-6.66-.64-4.17,1.72-5.94,5.49-6.85,12.08-2.92,24.52-2,36.74-3.59,4.23-.54,7.33,2.57,10.19,5.53,2.5,2.58,3.52,6.4,7.78,8.83,9.4-21.63,28-12,43.69-12.55,6.21-.21,12.53,1.5,18.83,2.17,7.61.8,14.3,3.1,17.72,10.91,2.41,5.5,5.9,5.41,10.06,1.59,6.49-6,14-6.72,22.37-4.66,12.29,3,24.76,5.29,37.17,7.8,7.39,1.49,13.05,5.28,15.82,12.36,2.26,5.79,4.87,7.22,10.14,3,7.07-5.64,15.08-6.13,23.67-3.54,12.46,3.76,25.38,5.57,38.05,8.48,7.33,1.69,13.15,4.75,15.67,12.24,1.87,5.56,4.8,6.94,9.27,2.55,6.4-6.28,13.93-6.87,22.27-5.14s16.94,3.62,25.63,4.19c5,.32,8.74,3,11.28,7.3,2,3.45,3.53,7.19,5.57,10.62,5.36,9,5.21,17.7-1.51,25.94-3.9,4.78-4.21,8.12,3,9.42,11.18,2,17.23,9.22,19.81,19.92,4.07,16.82,9.53,33.32,11.13,50.7,1.22,13.29-16.25,29.29-29.15,25.85-5.15-1.37-5.73.45-5.85,4.47-.41,13.75-6.84,23.68-18.38,31.2-10,6.54-19,14.86-27.24,23.41-11.33,11.74-23.11,17.93-39.83,10.08-1,6.48-.17,12-.08,17.46.11,7.67-2.86,13.38-8.75,18.09a218,218,0,0,0-34.49,34.64c-6.43,8.08-14.07,12.48-24.92,11.83-10.56-.63-11,.15-8.15,9.63,3.49,11.6,2.15,22.16-3.9,32.64-7.33,12.69-14.59,25.48-20.44,38.93-4.25,9.76-11,15.52-21.51,17.14-4.82.74-10.46,1-7.43,9,1.16,3.06-1.61,4.61-4.9,4.33-2.9-.25-5.39-2.34-9.31-2.3,3.52,18-1.4,33.07-12.68,46.69a32.49,32.49,0,0,0-7.46,22.35c.32,7.53,3.76,9.27,10.36,5.38,2.75-1.62,5.3-5.25,8.7-2.36s1.4,6.8.28,10.24c-1.54,4.72-4.91,7.81-9.26,10-2.09,1-4.2,2-6.24,3.18s-4.57,1.26-5.94,4.95c13.84,9.63,16.47,23.65,12.32,39.41-1.89,7.17,6,8.75,7,14.08h8C751.13,2101.66,753.58,2099.23,752.33,2097.21ZM527.86,1539.62c-8.65,10.11-17.11,20.43-24.86,31.24-4.54,6.33-10,8.13-17.08,7.2-3.86-.51-7.7-1.2-12.74-2,.93,2.91,1.4,4.5,1.94,6.06,4.05,11.6,3.1,21.57-6.79,30.6-8.56,7.81-16.08,16.88-23.27,26-4.15,5.27-8.78,6.68-14.76,5.56-4.24-.8-8.42-1.9-13.5-3.07.24,5.82,2.16,11.44,2.64,17.19.43,5.16-.79,9.16-4.24,12.62-10.82,10.84-21.65,21.68-32.64,32.34-3.55,3.45-14.32,3.42-17.78.37-1.4-1.23-1.41-2.77-1.06-4.53a212.57,212.57,0,0,1,7.47-28c1.82-5.28,7-5.72,11.19-7.34,3-1.17,6.41-1.42,9.62-2.08,0-.69.15-1.51-.16-1.81-9.48-9.43-11.43-19.2-3.72-31.18,6.1-9.48,11.6-19.42,17.3-29.18,4.91-8.41,11.45-10.13,20.11-8.37,1.86.38,3.8,1.46,5.87.3.69-.23.91-.76.53-1.55-6.06-12.64-3.57-22.81,8-31.23a257.48,257.48,0,0,0,23.74-19.8c7.34-6.84,14.63-6.62,22.6-1.84l5,3c.57-.78,1.22-1.27,1.27-1.81,2.07-21.19,2.46-19.08,21-26.73,15.13-6.26,15.76-5.56,18.92,10.77C533.77,1529.26,532.36,1534.36,527.86,1539.62Zm23.67-31.86a28,28,0,0,1-19.19-1.26c5.23-4.29,11.46-5.05,17.46-6.41a4,4,0,0,1,5.18,3.33C555.24,1505.4,553.55,1507.21,551.53,1507.76Zm478,259.69a18.63,18.63,0,0,1,8.44-13.78,61.24,61.24,0,0,1,20.42-9.27c-5.6-4.92-10.84-8.8-15.21-13.49-11.14-12-10-7.09-9.1-26.15,7.67.65,12.45,6.46,19.53,11.34a81.61,81.61,0,0,1,2-26.67,13.63,13.63,0,0,1,7.68-9.71,473.75,473.75,0,0,1,50.38-21.78c5.42-2,9.59-.81,13.85,2.27a53.11,53.11,0,0,1,14.83,15.94c2.31-8.58,5-16.23,9.2-23.33,2.28-3.89,5-6.4,9.9-7.29,19-3.44,38.23-5.09,57.37-7.4,4.09-.49,7,1.21,9.77,3.84,5.84,5.52,10.77,11.7,13.93,21.44,3.82-10,7.94-17.32,13.46-23.82,2.92-3.44,6-5.47,10.91-5.62,18.65-.55,37.29-.47,55.94.07,4.07.12,7.07,1.27,9.36,4.51,3.45,4.9,5.75,10.44,8.63,15.59,6.75,12.07,1.24,20.6-6,29.24-.63.75-1.46,1.33-1.11,2.64,3.9,0,7.93-.46,11.81.09,11,1.55,13.25,5.41,13.05,13.73-.25,10.8-1.54,21.19-5,31.37-1.94,5.67-4.28,11.33-5.19,17.19-1.34,8.65-6.67,12.32-14.29,14.52-5,1.43-9.92.82-15.87,1.18,3.13,4.27,6.22,7.93,8.69,12,6.41,10.46,6.22,13.44-1.25,23.17-9.74,12.68-19.6,25.2-32.5,35-4.63,3.53-8.63,3.84-13.77,1.86-6.83-2.63-12.27-7.32-19.22-13.2.85,10.09.15,18.17-2.36,26.07-1.39,4.36-3.36,7.44-7.86,9.42a387,387,0,0,1-52.61,18.77c-4.38,1.21-7.67.34-11.15-2.06-6.6-4.56-11.6-10.54-16.19-18.87-2.85,8.87-5.46,16.23-9.66,22.93-2.84,4.53-6.19,7.25-11.68,8.12-18.4,2.93-36.9,4.86-55.42,6.76-4.36.45-7.63-1-10.63-4.13a45.26,45.26,0,0,1-11.61-19.31c-3.33-.72-3,2.14-3.88,3.59-1.77,2.81-3.31,5.77-5.09,8.58-5.76,9.1-13.12,13.62-24.81,12.53-16.21-1.51-32.61-1-48.92-1.34-3.23-.08-6.41.48-9.36-2.14-4.91-4.37-5.17-4.75-1-10.18,2.86-3.68,6.16-7.12,8.4-11.15,3.86-6.93,9.86-9.31,17.21-10a62.33,62.33,0,0,1,20.78,1.51,150.14,150.14,0,0,1-11.15-26.55,16.35,16.35,0,0,1,.62-12.48A204.52,204.52,0,0,0,1029.53,1767.45Zm-201.9,120.9c8-16.61,18.65-31.42,30.83-45.21,3.33-3.77,6.89-5.57,12.06-5.46,7.88.17,14.88,2.87,21.55,6.27,3-2.55.13-4.45-.13-6.48-.5-3.94-1.57-7.77-2.11-11.75-1.37-10.11,1.71-17.63,9.68-24.32a423.21,423.21,0,0,0,32.8-30.63c6.83-7.09,14-8.11,22.52-5,4.88,1.77,9.6,4,15.14,6.31a114.88,114.88,0,0,1-2.22-22.25c0-7,2.27-11.85,8-15.93,11.35-8.15,22.87-16,35.45-23.67,1.56,2.67,2.66,4.77,2.41,7.18-1.76,16.79-1.37,33.77-4.74,50.43-.79,3.91-2.28,6.45-5.93,8.38a54,54,0,0,1-19.81,6.1c3.76,5.1,8.32,8.71,11.32,13.64,3.59,5.9,4.35,11.1,1.33,17.69a314.62,314.62,0,0,1-25.75,45c-3.69,5.46-8.12,7.18-14.19,7.1-5.26-.07-10.3-1.61-16.37-2.42,2.44,7.27,5,13.7,4.91,20.71-.06,8.12-2.62,11.51-10.76,12.56A415.52,415.52,0,0,0,878.78,1907c-4.43,1.19-7.78.17-11.26-1.91a54.93,54.93,0,0,1-19-18c-2.64,12.38-5.64,22.73-11.64,32.4-6.26-7.06-8.3-15.52-11-23.65C825,1893.11,826.44,1890.8,827.63,1888.35Zm.35,36.14-23.06,10.93C806.33,1925.21,811.52,1922.48,828,1924.49Z"/><path class="cls-2" d="M883.62,1927.56h.23l-.11-.05Z"/><path class="cls-2" d="M883.46,1927.39l.27.13.31-.11-.6,0,0,.21.14,0Z"/><path class="cls-2" d="M758.36,2100.6c-.86-1.24-1.53-2.4-2.39-3.41-5.15-6.09-5.91-12.44-3.39-20.24,4.7-14.52,8.63-29.32,12.22-44.16,1.69-7,5.47-10.63,12.05-13,6.21-2.23,12.78-1.92,19.9-3.2-4.06-5.38-7.89-9.49-11.29-13.93-7.43-9.68-5.89-18.89-.51-28.62,3.15-5.7,8.8-8,13.92-10.86,3.83-2.13,7.46,1.25,11.14,2.41,5.08,1.6,8.8,5.66,14.18,8.31a52.86,52.86,0,0,1,3.14-22.27c1.22-3.32,3-5.81,6.35-7.18,16.25-6.65,32.42-13.52,49.8-16.85l0-.21.6,0,.11,0a5,5,0,0,0-1.31-.79c-10.85-1.35-20,4.37-29.63,7.53-16.39,5.36-33.4,10.64-31.59,33.24-5.29-.5-8-3.26-11.45-4.43-4.08-1.4-8-3.58-12.49-1.82-16.17,6.31-25.57,26.44-15.46,40.79,2.72,3.87,6.09,7.58,7.58,12a7.37,7.37,0,0,1-4.52,1.69c-13.57,1.28-22,7.89-24.47,21.94a242.4,242.4,0,0,1-6.81,27.11c-3.2,10.72-8.68,21.26-1.67,32.58,1.25,2-1.2,4.45-.33,6.79C753.41,2101.67,757.2,2103.56,758.36,2100.6Z"/><path class="cls-2" d="M737,2089.92c4.16-15.75,1.52-29.78-12.32-39.41,1.37-3.69,4-3.86,5.94-4.95s4.15-2.13,6.24-3.18c4.34-2.18,7.72-5.27,9.26-10,1.12-3.44,3.1-7.36-.28-10.24s-6,.73-8.7,2.36c-6.59,3.89-10,2.15-10.36-5.38a32.49,32.49,0,0,1,7.46-22.35c11.28-13.61,16.19-28.71,12.68-46.69,3.92,0,6.41,2,9.31,2.3,3.29.28,6.06-1.27,4.9-4.33-3-8,2.61-8.24,7.43-9,10.53-1.63,17.26-7.38,21.51-17.14,5.85-13.45,13.11-26.24,20.44-38.93,6-10.47,7.39-21,3.9-32.64-2.85-9.48-2.41-10.26,8.15-9.63,10.85.64,18.5-3.75,24.92-11.83a218,218,0,0,1,34.49-34.64c5.9-4.72,8.87-10.42,8.75-18.09-.08-5.44-.91-11,.08-17.46,16.73,7.85,28.5,1.66,39.83-10.08,8.26-8.55,17.2-16.86,27.24-23.41,11.54-7.52,18-17.44,18.38-31.2.12-4,.7-5.85,5.85-4.47,12.89,3.44,30.37-12.56,29.15-25.85-1.6-17.38-7.06-33.88-11.13-50.7-2.59-10.7-8.63-17.91-19.81-19.92-7.2-1.3-6.88-4.64-3-9.42,6.72-8.25,6.87-16.9,1.51-25.94-2-3.43-3.54-7.17-5.57-10.62-2.55-4.33-6.31-7-11.28-7.3-8.69-.56-17.16-2.43-25.63-4.19s-15.87-1.14-22.27,5.14c-4.48,4.4-7.4,3-9.27-2.55-2.52-7.49-8.34-10.55-15.67-12.24-12.67-2.91-25.59-4.72-38.05-8.48-8.58-2.59-16.6-2.09-23.67,3.54-5.27,4.21-7.88,2.77-10.14-3-2.76-7.08-8.43-10.87-15.82-12.36-12.41-2.5-24.88-4.78-37.17-7.8-8.39-2.06-15.88-1.3-22.37,4.66-4.16,3.82-7.66,3.91-10.06-1.59-3.42-7.82-10.11-10.11-17.72-10.91-6.3-.66-12.62-2.38-18.83-2.17-15.65.54-34.29-9.09-43.69,12.55-4.27-2.42-5.28-6.24-7.78-8.83-2.86-3-6-6.06-10.19-5.53-12.22,1.55-24.66.67-36.74,3.59-3.77.91-6.13,2.68-5.49,6.85.92,5.95-2.95,6.79-7.27,6.66-8.14-.24-13.64,3.58-18.39,9.94-7.58,10.14-15.24,20.24-23.33,30-5.88,7.08-9.44,14.5-6.55,23.82,1.5,4.84-.22,7-5.23,6.53-8.5-.81-14.85,3-19.77,9.47-8.24,10.92-17.43,21-26.37,31.35-5.42,6.25-8.41,12.73-5.78,21,1.55,4.86-.11,7-5.23,6.29-8.88-1.2-15,3.36-21,9.2-9.37,9.06-17.08,19.62-26.49,28.58-5.94,5.65-9.63,11.9-8.24,20.31.82,4.94-1.06,6.69-6,6.11a21.84,21.84,0,0,0-16,4c-15.79,11.2-25.38,28.28-39.56,41-2.62,2.34-2.09,6.11-2.6,9.4-2,12.57-.43,25.1-.35,37.66.06,10.57,2.19,19.13,12.21,24.16,4.85,2.43,4.23,4.68.59,8a18.34,18.34,0,0,0-5.88,18.18A180,180,0,0,0,372.81,1887c3.12,6.7,8,11.61,16.12,11.45,5.56-.11,6,2.09,4.11,6.69-2.79,6.81-.8,12.7,3.65,18.53,7.61,10,17.52,17.25,27.18,24.88,3.31,2.61,7,3.81,11.21,2.62,2.87-.8,6.08-2.2,7.15,2.34.83,3.49,3.69,7.29,1.39,10.5-2.42,3.39-6.11.5-9.17-.29A20.48,20.48,0,0,1,428,1961c-10.67-7.31-22.13-10.33-37.36-4.94,7.87-17.42-2.47-27-11-37.17a65.54,65.54,0,0,1-11.08-17.75c-4.33-11-11.56-18.52-23.08-21.62-5.45-1.47-6.31-4-2.41-8.32,6.53-7.26,7.84-15.61,5.73-25.15-2.22-10.06-4.26-20.22-4.89-30.57-.7-11.63-2.92-22.36-14.46-28.73-4.09-2.26-3-5.29.58-7.72,3.85-2.64,7.65-5.42,10-9.64,1-1.83,1.48-3.89-.3-5.49-1.34-1.2-3.09-1-4.72-.34a23.34,23.34,0,0,0-6.8,4.14c-9.44,8-19.94,14.51-30,21.56-6.41,4.48-11,9.63-11.84,17.53-.48,4.66-1.87,6.64-6.93,4.36-6.6-3-13.13-1.58-19.13,2-10.3,6.2-21.13,11.37-31.84,16.77-5.6,2.83-10.17,6.58-11.55,13-1.2,5.53-3.91,5.36-7.66,2.6-6-4.44-12.49-3.92-19.07-1.71a107.79,107.79,0,0,1-25.41,5.22c-7.77.65-15.27,1.23-21.43,6.76-1.44,1.29-3.74,2.93-5.17.73-2.67-4.13-6.37-8.83-4.87-13.63s6.32-1.34,9.65-1.06c10.63.92,21.6,3.45,27.75-9.32,2-4.06,4.93-2.14,7.38-.09,3.85,3.2,8.48,5.08,13,3.16,17.66-7.47,40.37-8.39,44.44-34.39,10.49,7.36,19.45,5,28.55-1.12,6.33-4.29,12.66-8.7,19.34-12.42,9.17-5.11,14.9-12.12,15-22.92.05-4.64,2-5.88,6.28-4.24,5.14,2,10.31,2.35,15.54-.09,18.8-8.77,30.58-33,25.87-53.35-.86-3.71-3.24-6.5-5.17-9.6s-5.38-4.93-6-9.71c15.52-2.17,22-12.66,25.48-26.78A105,105,0,0,1,370.7,1635c5.43-9.72,5.55-19,.92-28.58-3.21-6.62-.74-8.45,5.57-7.88,9.47.86,15.69-3.78,20.56-11.43A137.36,137.36,0,0,1,414.44,1566c10.73-11.22,20.77-22.79,14.52-42.16,14.76,9,26.07,6.25,37-2.55,6.2-5,12.88-9.83,20.42-12.47,14.35-5,23.84-14,27-29.14.14-.67.95-.89,1.63-.85,16,11.72,16,11.73,36.44,7,3.9-.9,7.84-1.59,11.75-2.41,20.41-4.27,28.84-16.33,24.84-36.5-1.06-5.32-.6-7.53,5.38-6.55,10.16,1.67,17-3.1,22.62-11.27,5.82-8.52,11.82-17,18.7-24.7,7.73-8.62,11.78-17.65,7.52-29.1-2.48-6.65,1.3-7.37,6.42-6.74,10,1.24,17.18-2.69,22.68-11.17a130.36,130.36,0,0,1,16.8-21.09c10.47-10.5,14-22.17,9-36.26-.24-.67.12-1.26,1.42-2.13,14.13,6.34,23.59-1.7,31.86-12.32A169.4,169.4,0,0,1,744.51,1270c10.39-10.4,17.05-22,13.61-37.43-.15-.66.47-1.17,1.88-1.61,12.77,4.56,23.2.31,32.18-10.24,5.58-6.56,11.64-12.93,18.71-18,9.3-6.66,15.33-14.6,13.78-26.82-.79-6.23,2.12-7.81,7.71-5.08,8.77,4.28,16.48,2.24,24.23-3.29,9.22-6.58,19-12.65,29.61-16.56,11.46-4.23,17.76-12.27,21.36-23.27.5-1.52.68-3.28,2.79-4.4,7.56,5.19,14.44,13,25.41,10.32,12.67-3.12,25.59-4.36,38.54-5.4,10.58-.85,19.37-4.58,24.43-14.69.83-1.66,1.55-3.82,4-4,11.16,13.4,11.25,12.85,28.76,15.63,11.29,1.79,22.73.1,33.83,2.49,8.3,1.79,15-.67,21.25-5.87,3-2.5,5.18-6,10.28-8.33,1.8,17.59,14.34,22.48,29,25.33a155.34,155.34,0,0,1,27,7.31c8.12,3.17,15.58,2.22,23-2.07,2.51-1.46,4.81-3.67,9.41-3.57.4,16.14,11.89,22.65,25.28,27.88a101.79,101.79,0,0,1,22.18,11.43c9,6.39,18.25,7.33,28.42,4,2-.66,4.08-2.63,7-.43-3.08,13.41,3.61,22.44,14,30.29a167.17,167.17,0,0,1,19.65,17c6,6.27,12.39,11.07,21.71,10.07,4.91-.53,5.33,2.28,4.56,6.31-.88,4.62-1.39,9.69,1.38,13.64,7.05,10,13,21,22.2,29.39,1.4,1.28,3.58,2.29,1.15,5.1-4.72-.66-5.77-6.21-9.37-7.91-8.46-4-12.47-11-17.38-18.64-6.73-10.42-16.72-18.89-27-26.49-4.56-3.39-9.41-5.18-14.95-3.56-6.08,1.77-7.87-.85-7.57-6.45.4-7.45-3.57-12.66-9.27-16.7q-15.9-11.28-32.46-21.6c-6.66-4.13-13.66-5.41-20.83-1.39-4.77,2.67-7.31,1.89-7.92-3.92-.86-8.24-6.23-12.77-13.4-16-12.21-5.44-24.92-9.46-37.49-13.88-7.49-2.63-14.43-2.78-20.62,2.67-4.3,3.79-6.81,2.76-8.77-2.29-3.21-8.3-9.85-12.13-18.25-13.76-11.45-2.22-23-3.67-34.48-5.86-13.21-2.54-21.82,2.5-27.85,15-4.82-16.6-16.34-20.9-31.16-18.72-9.94,1.46-19.88,1.77-29.88,2-8.24.16-14.83,3.55-18.87,11-2.38,4.42-4.86,6-8.95,1.45-6.09-6.72-13.68-7-22.08-4.94-11.69,2.91-22.8,7.45-34.16,11.26-8.35,2.8-13.77,8.26-14.21,17.35-.31,6.46-3.09,6.16-7.57,3.73-6.54-3.55-12.52-2.4-18.74,1.61-12.94,8.34-24.72,18.11-36.46,28-3.87,3.25-5.42,7.36-5.6,12.3-.14,3.83.63,7.72,0,12.18-13-4.89-22.22-.44-30.78,8.83-7.9,8.57-15.54,17.39-23.65,25.75-5.85,6-8.92,12.38-6.41,20.68,1.71,5.63-.68,7.41-5.94,6.66-8.49-1.21-14.51,2.46-19.86,8.85-7.69,9.2-15.25,18.52-23,27.64-5.9,6.91-9.72,14.35-8.08,23.7,1,5.74-1.45,8.29-7,7.71-8.44-.87-13.7,3.74-18.29,9.93q-11.89,16.08-24.52,31.59c-5,6.2-7.55,12.47-5.2,20.23,1.95,6.42-.9,8.73-7,8.28-7.47-.55-12.69,2.84-16.7,8.88-2.21,3.32-4.83,6.38-7.15,9.63-3.3,4.63-7.2,9.22-3.13,15.33s9,10.73,17.12,9.91c12.3-1.23,24.81-1.7,36.93-.23,13.9,1.68,24-2.34,31.85-13.44.39-.55,1.22-.46,2.86.3,4.75,13.86,16.07,18.71,30.71,19.41a149.06,149.06,0,0,1,26.67,4c10,2.33,18.52.83,25.52-6.94,4.2-4.67,7.07-4.29,8.7,2,2.58,9.94,9.56,14.65,19.2,16.57,8.82,1.76,17.84,3.07,26.26,6.17,14,5.14,26.1,3.36,36.7-7.32.51-.51,1.24-.45,3.1.42,1.89,16.11,14.3,20.36,28.83,22.34,9.23,1.26,18.31,3.59,27.48,5.36,4,.77,8,1.14,11.86-.21,3.68-1.28,6.43-3.71,6.83-7.81.42-4.32-2.4-6.68-5.86-8.4a19.81,19.81,0,0,0-11.72-1.78c-8.64,1.27-9.82-2.56-7.29-9.55,3.57-9.84.15-17.33-7.51-23.79q-16.43-13.85-32.73-27.85c-7.24-6.24-15-8.22-24.06-5.1-1.73.59-3.7,1.87-5.66.24-.73-2.67-.27-5.39.16-7.93,1.05-6.24-3.67-14.69,3.62-18.32,6.69-3.34,11.37,4.16,16.15,7.69,15.16,11.18,30,22,49.22,10,1,1.59,1.22,1.84,1.25,2.12a13,13,0,0,1-.64,3.92c-2.46,12.6-.68,23.62,10.18,32.28,7.32,5.84,12.81,13.62,18.11,21.26,11.07,15.93,22.16,31.39,45.2,27.83-2.73,12.3-2.06,14.72,5.44,15.61,13.37,1.57,27,2.78,35.92-10.8,3.14-4.79,5.37-4.58,8.52.22,5.35,8.15,12.33,11.77,22.95,9.87,10.1-1.81,20.39-3.23,30.63-4.37,11.06-1.23,18.93-6.06,22.33-16.93,1.78-5.68,4.17-5.88,8.18-1.85,7,7.06,15.14,7.17,24,3.66,10.25-4.06,20-9.06,30-13.62,8.65-3.94,14.33-9.58,14.66-19.48.21-6.1,3.08-6.74,7.67-3.83,7.26,4.6,14,2.74,20.53-1.57,3.34-2.19,6.86-4.16,10-6.64,8.18-6.5,18.78-10.9,20.32-23.29.29-2.3,2.41-3.2,4.55-3,4.29.38,7.84-2.67,12.94-3.25a98.41,98.41,0,0,1-17.1,21c-4.46,4.28-8.06,9-7.79,15.56.21,5.32-2.55,6.19-7,5-5.34-1.47-9.66.71-13.91,3.74-10.3,7.36-20.28,15.29-31.62,21-8.3,4.18-14,10-15.8,19.26-1,5.18-3.45,7-8.29,3.7-7.33-5-14.87-4.37-22.88-1.43a267.71,267.71,0,0,1-39.41,11.18c-8.52,1.71-14.95,5.42-18.76,13.18-2.49,5.06-5.29,5.54-8.81,1.18-6.09-7.57-13.6-10-23.1-7.44-4.8,1.28-10,.45-15,.5-9.67.09-19.36-.49-29,.23-15.92,1.2-23,12.91-17.46,27.65,3.07,8.1,7.13,16,8.82,24.42,2.83,14.11,11.81,21.78,24.43,26.5,1.82.68,4,.9,5.43,3.52-4.07,5.21-9.37,9.83-12.88,15.8-3.41,5.8-3.27,24.44,1.17,27.75,7.75,5.77,13.42-1.81,19.74-4.52,2.73-1.17,5.07-3.22,7.81-4.44,9.14-4.06,13.87-11.49,14.91-21,.78-7.09,2.7-9.2,8.94-4.46,9.66,7.34,19.69,7.6,31,3.09a207.07,207.07,0,0,1,46.38-12c8.85-1.31,15.35-5.79,20.29-13.14,2.2-3.27,3.44-7.21,6.42-9.8a4.17,4.17,0,0,1,3.44,2.08c8.57,12,19.74,15,34.19,12.35,11.34-2.05,23.27-3.34,34.75-2.56,15.48,1,26.43-4.52,34.73-16.91.88-1.32,1.73-2.89,4-2.76,3.13,2.86,4.82,7,7.46,10.36,4.6,5.93,10.23,9.09,18,9a290,290,0,0,1,51.67,4.46c11.13,1.87,19.79-1.06,27-8.85,4.65-5,7.47-4.42,9.93,1.65,4.28,10.55,12.46,15.53,23.43,17.89a282.75,282.75,0,0,1,42.24,12.16c11.69,4.51,22,4.34,31.89-3.34,5.87-4.54,7.83-1.66,9.06,4.19,1.85,8.83,5.75,16.19,14.92,19.8,17.72,7,34.36,16.19,50.79,25.73a25.86,25.86,0,0,0,18.14,3.33c19.19-3.16,19.57-2.58,14.2,16.27l-.28,1c-4.65,15.59-6.59,16.26-19.17,6.43-16.6-13-33.36-24.67-54.44-8.31-.62.48-1.3.26-2.07-.64a25.64,25.64,0,0,1-.23-6.55c.57-12.18-4.64-20.27-16.3-24.49-10-3.63-20.17-7.18-29.74-11.74-17.71-8.44-33.27-7-47.39,6.88-.54.53-1.24.43-2.58-.54.1-18.79-11.35-26.81-29.26-29-12.88-1.59-25.58-4.59-38.51-6-10-1.07-11.72,1.08-7.93,10.37,5.69,14,10.55,28.36,10.31,43.5-.21,13.81,1.63,26.5,10.29,37.64,4.05,5.21,2.7,8.07-3.7,9.61-11.49,2.77-18,9.86-20.16,21.95a92.59,92.59,0,0,1-13.22,34.36c-9.58,14.64-20.47,28.51-10.73,46.87-3.37,1.69-5.32.73-7.26.52-11.27-1.21-21.15.29-30.67,8.16-12.31,10.16-26.78,17.71-41.55,23.69-11.72,4.75-18.85,12.15-21.59,24-1.47,6.38-4,6.74-8.61,2.71-9.43-8.28-19.77-9.34-31.62-5.09-10,3.59-20.61,5.63-31.15,7.1-17.5,2.44-35,4.32-40.44,25.26-4.81-1.84-5.94-5.32-8.34-7.54-5.53-5.14-11.55-9.6-19.52-8.32-18.58,3-37.26,1.45-55.89,1.52-10.27,0-18,3.7-24,11.77-1.47,2-2,5.07-5.23,5.37-11.56-17.45-14.85-19.84-29.82-18.82-10,.68-19.85,2-29.87,2.06-6.9,0-9.95,4.08-10.54,10.8-.39,4.47,1.93,9-.18,14.93-14.42-9.92-25.58-4-36.23,5.89-5.36,5-11.75,8.76-17.85,12.83-2.77,1.85-6.46,3.5-7.28,6.61-2.49,9.44-6.48,14.95-17.43,10.69-2.57-1-5.66,1.45-8.32,2.88-1.76.94-3.42,2.15-5.45,2.41a3.62,3.62,0,0,1-4.39-3c-.49-2.16,1-3.11,2.73-3.35,11.8-1.59,19-10.67,27.56-17.25,11.77-9,12.84-13.65,8.48-28.58a5.45,5.45,0,0,0-.34-.44l-.95-.45h-.23l-.14,0c.43,2.87.74,5.77,1.34,8.61,1.47,6.86-.16,12.2-6.28,16.35A186.26,186.26,0,0,0,861.19,1966c-5.45,4.72-11,8.08-18.65,4.47.1,1.87.15,2.86.2,3.85.55,10.76,3.26,12.46,12.24,7.68a14.31,14.31,0,0,0,2.62-1.44c5.79-4.91,11.59-3.66,17.44-.17,1.4.84,2.78,1.7,4.71,2.88.23-2.54.41-4.47.59-6.4.66-7.34,3.51-12.72,10.36-16.87,9.64-5.83,18.55-13,27.36-20a14,14,0,0,1,12-3c6.12,1,11.81,3.37,18.4,6.55-1.22-7.74-2.46-14.25-2.2-20.91.17-4.39,1.44-6.62,6.34-6.75,12.62-.33,25.24-.92,37.83-1.85,6-.45,9.8,2,13.56,6.44,4.28,5,6.31,11.43,10.68,16.84,3.77-7.13,8-13,13.63-17.89a12.76,12.76,0,0,1,9-3.45c21.63.21,43.26.42,64.8-2,3.72-.41,6.08.86,8.92,3,6.08,4.61,9.89,11.28,15.77,17.42,2-8.74,6.24-14.95,11.22-20.78a14.18,14.18,0,0,1,9.2-5.26c21.05-3.17,42-7.15,62.39-13.22,3.56-1.06,6.22-.33,9.35,1.37,6.66,3.6,12.55,8.24,18.8,13.3,1.3-4.88,2.36-9,3.51-13.15,2.64-9.45,7.88-15.74,17.56-19.84,18.38-7.79,36.14-17.13,51.74-29.88,2.82-2.3,5.64-2.88,9.07-3.16,8-.65,15.79,1.45,23.95,1.86a163.55,163.55,0,0,1-4.1-17c-1.35-7.72,0-14,5.07-20.34a96.28,96.28,0,0,0,17.72-34.42c1.82-6.4,4.18-12.68,5.46-19.19,1.33-6.72,5.12-10.54,11.33-12.44,5.64-1.73,11.31-3.37,16.94-5,.07-3.44-2.82-4.65-4.14-6.85-6.3-10.46-14.13-20.06-12.63-33.7,2-18.09-3.75-34.87-10.3-51.39-.76-1.93-3-3.67-1.22-6.49a545.19,545.19,0,0,1,58,9.37c5.42,1.21,8.55,4.07,11,9,3.39,6.93,4,14.38,4.72,23.93,7-8.61,14.38-13.61,22.22-17.95A10.9,10.9,0,0,1,1473,1662c18,6.07,35.88,12.38,53.34,19.89,4.79,2.06,7.07,5.27,8.56,10.1,2.3,7.47,1.25,15,1,23.55a78.49,78.49,0,0,1,21.5-11.54c5.39-1.89,10-1.78,15.06,1.32,10,6.07,19.79,12.22,28.35,20.29,5,4.75,7.07,4.2,11.08-1.3,2.63-3.62,3.62-7.89,4.62-12.05,1.89-7.83,4.56-15.62,3.66-24.58-8,2.76-15.83,2.08-23.28,3.82-4.17,1-7.64-.26-11.3-2.35-17.94-10.24-36.19-19.9-55.25-27.9a14.79,14.79,0,0,1-8.62-8.77c-2.77-6.67-3.22-14-6-21.09-6.36,5.44-12.55,9.85-19.7,12.8a12.9,12.9,0,0,1-9.55.4c-20.31-6.45-40.59-13-61.38-17.77-3.95-.91-6.22-3.1-8.42-6.21-4.17-5.89-6.77-12.58-10.25-21.27-3.45,7-7.91,10.42-11.93,14.26-5.09,4.85-10.56,6.65-18.08,5.4-19.33-3.22-38.84-5.56-58.51-5.52-4.08,0-6.79-1.45-9.53-4.21-5.36-5.38-8.47-12.4-13.57-18.77a65,65,0,0,1-14.89,19.4c-2.28,2.07-4.62,3.52-7.94,3.52-20.65,0-41.11,2.67-61.58,4.88-5.26.57-8.86-.86-12.49-4.25-4.93-4.61-9.1-9.93-14.06-16-2.19,8.23-6,14-10.27,19.56-2.21,2.88-4.64,5.66-8.65,6.3a367.83,367.83,0,0,0-64.67,16.78c-3.15,1.11-5.78.47-8.62-.73-7-3-13.2-7.25-19.12-11.63-2.42,1.87-1.46,4-1.75,5.87-1.87,12.18-4.76,23.42-18.51,28-5.28,1.78-9.93,5.37-14.9,8.08-2,1.08-3.82,2.86-6.39,1.53-3.35-24.58-10.13-21.45,17.82-46.38-9.82-2.06-17.91-6.44-25.89-11.1a12.1,12.1,0,0,1-6-7.44,339.88,339.88,0,0,0-15-41.26c-.66-1.46-1.48-2.7-.67-4.6,2.72-6.33,12.61-12.91,19.62-13,12.31-.16,24.77,1.39,36.89-1,14.81-2.86,25.86,1.59,34,14.07.13.21.62.19,1.38.39,1.23-2.5,2.44-5.12,3.79-7.67,3.88-7.35,9.07-12.32,18-13.77,12.8-2.07,25.75-4.76,37.47-10.3,11.35-5.37,20.34-2.68,29.26,4.31,1.07.84,2.06,1.65,3.87,1.37.39-2.45.72-5,1.23-7.58,1.77-8.81,5.23-15.83,14.38-20a110.65,110.65,0,0,0,26.84-17.24c8.39-7.33,16.84-11.58,27.1-5.21a4.85,4.85,0,0,0,1.07-4.56c-1.1-8.21,1.28-14.82,7.85-20.3s11.9-12.52,17-19.58c1.38-1.93,3.53-3.2.4-5.5-2.32-1.7-4.06-1.86-5.92.46-2.92,3.65-6.34,5.69-11.27,3.84-1.68-.63-3.49-2-6-.58a23.2,23.2,0,0,0,0,3.63c1,6.76-1.81,11.33-7.42,15-7.54,4.9-15,10-22,15.58-6.6,5.28-12.75,4-19.31.5-2.7-1.43-4.6-5-8.62-3.55-.33,5.49-.49,10.79-1.92,16a13.2,13.2,0,0,1-7.2,8.94c-12.79,6.48-25.77,12.45-39.14,17.67-5.74,2.24-10.31,1.61-14.64-2.4-3.61-3.34-7.16-6.75-10.95-10.33-1.67,4.61-3.26,8.85-4.74,13.14-2.68,7.8-8.1,11.45-16.3,12.34-11.88,1.29-23.74,3.06-35.51,4.94-10,1.6-14.82-3.17-19.64-9.85-2-2.75-2.57-6.53-6.05-8.76a53.09,53.09,0,0,1-10.4,15.2c-1.79,1.92-3.64,4.45-6.39,4.43-9.75-.08-19.6.46-29.21-1.83.93-5.68,5.32-8.4,7.63-13.62-9.53.52-17.89-1.11-26.23-2.8a16.16,16.16,0,0,1-11-7.56,270.07,270.07,0,0,0-37.6-45.21,11.64,11.64,0,0,1-3.9-8.64c-.26-8.3.22-16.5,5.16-26.23a109.28,109.28,0,0,1-24.87,7.31c-5.11.9-9.51.27-13.91-3.19-8.63-6.78-18.08-12.53-26.61-19.42-4.55-3.67-8.29-.78-12.1,0-3.14.67-2.35,4.41-2.1,6.94a90.08,90.08,0,0,1-1,27.15c6.71-1.09,12-4.08,18.06-4.35,3.4-.15,6.32-.15,9.31,2.22,14.89,11.79,29.52,23.84,42.75,37.53,2.92,3,3.26,6,3,9.88-.52,6.67-3.51,12.61-5.17,18.7,2.07,1.59,3.59.47,5.13.11a45.56,45.56,0,0,1,16.89-.28c4.32.62,7.47,3,8.24,7.49.41,2.39-6.34,6.74-10.07,6.52a55.58,55.58,0,0,1-7.87-1.31c-11.41-2.34-22.71-5.69-34.23-6.83-12.36-1.22-16.85-9-20-19-.62-2,.66-4.63-2-6.43-4.41,3.59-8.2,7.73-12.67,11.13-5,3.79-9.81,4.67-15.79,3-9-2.54-18.09-4.52-27.18-6.58-23.32-5.28-23.33-5.24-31.22-28.13a92.48,92.48,0,0,1-14.82,13.29,13.07,13.07,0,0,1-10.26,2.47c-15.74-2.68-31.47-5.41-47.29-7.56a13.55,13.55,0,0,1-9.75-5.85c-3.72-4.87-5.38-10.81-8.49-17.53a69,69,0,0,1-13.88,16.22c-3.23,2.76-6.29,3.69-10.75,3.5-14.64-.59-29.38-1.08-44,0-8,.61-12.38-2.84-17-7.78-2.91-3.11-3.54-5.85-.47-9.45a143.37,143.37,0,0,0,11.39-15.16c3.31-5.12,7.88-6.56,13.52-6.65,3.93-.06,7.9,1.55,12.1-.28-.87-3.52-1.51-7.1-2.64-10.51-2.2-6.64-.69-12.05,3.76-17.48,9.5-11.57,18.66-23.45,27.62-35.45,3.53-4.72,7.62-6.82,13.46-6.45,4.08.26,8.29,1.26,12.7-.13-.72-2.4-1.32-4.29-1.85-6.19-2.48-8.82-2-16.58,5.06-23.84a200.75,200.75,0,0,0,22.32-26.8c7.32-10.81,16.32-13.47,28.12-9.7a2.5,2.5,0,0,0,3-.91,56.75,56.75,0,0,1-3-15.19,13.45,13.45,0,0,1,4-10.77c11-11.14,21.92-22.36,32.51-33.89,3.88-4.22,8-5.53,13.32-4.34,4.3,1,8.6,1.87,13.72,3-2-5.47-1.65-10.13-1.9-14.75a12.83,12.83,0,0,1,4.92-11.35,458.1,458.1,0,0,1,39-29.56c3.17-2.11,5.9-2.21,9.33-1.23,5.12,1.46,9.16,5.18,14.84,7.15,0-3.66-.24-6.65,0-9.58.77-7.76,3.65-13.56,12-16.4,9.44-3.2,18.61-7.34,28.33-9.67,21.8-5.21,17.36-6.07,31.7,8.92a5.81,5.81,0,0,0,1.5.84c.34-.18.77-.26.9-.5.78-1.46,1.56-2.93,2.21-4.45,4.07-9.49,10.55-14.33,21.56-14.28,8.56,0,17.31-1,25.86-1.1,23.05-.19,19.08-4.79,32.33,16.93.13.21.46.31.92.6,2.63-3.36,4.89-7,8.08-10,4.29-4,8.46-6.69,15-5.24A259,259,0,0,0,1099,1146c15.09,1.49,26.3,6.86,27,25.29,4.47-3.63,7.6-6.57,11.12-8.92,3.83-2.56,7.68-4.76,12.94-3,15.45,5.3,30.83,10.71,45.85,17.16,3.68,1.58,5.53,4,6.74,7.87,1.55,4.94,1.23,10.19,2.15,15.49,5.1-2.57,9.13-4.8,13.32-6.66a12.52,12.52,0,0,1,12.33.7c13.44,8.08,26.36,16.9,39,26.15,3.47,2.54,5.31,5.66,4.94,10.19-.34,4.25-.07,8.54-.07,13,2.46-.7,4.71-1.26,6.91-2,7.24-2.34,13.48-1.42,19,4.39,6,6.25,12.4,12.08,18.82,17.89,6.14,5.55,11.49,11.22,6.2,21.75,10.12-3,15.6,1.28,20.42,8.09,6.77,9.57,8,9.25,13.62-1.42.24-.45,0-1.14,0-2.6-7.76.26-11-5.43-14.47-11.35a64.85,64.85,0,0,0-9.37-12.92c-6.42-6.59-7.41-13.68-4-21.88.56-1.37,1.5-2.92.27-4.56-4.32,0-8.65-.15-13,0a11.66,11.66,0,0,1-9.72-3.92,278.47,278.47,0,0,0-32.64-29.36c-3.37-2.59-4.81-5.81-5.63-10-1.21-6.27.89-12.31.69-19-4.94,2-9.16,3.95-13.6,5.38-7.46,2.41-13.91,1.78-20.73-2.59a173.29,173.29,0,0,0-34.81-17.38c-9.32-3.34-12.51-10-14.18-18.65-.58-3,.71-6.44-1.42-9.3-4.78,3-9.18,5.32-13.17,8.24-6,4.39-12,4.47-18.76,1.92-11.23-4.23-22.78-7.87-34.59-9.67-12-1.82-18.14-8.4-21.15-19.34-.55-2-.28-4.51-2.45-6.15-4.58,4.09-9.22,7.85-13.39,12.08s-9.07,5.1-14.6,4.3c-14.84-2.15-29.82-2.34-44.77-2.74a14.7,14.7,0,0,1-11.29-5.22c-3.88-4.3-6.58-9.42-9.33-15.13-3.86,5.66-6.86,10.45-10.25,14.94-3.25,4.3-7,7-13.17,7.48-13.56,1.06-27.37,1.87-40.42,5.74-10.71,3.18-17.91-.92-25-7.61-1.9-1.79-2.9-4.53-6.53-5.69-1.39,7.23-4.31,13.87-7.36,20.49a12.1,12.1,0,0,1-6.79,6.76c-15.47,6.36-29.75,14.95-43.56,24.29-3.35,2.27-6.26,2.61-10.19,1.81-6.07-1.24-11.27-4.89-17.57-6.27a174.07,174.07,0,0,1-.09,19.6,13.34,13.34,0,0,1-5.18,10.18,469.91,469.91,0,0,0-35.31,32.41,11.87,11.87,0,0,1-8.82,3.64c-6.37.18-12.32-1.42-19.19-4,1.05,6.77,2.14,12.59,2.56,18.48s-1.32,10-5.41,14.11c-7,7.08-13.41,14.78-20,22.26-16.81,19-10.56,18.35-37.92,14.1,1.8,6.52,3.66,12.79,4.27,19.37.36,3.92-.26,7-2.81,10.09q-15.18,18.54-29.93,37.41c-2.71,3.45-6,4.87-10.24,5.09-5.9.32-11.59-1.31-17.81-2.11,1.67,5.85,3.62,10.74,4.58,16,1.17,6.37.14,11.38-4.07,16.52-9.07,11.07-17.7,22.51-26.11,34.1-3.3,4.55-7.22,6.22-12.61,6.55s-10.34-1.68-15.42-2c-.81,2.33.51,3.6,1,5.06,4.28,11.87,5.5,23-5.19,32.76-3.06,2.8-5.64,5.11-9.84,5.91-10.13,1.93-20.23,4.06-30.22,6.61-4.26,1.09-7.56.32-11.34-1.64-5.55-2.87-9-8.31-14.48-11.51-2.12,5.91-4.09,11.21-5.93,16.55-1.94,5.65-5.47,9.32-11.16,11.79-11.93,5.17-24,10.72-33.8,19.19s-19.24,6.92-29.52,2.7c-1.76-.72-3.12-2.42-5.83-2,1.54,6.86,1.56,13.82,1.33,20.78-.11,3.36-.82,6.37-3.46,9a256.42,256.42,0,0,0-31.75,38.44c-2.88,4.27-6.63,6-11.59,6.67-5.4.73-10.82.18-16.69,0,2.32,5.62,4,10.29,6.12,14.74,3.27,6.84,2.78,13.21-.78,19.88a153.26,153.26,0,0,0-13.93,36.31c-2.37,9.87-8.29,14.61-17.11,17.22-3,.9-6.09,1.66-9.07,2.46.35,3.08,2.6,4.28,4.2,5.85,8.65,8.46,10.72,17.82,10,30.41-1,16.92-10.74,25.26-22.36,33.91-4.25,3.17-8.27,3.91-12.94,2.28-4.15-1.45-8.21-3.18-12.72-4.95,0,4.85.19,8.84,0,12.8-.4,6.63-2.76,11.9-9.15,15.39-7,3.82-13.31,8.88-20.17,13-17.58,10.44-13.37,12.67-34.14.9-.33,3.41-.57,6.6-.95,9.77-.9,7.49-4.14,12.93-11.87,15.56-7.55,2.57-14.7,6.27-22.17,9.09-13.55,5.11-13.6,5-23.74-6-.56-.61-1-.87-2.21-.2-1.39.89-1.55,3.07-2.19,4.83-3,8.41-8.92,11.94-17.68,10.71-5.26-.74-10.49-1.72-15.75-2.47-5-.72-8.6,2.43-6.8,6.38,2.93,6.44,5.33,13.26,9.79,19.37,6.89-7.77,14.3-12.31,24.65-12a54.2,54.2,0,0,0,22.53-3.8c11.06-4.64,20.52-3.23,29.37,4.52.28.24,1.14-.19,1.85-.33,1-10.85,5.66-18.38,16.79-22.14a85,85,0,0,0,22.07-11.55c10.14-7.31,19.84-8.14,30.29-1.46.73.46,1.3.24,1.8-1a58,58,0,0,1,1.59-13.14,12.32,12.32,0,0,1,5.26-8c13.12-9.12,26-18.57,39-27.82,1.34-.95,2.56-3.63,5.21-.8-3.18,9-13.22,10.79-19.29,17,4.25,3.18,7.86,6.14,11.73,8.72,6.38,4.24,8.65,10,9.11,17.65.77,12.92,2.14,26,5.8,38.4,3,10.2-.87,17.3-7,24.36-1.68,1.94-4.52,2.85-5.26,6.18,4.57,1.68,9.08,3.57,13.73,5a22.94,22.94,0,0,1,15.47,14.17c3.65,9,9.21,17,15.2,24.58,13.1,16.65,13.12,16.64,10.52,36.69,4-.91,7.75-1.88,11.58-2.65,7-1.43,13.6-1.43,19.72,3.67,5.41,4.5,12.22,6.74,19,8.55,2.11.56,4.57,2.46,6.52.25s3.09-5.39,1.33-8.28c-2.84-4.66-2.74-10-3.54-15.46-1.72.83-3,1.29-4.09,2-5.83,3.64-11,3.36-16.2-1.6-6-5.74-13.23-10.33-18.63-16.54-12.83-14.76-15.1-10.27-6.49-30.83a3.55,3.55,0,0,0,.06-1.08c-2.48-1.3-5.13-.32-7.66-.32-7.86,0-13.1-2.92-15.9-10.85-3-8.46-6.33-16.8-9.23-25.32-4.77-14-6.66-26.83,10.94-35.12-6.44-3.15-11.49-5.59-15.79-9.23-2.32-2-4.28-3.86-4.39-7.36-.34-11-.76-21.94-1.72-32.86-.39-4.41,3.41-7.56,2-12.32-2.44-8.4,2.15-13.59,9.36-17.45,2.76-1.48,10.89-1.31,4.37-8.38-.9-1,1.54-2.61,2.69-3.68,5.85-5.44,12.46-10.23,17.52-16.31,8.21-9.87,17.74-11.8,29.25-7.57.46.17,1.15-.31,1.81-.52,1-2.35-.73-4.35-1-6.55-1-8.54-.29-16,7.24-22.32s14-14.25,20.74-21.58c14.55-15.73,14.52-15.76,34.55-14.21-.66-3.24-1.24-6.41-2-9.54-1.69-7.24-.7-13.3,4.92-19.1,7.62-7.85,15-16.19,21-25.29,8-12.16,17.89-18,32.47-14.41.24.06.58-.29.94-.49-1.1-4.77-2.23-9.56-3.29-14.36a12.16,12.16,0,0,1,2.62-11.1c9-11.11,18.67-21.87,26.17-34,7.18-11.58,16.53-12.84,28.07-10.6.5.1,1.13-.48,1.78-.79,0-4.18-3.86-7.71-2.21-12.57,11.59-2.8,23.68-2,35.47-3.78,1.31-.19,2.67.05,4-.1,3.41-.39,5.73,1.41,7.66,3.83,3.29,4.14,6.48,8.37,9.94,12.85,3.26-4.22,6-8.69,9.63-12.46a13.47,13.47,0,0,1,11.68-4.18c11.59,1,23.19,1.76,34.77,2.86,18.78,1.78,18.76,1.87,27.05,19.29.21.45.92.67,1.48,1,3.18-1.47,4.55-4.76,7.06-6.91,5.25-4.51,10.42-7.4,18.05-5.43,14.81,3.82,29.87,6.74,44.86,9.85,3.56.74,5.71,2.52,7.64,5.6,3,4.73,4.36,10.2,7,15.38,3.11-2.6,5.66-4.68,8.15-6.84,5.63-4.89,11.46-6.72,19.21-4.39,11.13,3.35,22.57,6.48,34.08,7.56,14.12,1.33,21.47,8.58,24.73,21.5.12.47.79.79,1.24,1.22,2.82-.74,4.14-3.31,6-5.07,6.46-6,13.29-9.56,22.47-6.32,4,1.42,8.57,1.26,12.68,2.48,6.64,2,15.11-.54,19.89,4.68s6.94,12.77,10.44,19.2c2.31,4.23,1.8,7.92-.25,12.21-2.85,6-7.68,10.6-11.23,17a68.51,68.51,0,0,1,13.51,2.08c8.24,2.31,13.81,6.44,16,15.6,3.58,14.86,7,29.79,11,44.53,3.62,13.48-2,21.47-12.14,28.24-1.65,1.1-4.13,1.57-5,3.06-2.12,3.48-4.39,1.78-6.83,1-3.53-1.13-6.34-4.59-11.28-3.76,1.65,6.47.32,12.33-.34,18.24a20.11,20.11,0,0,1-8.69,14.85,424.58,424.58,0,0,0-43.27,36.89c-5.09,4.95-10.26,6.43-17.08,5.34-5.69-.91-11.08-3.29-18.66-4.83,3.82,6.52,3.68,11.87,4.08,17.12.58,7.63-1.31,14-7.63,19.37-14.72,12.54-27.82,26.8-40.62,41.26-3.49,3.93-7,5.6-12,5.51-6.79-.12-13.59,0-22,0a58.55,58.55,0,0,1,6.84,19.25c1,5.11,2.12,10.27-.74,15.55q-14.72,27.23-28.76,54.82c-2,4-4.84,5.82-8.82,7.24-6.61,2.36-13.51,2.75-20.26,3.52-.53,3.2,2,4.4,3,6.35s3.14,3.61,1.52,6.17c-5.77.34-9.57-4.93-15.36-5.92.34,4.16.57,7.46.88,10.76,1.23,12.85.36,24.61-9.71,34.84-7.51,7.63-11.55,17.82-11.79,29-.09,4.15,0,8.74,4.5,10,3.85,1.09,8.66,2,11.31-3.32,1-2.06,2.84-3.69,6.31-2.63-.61,7.48-2.32,14-10.44,17.14-5.43,2.12-10.66,4.76-16.73,7.51,14.67,10.12,21.68,22.52,16.41,39.7a4.65,4.65,0,0,0-.05,1c-.74,10.22.25,11.8,9.33,15C743,2098.67,735.06,2097.09,737,2089.92Z"/><path class="cls-3" d="M1318.12,16.34c-4.28,2.22-5.19,4.62-2.57,8.61,3.14,4.77,2,9.46-.33,14.22-4.77,9.95-11,19-16.45,28.57-6.18,10.76-15,14.42-26.82,12.56-2.24-.35-4.45-1.51-7.69-.48,9.19,17.9,1.79,30.07-13.42,40.27-9.38,6.29-18.53,13-27.8,19.5-10.39,7.29-19.84,6-29.63-.45-1.64-1.07-3.05-2.66-5.24-2.67a1.83,1.83,0,0,0-1.25,1.45c-.73,16.85-9.35,26.66-25.74,30.9-12.55,3.25-24.7,8-37.22,11.53-10,2.83-17.51-.16-24.18-7.35-6.5-7-6.8-7-11.36,1.67-5.56,10.62-13,16.15-26,16.41s-25.88,1.56-38.87,1.49c-15.75-.09-20.23-3.13-26.32-17.85-.5-1.21-.71-2.59-2.57-3.82-4.23,2.05-7,6.36-10.61,9.52-6.05,5.24-12.64,6.95-20.39,4.49-12.1-3.84-24-8.19-35-14.57-18.21-10.53-20-14.9-14.52-34.62C889,138.18,883.23,134.36,875,110c-.43-1.26-.72-2.57-1.18-3.82-2.84-7.7-5.41-8.32-11.11-2.69-.71.7-1.31,1.51-2,2.25-9.9,11-9.95,11.05,2.49,18.7,5.61,3.45,9.5,8.36,12.58,13.94C883.7,152.67,895,164,908,173.47c9.42,6.84,16.28,14.63,17.64,26.46.62,5.36,3,7.18,7.9,4,12-7.74,24.38-6.31,37.42-2.63,14.12,4,28.94,5.12,43.5,5.67,11.12.43,19.43,3.83,25.2,13,3.4,5.44,6.06,5.09,9.2-.07,7.28-12,18.25-16.3,32-16.89,13-.56,25.69-3.78,38.29-7,6.7-1.72,12.12-1,16.62,5.29,5.79,8.1,9.08,10.46,14.93,6.77a2.59,2.59,0,0,1,1-.69,42.7,42.7,0,0,0,3.83-3.12c7.54-6.79,15.32-6.75,23.92-7,7.42-.18,14.55,1.47,21.77,2.74s12.48,4.78,14.3,12.1c1.42,5.71,4.08,7.13,9.09,3.76,7.5-5,14.91-3.79,22.72-.22,11.52,5.26,23.07,10.43,34.36,16.17,6.8,3.46,11.37,8.18,10.87,16.3-.37,6.09,2.18,6.83,7.15,4.47,8.49-4,15.07-1.29,21.28,5.36,8.19,8.77,16.9,17,23.18,27.39,4.35,7.2,5.86,14.23.69,21.43-3.1,4.33-2.36,6.15,2.89,7.2,8.49,1.7,12.66,7.72,14.91,15.72,3.82,13.53,5.33,27.46,7.5,41.27,1.11,7.06-2.06,12.37-7.43,16.41-4.15,3.12-5.21,5.6-.17,8.91,7.48,4.91,9,11.8,8.49,20.73-.81,13.32-2.23,26.51-3.8,39.73-.91,7.7-3.9,13.28-11.33,16.06-5.06,1.89-5.9,4.52-2.1,8.78,6.09,6.82,6.76,14.74,4.55,23.42-3.46,13.56-7.46,27-10.63,40.61-1.6,6.87-6.19,10.85-12.35,13.35-5,2-7.41,4.92-3.07,9.59,7.35,7.91,8.26,17.38,6.07,27.07-3,13.08-.43,25.93,1,38.71.89,8-.47,14.5-5.7,20.25-3.91,4.3-5.08,7.57,1.65,10.28,9.07,3.64,13.43,10.85,16.05,20.21a207.56,207.56,0,0,0,12.87,33.57c4.1,8.56,5.72,17.06.42,25.72-2.57,4.2-2,6.64,3.47,7.22,9.41,1,15.26,6.73,20.28,14.5,8.49,13.13,17.29,26.17,30.26,35.58,6.22,4.51,7.61,11.53,9,18.4.94,4.7,2.16,7.82,7.66,4.43,8.92-5.49,18.18-4.89,27.93-2.11,11.87,3.39,24.06,5.61,36.5,4.86,9.18-.55,17.14,1.35,23.22,8.82,3.6,4.43,7.1,4.54,9.92-1,4.45-8.67,11.88-12.81,21.14-15.15,12.94-3.28,25.21-8.65,37.33-14.22,7.12-3.27,13.93-4.36,20.75.53,4.45,3.19,7,2.23,8.33-3.35a22.21,22.21,0,0,1,11.08-14.77,14.31,14.31,0,0,0,4.55-3.87c2-2.69,4.56-5.79,2.25-9-2.61-3.61-6-1.25-8.88.42-11.82,7-24.81,11.42-37.06,17.42-8.82,4.31-16.61,4-24.22-1.78-4.3-3.29-7.05-3.39-8,2.71-1.78,11.77-9.78,16.51-20.49,18.7-6.87,1.41-13.81,2.3-20.73,3.22-19.94,2.66-24.12.34-33.4-17.29-2.8,2.39-4.92,5.41-7.67,7.84-5.17,4.57-10.72,6.06-17.53,3.9-9.92-3.13-19.37-7-28.08-12.81-15.34-10.18-16.07-11.94-10.61-32.08-20,5.35-26.65-8.79-33.76-22.3-2.64-5-4.9-10.23-7.62-15.19-6.69-12.16-8.82-23.87,3.14-34-2.61-3.36-5.85-3.32-8.57-4.09-8.12-2.3-13.08-7.41-15.57-15.4a276.7,276.7,0,0,1-9.12-39.91c-1.28-8.2,2.91-13.48,9-17.52,4.93-3.27,4.68-5.47-.11-8.48-8.79-5.54-10.78-13.83-8.89-23.53,1.21-6.21,2.79-12.38,3.44-18.68.72-7,6.26-9.21,10.74-13.16,3.78-3.33-3.41-11.55,2.38-15.42,7.2-4.81,11.89-9.74,15.08-18.71,3.85-10.83,17.69-13.24,27.94-7.39,4.83,2.76,6.27,1.2,7.85-3.06,3.06-8.25,9.35-11.57,18-11.41s17.33-.1,26,0c22.26.38,19.48-2.62,34,16.64,8.18-14.69,21-12.84,34.19-9.87a188.43,188.43,0,0,0,27.68,4c9.69.7,17.38,4.34,21.78,13.33,2.32,4.74,4.6,4.77,7.92.92,6.74-7.79,15-9.67,25.24-7.89a112.22,112.22,0,0,0,35.86.16c9.5-1.44,17.14.21,23.76,6.82,3.58,3.58,6,4.63,8.53-1.19,4-9,11.32-14.13,20.71-17.43,12.24-4.3,24.21-9.55,35-17,7.26-5,14.78-7.57,23.46-4.14,4.07,1.61,6.18.73,6.16-4.21,0-10,4.89-17.63,12.16-24.19,8.45-7.63,15-17,21.83-26,4.07-5.34,7.92-10.81,15.31-11.91,2.58-.39,4.73-2,3.81-4.76-3.09-9.28,1.86-16.81,4.7-24.89.83-2.36,4-6.08-.43-7.47-3.57-1.14-4.61,2.35-5.31,5.59-3.47,15.87-15.67,25.86-25.8,37.13-3.37,3.75-8.62,3-13.29,1.92-5.17-1.18-7.77.15-6.56,6,2,9.6-2.21,16.69-9.2,22.82-6.78,5.94-13.74,11.63-21,16.94-15.95,11.65-17.89,11.7-35.54,1.71.39,17.93-11,24.47-26,27.67-9.11,1.94-18,4.69-27.5,4.61-8-.06-14.35-2.19-18.44-9.43-2-3.58-4.45-6.53-7.91-1.38-7.78,11.57-19.45,11.67-31.3,10.4-10.26-1.1-20.48-2.6-30.72-3.91-11.39-1.47-15.75-10-19.08-18.87a4.37,4.37,0,0,0-4.12,1.76c-7.95,9.12-17.41,12.05-29.53,9.45a194.29,194.29,0,0,0-35.67-4.24c-8.32-.22-13.52-5.13-17.57-11.55-3.82-6-7.2-6.25-10.75,0-4.48,7.93-11.25,11.18-20.33,12.29A99.77,99.77,0,0,0,1387,500.92c-3.74,2.29-8,4.52-12.15,1.69-4.68-3.2-3.49-8.36-2.36-12.83,2.21-8.75,3.71-17.63,5-26.51,1.51-10.2,6.23-17.35,16.07-20.9,1.49-.54,3.2-1.05,3.87-3-1.93-3.48-5.49-5.58-8.17-8.47-6.1-6.57-8.32-13.51-6.93-22.74,1.78-11.83-.75-23.89-1.65-35.77-.68-8.93,1.1-15.87,7.75-21.34,6.16-5.06,4.92-8-1.75-11.06-8.35-3.82-13.13-10.45-15.55-19.56a136.18,136.18,0,0,0-13.55-33.25c-4.92-8.51-7.28-17.06-3.46-26.64,2.26-5.66-.16-8.57-6-7.81-12.45,1.62-21.69-4.1-30.51-11.88a108.49,108.49,0,0,0-24.29-15.73c-9.48-4.64-15.65-11-16.71-21.75-.52-5.22-2.87-6.24-7.16-3.36-9.92,6.68-19.67,5.59-30.22.76a126.74,126.74,0,0,0-34.28-10.6,17.37,17.37,0,0,1-10.4-5.53c-5.41-5.84-5-10.75,1.87-14.5,11.42-6.18,23.15-11.79,34.43-18.26,4.22-2.42,8.88-2.33,13.62-1.34s9.33,3.23,14.77,4.43c.75-5.41.5-10.36,1.34-15.21,1.44-8.33,5.34-14.57,11.82-20.08,12.79-10.85,22.82-24.21,31.47-38.51,3.67-6.06,8.1-10.49,15.29-11.61,5.78-.9,8.42-3.32,5.29-9.45-3.72-7.29-3.09-14.73-.28-22.28,3.28-8.81,4.42-18.09,5.1-27.42.27-3.62-.27-7.42,2.61-10.38h-6C1328.23,7.78,1324.61,13,1318.12,16.34Z"/><path class="cls-3" d="M1324.29,37.79c-2.81,7.55-3.44,15,.28,22.28,3.13,6.13.49,8.55-5.29,9.45-7.19,1.12-11.62,5.54-15.29,11.61-8.65,14.3-18.68,27.66-31.47,38.51-6.49,5.51-10.38,11.75-11.82,20.08-.84,4.85-.59,9.79-1.34,15.21-5.44-1.2-9.93-3.43-14.77-4.43s-9.4-1.08-13.62,1.34c-11.28,6.47-23,12.07-34.43,18.26-6.91,3.74-7.28,8.65-1.87,14.5a17.37,17.37,0,0,0,10.4,5.53,126.74,126.74,0,0,1,34.28,10.6c10.55,4.83,20.3,5.92,30.22-.76,4.29-2.89,6.64-1.87,7.16,3.36,1.06,10.7,7.23,17.11,16.71,21.75a108.49,108.49,0,0,1,24.29,15.73c8.81,7.78,18.05,13.5,30.51,11.88,5.8-.75,8.22,2.15,6,7.81-3.83,9.58-1.46,18.14,3.46,26.64a136.18,136.18,0,0,1,13.55,33.25c2.42,9.11,7.2,15.74,15.55,19.56,6.67,3.05,7.9,6,1.75,11.06-6.65,5.47-8.43,12.41-7.75,21.34.9,11.89,3.43,23.94,1.65,35.77-1.39,9.23.83,16.17,6.93,22.74,2.69,2.89,6.24,5,8.17,8.47-.68,2-2.38,2.5-3.87,3-9.84,3.55-14.56,10.7-16.07,20.9-1.31,8.88-2.82,17.76-5,26.51-1.13,4.47-2.32,9.64,2.36,12.83,4.15,2.83,8.41.6,12.15-1.69a99.77,99.77,0,0,1,40.44-13.66c9.08-1.11,15.86-4.37,20.33-12.29,3.55-6.29,6.94-6.09,10.75,0,4,6.42,9.25,11.33,17.57,11.55a194.29,194.29,0,0,1,35.67,4.24c12.12,2.6,21.58-.32,29.53-9.45a4.37,4.37,0,0,1,4.12-1.76c3.33,8.89,7.69,17.41,19.08,18.87,10.24,1.32,20.46,2.82,30.72,3.91,11.85,1.27,23.52,1.17,31.3-10.4,3.46-5.14,5.89-2.2,7.91,1.38,4.09,7.24,10.42,9.37,18.44,9.43,9.53.08,18.4-2.67,27.5-4.61,15-3.2,26.38-9.75,26-27.67,17.65,10,19.6,9.93,35.54-1.71,7.26-5.3,14.22-11,21-16.94,7-6.13,11.17-13.22,9.2-22.82-1.2-5.85,1.4-7.19,6.56-6,4.67,1.07,9.92,1.82,13.29-1.92,10.13-11.27,22.33-21.26,25.8-37.13.71-3.24,1.75-6.72,5.31-5.59,4.38,1.39,1.25,5.11.43,7.47-2.83,8.08-7.79,15.61-4.7,24.89.93,2.79-1.23,4.37-3.81,4.76-7.38,1.1-11.24,6.57-15.31,11.91-6.86,9-13.38,18.36-21.83,26-7.27,6.57-12.19,14.17-12.16,24.19,0,4.94-2.1,5.82-6.16,4.21-8.68-3.43-16.2-.9-23.46,4.14-10.76,7.47-22.73,12.71-35,17-9.39,3.3-16.72,8.41-20.71,17.43-2.57,5.82-5,4.77-8.53,1.19-6.61-6.61-14.26-8.26-23.76-6.82a112.22,112.22,0,0,1-35.86-.16c-10.21-1.78-18.51.09-25.24,7.89-3.33,3.85-5.6,3.82-7.92-.92-4.4-9-12.09-12.64-21.78-13.33a188.43,188.43,0,0,1-27.68-4c-13.23-3-26-4.82-34.19,9.87-14.47-19.26-11.7-16.26-34-16.64-8.66-.15-17.33.11-26,0s-14.92,3.16-18,11.41c-1.58,4.26-3,5.82-7.85,3.06-10.24-5.86-24.09-3.45-27.94,7.39-3.19,9-7.88,13.91-15.08,18.71-5.79,3.87,1.4,12.08-2.38,15.42-4.48,3.95-10,6.17-10.74,13.16-.65,6.3-2.23,12.46-3.44,18.68-1.89,9.7.1,18,8.89,23.53,4.79,3,5,5.22.11,8.48-6.1,4-10.29,9.32-9,17.52a276.7,276.7,0,0,0,9.12,39.91c2.49,8,7.45,13.1,15.57,15.4,2.72.77,6,.73,8.57,4.09-12,10.14-9.83,21.85-3.14,34,2.73,5,5,10.18,7.62,15.19,7.11,13.52,13.81,27.65,33.76,22.3-5.45,20.14-4.73,21.91,10.61,32.08,8.71,5.78,18.16,9.68,28.08,12.81,6.81,2.15,12.36.66,17.53-3.9,2.75-2.43,4.87-5.44,7.67-7.84,9.28,17.63,13.46,20,33.4,17.29,6.92-.92,13.86-1.82,20.73-3.22,10.71-2.19,18.71-6.93,20.49-18.7.92-6.09,3.67-6,8-2.71,7.61,5.82,15.4,6.09,24.22,1.78,12.25-6,25.24-10.45,37.06-17.42,2.84-1.68,6.28-4,8.88-.42,2.31,3.2-.25,6.31-2.25,9a14.31,14.31,0,0,1-4.55,3.87A22.21,22.21,0,0,0,1620.38,803c-1.32,5.58-3.88,6.53-8.33,3.35-6.83-4.89-13.63-3.81-20.75-.53-12.12,5.57-24.39,10.94-37.33,14.22-9.26,2.35-16.69,6.48-21.14,15.15-2.82,5.49-6.32,5.38-9.92,1-6.08-7.48-14-9.38-23.22-8.82-12.44.75-24.63-1.47-36.5-4.86-9.75-2.79-19-3.38-27.93,2.11-5.5,3.39-6.73.27-7.66-4.43-1.37-6.87-2.75-13.88-9-18.4-13-9.41-21.77-22.45-30.26-35.58-5-7.76-10.87-13.49-20.28-14.5-5.45-.58-6-3-3.47-7.22,5.3-8.66,3.69-17.16-.42-25.72a207.56,207.56,0,0,1-12.87-33.57c-2.62-9.36-7-16.57-16.05-20.21-6.73-2.7-5.56-6-1.65-10.28,5.22-5.75,6.59-12.21,5.7-20.25-1.42-12.78-3.95-25.63-1-38.71,2.19-9.69,1.28-19.16-6.07-27.07-4.34-4.67-1.91-7.57,3.07-9.59,6.16-2.51,10.76-6.49,12.35-13.35,3.18-13.63,7.17-27.05,10.63-40.61,2.21-8.67,1.54-16.6-4.55-23.42-3.8-4.26-3-6.89,2.1-8.78,7.43-2.78,10.42-8.35,11.33-16.06,1.57-13.22,3-26.42,3.8-39.73.54-8.93-1-15.82-8.49-20.73-5-3.3-4-5.79.17-8.91,5.37-4,8.54-9.35,7.43-16.41-2.18-13.81-3.68-27.74-7.5-41.27-2.26-8-6.43-14-14.91-15.72-5.25-1-6-2.88-2.89-7.2,5.17-7.2,3.66-14.23-.69-21.43-6.29-10.41-15-18.62-23.18-27.39-6.21-6.65-12.79-9.38-21.28-5.36-5,2.35-7.52,1.61-7.15-4.47.5-8.12-4.07-12.84-10.87-16.3-11.3-5.74-22.84-10.91-34.36-16.17-7.81-3.57-15.22-4.82-22.72.22-5,3.36-7.66,2-9.09-3.76-1.82-7.31-7.06-10.83-14.3-12.1s-14.34-2.92-21.77-2.74c-8.6.21-16.39.16-23.92,7a42.7,42.7,0,0,1-3.83,3.12c2.19-.73,4.08,3.15,6.33,1.85,3.07-9.45,3.08-9.31,12.24-9.58,11.41-.33,22.51,1.61,33.66,3.67,4.52.84,7.2,2.85,8.45,7.18s2.77,8.82,4.28,13.58c2.93-2.08,5.59-4,8.31-5.9,5.91-4.08,11.71-4.94,18.58-1.41,10.36,5.32,20.93,10.48,31.9,14.27,13.11,4.53,17.31,13.12,15.17,26-.14.85.13,1.33,1.36,1.5,4.43-1.76,9.09-4.19,14.4-5.07a9.15,9.15,0,0,1,8.2,2.13,133.19,133.19,0,0,1,30.05,35.71,10.16,10.16,0,0,1-.11,11.2c-2.33,3.84-4.84,7.57-7.22,11.27,2.39,2.08,4.89,1.21,7.1,1.78,8.2,2.12,14,5.75,16.14,15.12,3.19,13.65,5.07,27.45,7.14,41.25.68,4.57-.37,8.47-4.2,11.49s-7.41,6.24-11.58,9.78a36.92,36.92,0,0,1,12.93,8.6c3,2.83,4.3,5.59,4.06,10.32-.64,12.62-2.62,25.19-2.74,37.75-.13,14.21-7,21.22-19.87,24.18-.48.11-.85.72-1.55,1.34,3.06,4.36,7.84,7.28,10.27,12.09,1.33,2.63,3.3,5,2.46,8.36-4.3,17-8.65,33.95-12.73,51-.95,4-2.86,6.42-6.56,8-5,2.17-9.77,4.75-14.71,7.19,3.82,4.78,7.3,8.82,10.4,13.13a14.6,14.6,0,0,1,2.72,11.18,172.09,172.09,0,0,0,.83,53.54,10.93,10.93,0,0,1-2.49,9.25c-3.64,4.54-7.16,9.18-10.9,14a61.87,61.87,0,0,1,16.82,8c2.2,1.46,4.19,2.84,5.07,5.78a405.2,405.2,0,0,0,18.89,49.42,12.8,12.8,0,0,1,.09,11.5q-3.4,7.08-6.78,14.16c2.19,1.84,4.67,1.3,6.83,1.54,9.49,1.08,16.43,4.72,21.39,13.83,6.5,11.94,14.54,23.43,25.62,31.57,9.56,7,13.27,16,14.16,27.09.14,1.7-.63,3.95,2,5.33,1.26-.85,2.55-1.84,4-2.64,9.22-5.26,18.41-7.9,29.35-4.18,12.28,4.18,25.42,6.43,38.33,5.29,12.34-1.1,20.17,4.12,26.69,13.32a36.52,36.52,0,0,0,2.6,3c3.37-5.21,6.49-10.31,9.89-15.21,1.89-2.72,4.16-5.16,7.69-6,17.28-4.08,33.42-11.31,49.51-18.55a11.36,11.36,0,0,1,11.27.52c4.2,2.42,8.33,5,12.35,7.41,2.05-1.43,1.32-3.28,1.63-4.82,1.76-8.64,4-16.69,13.51-20.57,4.41-1.8,6.75-6,7.67-11,.56-3.06,0-5.57-2.36-7-2.85-1.8-6.62-2.63-9,.36s-5.71,4.57-9,6.06c-12.11,5.54-24.37,10.76-36.5,16.26-3.72,1.68-6.91.93-10.46-.57-5.59-2.36-9.33-7.25-14.53-10.53-1.79,5.2-2.44,10.17-3.84,15-2.05,7-6.34,10.34-13.13,11.89a203,203,0,0,1-32.57,4.55c-13.94.87-18.3-2.07-22.82-15.13-.57-1.65-.13-3.78-2.26-5-4,5.09-8.14,9.83-13.36,13.46-2.51,1.75-5,2.95-8.32,2-13.86-4.1-26.83-9.77-38.27-18.87-5.19-4.13-6.37-8.69-4.94-14.86,1-4.4,4.19-7.93,5.33-13.06a120.24,120.24,0,0,1-13.61,1.38c-7,.26-11.83-2.12-15.42-8.52-7.2-12.8-13.54-26-19.81-39.24-2-4.21-1.28-7.79,1.05-11.27,3.1-4.63,6.44-9.09,10-14.07a74.27,74.27,0,0,1-18.45-5.13,12.09,12.09,0,0,1-7.21-7.65c-5.14-14.51-8.24-29.49-10.71-44.62-.7-4.29.69-7.57,3.75-10.74,3.77-3.9,8.64-6,13.06-8.65-1.27-3.73-4.57-4.2-7-5.77-8.28-5.43-12.8-12.24-9.56-22.62a51.84,51.84,0,0,0,2.09-11.77c.72-10.28,4.2-17.94,16.75-17.66-1.62-3.13-2.78-5.13-3.72-7.23-3.22-7.2-2-10.26,5.5-12.85,3.95-1.36,8.11-2.09,12.29-3.14-7.17-9.88-7.19-9.9,3.07-17.26,2.16-1.55,4.56-2.78,6.71-4.34,3.51-2.54,6.57-1.69,10.13.27,4,2.23,6.52,6.49,10.4,8.32,2-1.18,1.6-2.63,1.89-3.83,3.08-12.8,5.64-14.74,18.87-15.93s26.57-.65,39.87,0a10.61,10.61,0,0,1,8.41,4.23c3.6,4.29,5.6,9.46,8.22,15,2.87-3,5.15-5.41,7.4-7.81,5.08-5.44,10.53-8,18.6-6.23a256.92,256.92,0,0,0,38.5,5.5c11.4.69,17.25,6.84,21.35,16.24.61,1.41.6,3.24,2.47,4.09,3.83-1.65,5.58-5.53,8.27-8.35,5.06-5.32,10.84-7,18-6.26a231.11,231.11,0,0,0,46.81,0,15.57,15.57,0,0,1,11.11,3.07c4.64,3.25,7.87,8,13,11.69a75.86,75.86,0,0,1,8.36-17.13,14.12,14.12,0,0,1,7.68-5.93,190.56,190.56,0,0,0,48.31-23.64,11.71,11.71,0,0,1,9.39-1.85c5.54,1,10.72,3.19,15.88,4.79,1.85-2.24.65-4.22.52-6.12-.66-9.65.84-18.07,9.05-24.94a115.29,115.29,0,0,0,24.09-27.86c5-8.05,11-12,20.36-10.84.46.06,1-.58,1.83-1.1a27.24,27.24,0,0,0-1.13-3.61c-3.33-7.15-3.31-13.95.92-20.93,2.2-3.63,3.45-7.93,4.67-12.06,1.82-6.2.39-7.87-5.25-5.53-3.07,1.28-6.73-.16-9.6,2.82,4.37,7.25.85,13.09-3.75,18.77-3.56,4.4-6.9,9-10.5,13.35-11.56,14-11.59,14-29.62,9.15-.79-.21-1.28-.13-2,1.8,1.09,4.77,2.43,10.57,2.41,16.54,0,2.74-.37,5-2.62,7.12a246.19,246.19,0,0,1-37.68,29.55c-3.83,2.4-7.24,2.48-11.24.61-5-2.33-9.2-5.87-14.13-9.06a99.92,99.92,0,0,1-2.31,15.64c-1.55,6-4.75,9.57-11,11.52a200.62,200.62,0,0,1-40,8.41c-5.28.53-8.84-1.12-12.21-4.91-3.65-4.1-5.54-9.25-8.69-15.2a60.13,60.13,0,0,1-9.88,14.2c-3.81,4.24-7.7,6.5-13.88,5.59-12.16-1.79-24.44-3.43-36.7-3.68-13.16-.26-18.9-7.74-22.26-18.82-.46-1.51-.14-3.4-2.09-4.46-3.23,3.15-6.52,6.29-9.73,9.52-5.24,5.29-10.85,7.41-18.78,5.93a274.47,274.47,0,0,0-41.57-4.95c-5.11-.16-8.61-2.45-12-6.06-4-4.3-5.88-10.09-10-14.83-3.65,4.86-6.89,9.07-10,13.36-3.72,5.09-8.33,7.71-14.94,8.36a101.54,101.54,0,0,0-44.18,14.67,17.76,17.76,0,0,1-4.38,2.28c-4.85,1.35-6.84-.39-6-5.4,2.28-13.11,4.87-26.17,7-39.3.61-3.72,2.72-5.86,5.43-7.91A54.08,54.08,0,0,1,1402,441.4c-4.69-5.28-9-10.32-13.48-15.12a13.63,13.63,0,0,1-4-11.74c2-15.33-.22-30.59-1.33-45.82-.41-5.62.87-9.76,4.6-13.46,3.91-3.88,7.94-7.63,12.39-11.89-6.64-2.37-11.92-5.73-17.35-8.83-4.39-2.51-6.62-6-7.91-10.8a172.41,172.41,0,0,0-18-43.23c-2.77-4.72-3.41-9.21-1.83-14.27,1.66-5.33,3.25-10.68,4.9-16.12-7.58,0-14.88-.06-22.17,0a11,11,0,0,1-8.15-2.93,166.59,166.59,0,0,0-41.41-27.62c-4-1.89-6-4.73-7.42-8.75-2.06-5.84-2.21-12-3-18.54-5.07,2.95-9.3,5.56-13.67,7.9-5.82,3.12-11.41,3.6-17.88.57a177,177,0,0,0-41.74-13.47,15.49,15.49,0,0,1-9.87-6c-3.83-4.94-3.77-6.16,2-8.71A296.07,296.07,0,0,0,1232.08,154c3.49-2.14,6.71-2.14,10.45-1.41,6.87,1.34,13.2,4.25,19.5,6.76,1.84-2.77.48-5,.45-7.29-.14-11.94,1.63-22.36,12.35-30.77a110.23,110.23,0,0,0,29-35.3c5.49-10.4,13-15.21,24.24-15.5,1.29,0,2.61-.05,3.65-1.45-2-4.38-4.19-8.86-6.24-13.39a13.74,13.74,0,0,1-.41-11.59c6-14.08,7.4-28.91,6.94-44-2.88,3-2.34,6.76-2.61,10.38C1328.71,19.7,1327.57,29,1324.29,37.79Z"/><path class="cls-3" d="M1312.3,15.73c-1.25.21-2.46.63-3.59.92-.17,2.62,1.49,4,2.67,5.51,4.23,5.58,4.68,10.88,1,17.39-6.36,11.35-13.16,22.37-20.49,33.11-3.2,4.69-7.14,6.11-12.64,6.16-6.34.06-12.15-2.22-19.26-4.1a71.21,71.21,0,0,1,5.14,21.64c.48,5-.94,8.6-4.92,12.16-12.71,11.38-26.67,20.93-40.82,30.37-7.62,5.09-14.2,4.45-21.16,0-4.29-2.72-8.29-5.91-13.36-9.56a68.85,68.85,0,0,1-4.24,23.55c-1.57,4.36-4,7.33-8.51,9a515.42,515.42,0,0,1-52.33,16.7c-5,1.3-8.71.22-12.92-2.58-6.15-4.1-9.37-10.72-15-16.68-3,8.94-6.5,16.38-11.53,23.07-2.12,2.82-4.4,4.58-8.11,5a458.18,458.18,0,0,1-52.72,3c-10.3-.09-15.13-5.19-18.72-13.18-1.81-4-3-8.31-4.94-13.83-4.71,8-10.44,13-16.42,17.8-2.9,2.31-6.06,3.69-10.16,2.59-17.5-4.72-34-11.56-49.11-21.72-5.12-3.44-6.71-7.82-6.13-13.59s2.56-11.3,5.85-17.85c-8,2.78-14.69,4.15-21.73,4.21-5,0-8-1.78-10.6-5.82-5.26-8.19-9.61-16.72-12.06-26.2-.61-2.36.14-6.3-3.22-6.5s-7.11-.37-9.87,3.24c-5,6.56-10.6,12.69-16.33,19.45,4.9,2.2,9.5,3.95,13.78,6.26,4,2.18,8.07,4.26,10.44,8.85,10.18,19.68,25.22,35,43.72,47a14.07,14.07,0,0,1,6.33,8.48c2.07,7.22,4,14.45,4.83,22.94a99,99,0,0,1,19.06-10.8,18.42,18.42,0,0,1,13.5-1,227.18,227.18,0,0,0,63,8.94c4.45,0,7.38,1.72,10.44,4.58,5.28,4.93,8.9,11.24,13.79,16.85a66.42,66.42,0,0,1,13-18.34,15.77,15.77,0,0,1,10.2-5.19c18.14-2.22,36.31-4.6,54-9.49,5.49-1.52,8.56,0,11.48,4.75a53.06,53.06,0,0,0,11.26,13.37c2-2.86,3.6-5.42,5.49-7.73.09-.11.18-.18.26-.27-5.85,3.69-9.14,1.33-14.93-6.77-4.51-6.3-9.93-7-16.62-5.29-12.6,3.24-25.33,6.46-38.29,7-13.71.59-24.68,4.93-32,16.89-3.14,5.15-5.8,5.5-9.2.07-5.77-9.21-14.08-12.61-25.2-13-14.57-.56-29.38-1.69-43.5-5.67-13-3.68-25.41-5.11-37.42,2.63-4.87,3.14-7.28,1.32-7.9-4-1.36-11.84-8.22-19.63-17.64-26.46-13-9.43-24.26-20.79-32.17-35.1-3.09-5.58-7-10.49-12.58-13.94-12.44-7.64-12.39-7.72-2.49-18.7.67-.74,1.27-1.55,2-2.25,5.7-5.63,8.27-5,11.11,2.69.46,1.25.75,2.56,1.18,3.82,8.24,24.36,14.06,28.18,39.18,25.74-5.47,19.73-3.7,24.09,14.52,34.62,11,6.37,22.9,10.73,35,14.57,7.75,2.46,14.34.75,20.39-4.49,3.64-3.15,6.38-7.46,10.61-9.52,1.86,1.23,2.07,2.61,2.57,3.82,6.09,14.72,10.57,17.76,26.32,17.85,13,.07,26-1.23,38.87-1.49s20.44-5.8,26-16.41c4.56-8.71,4.86-8.66,11.36-1.67,6.68,7.18,14.14,10.17,24.18,7.35,12.53-3.53,24.67-8.29,37.22-11.53,16.39-4.24,25-14.05,25.74-30.9a1.83,1.83,0,0,1,1.25-1.45c2.19,0,3.6,1.6,5.24,2.67,9.79,6.41,19.24,7.74,29.63.45,9.27-6.5,18.41-13.21,27.8-19.5,15.21-10.2,22.6-22.37,13.42-40.27,3.23-1,5.44.13,7.69.48,11.82,1.86,20.64-1.8,26.82-12.56,5.47-9.53,11.68-18.62,16.45-28.57,2.28-4.76,3.46-9.45.33-14.22-2.63-4-1.71-6.39,2.57-8.61C1324.61,13,1328.23,7.78,1326,0h0c-.51,1.22-1.42,2.43-1.48,3.67C1324.16,11.53,1319.23,14.59,1312.3,15.73Z"/><path class="cls-2" d="M44.18,590c2.53-11.41,11-16.35,20.72-19.9,5.06-1.85,9.55-4.73,14.16-7.39C87,558.09,95,555.81,103.56,561c4.59,2.77,6,.29,5.94-4-.05-10.12,5.4-16.47,13.54-21.73a161.63,161.63,0,0,0,26.24-21.51c6.8-6.8,14-9.91,23.35-7.22,5.4,1.56,7.64.26,6-5.69-2.91-10.46-.14-19.66,6.37-28.1,4.28-5.55,7.29-11.94,11.05-17.83,4.72-7.39,9.1-8.15,15.32-1.89,11.82,11.89,24.42,22.64,39,31a13.32,13.32,0,0,1,6.34,8.64c1.54,6.12,3.28,11.84,8.32,16.57,4,3.73,1.82,9.1-1.28,12.75-10.36,12.16-20.72,24.35-31.61,36-5,5.37-11.9,5.64-18.68,4.58-6.28-1-8,1.54-6.26,7.19,3,9.87.08,18.25-6,26.09A185.15,185.15,0,0,0,180,629.76c-3.83,8-11.14,10.11-18.62,11.85-4.93,1.15-6.35,3.07-3.27,7.4,6.52,9.15,6.66,19,4,29.56a136.41,136.41,0,0,0-3.78,28.67c-.34,9.75-2,19.38-11.12,25.51-4,2.66-3.64,5.36.47,7.37,10,4.9,14.07,13.34,15.77,23.89a97.07,97.07,0,0,0,5.45,19.21c4.46,11.58,8.18,22.92-4.55,34.25,15.56,1.65,22.54,10.38,27,21.89a22.16,22.16,0,0,0,3,5.16c2,2.6,3.6,6.69,7.35,5.8,4.57-1.09,4-6.43,5.53-9.9,1.89-4.35-2.7-4.35-5-5.79-1.13-.71.26.23-.88-.47-9.39-5.71-18.45-29.61-19.32-46.33a7.8,7.8,0,0,1,0-5.11,19.61,19.61,0,0,1,1.9-7.87c2.33-4.34,1-5.92-2.63-7.48-7.27-3.12-9.84-9.37-11.24-16.58A168.77,168.77,0,0,1,167.34,718c0-7.75,2.41-13.69,9.35-17.38,3.77-2,6.21-3.91,1.88-8-6.76-6.33-6.59-13.91-3.79-22.11,3.24-9.47,7.06-18.68,10.94-27.9,4.78-11.36,10.82-20.24,27.79-16.26-9.86-18-.62-29.31,9.32-40.64,3.73-4.25,7.54-8.45,11.17-12.8,12.94-15.47,12.93-15.48,33.16-15.38-6.27-16.19,4.58-25.7,13-37.05,10-13.38,20.47-22.1,38.17-17.19,3.41.95,7.32.41,11,.09,12.06-1.07,22.54,1.63,31.07,14.4,4.41-18.61,18.47-22.29,32.3-26.42,8.63-2.58,16.87-6.26,25.17-9.74,6.41-2.69,12.69-4.3,19.16-.61,4.57,2.6,5.8-.07,6.64-3.84,1.64-7.43,6.51-12,13.09-15.42,7.11-3.66,13.85-8,20.57-12.33a29.85,29.85,0,0,1,8-4c2.8-.79,7.66,1.29,8.21-1.77,1.46-8.15,12-11.34,10.55-21.06C497,434.72,485,443,473.2,443.37c-10.95.36-15.89,2.7-19.9,11.75-1.25,2.81-5.35,3.77-8.39,5.13-5.48,2.45-11.3,4.15-16.63,6.87-12,6.13-23.71,10.28-33.54-2.48-3.58,1.74-3.72,4.36-4.47,6.42-3.13,8.59-8.85,13.49-18.06,15.2s-18.25,3.91-27.49,5.19c-6.76.94-14.75,3.83-19-4s-3.57-16.27,1.55-23.75c6.78-9.91,15.08-18.65,22.57-28a39.55,39.55,0,0,0,2.63-3c6.53-10.15,15.12-16,27.24-12.67,2.72-3.33.57-5.79.22-8.23-1.18-8.25.08-15.49,5.2-22.6,7.77-10.81,14.94-22.17,20.31-34.37,3.46-7.86,8.26-13.62,16.41-16.25,5.64-1.82,8-4.36,3.62-9.89-5.18-6.51-5.81-13.95-3.72-21.79,3.53-13.28,4.43-27,5.3-40.55.6-9.41,3.13-16.82,10.79-22.32,2.95-2.12,5.79-4.77,1-7.53-12.11-7-12.54-19.12-13.09-30.6-.53-11-1.16-22-2.74-32.82-1.12-7.67.51-13.91,6.3-18.88,4.72-4.05,5.44-7.24-1.05-10-9.2-4-11.52-12.07-12.78-21.06-1.41-10-1.81-20.47-8.24-30.37-5,5.47-6.8,12.31-12.81,15.63-2.41,1.33-1.43,3.59.54,4.77,12.19,7.31,12.11,19.82,13.4,31.65.76,7,1.36,14,2.92,20.76,2.54,11,.18,19.75-8.93,26.48-3.92,2.89-4.61,5.12.36,7.84,10.82,5.92,14.87,15.2,13.94,27.5-.75,9.94-.42,20-.08,30,.3,9-2.88,15.65-11,19.56-5.55,2.67-7.25,5.74-1.92,10.22,8,6.74,8.68,14.87,5.7,24.4-3.58,11.45-6.82,23-12.13,33.82-3.62,7.4-8.86,11.65-17.19,11.13-6.47-.4-7.39,1.88-4.82,7.43,4.15,9,2.69,17.11-3.39,25.17-8,10.65-16.44,21-24.62,31.51-6.86,8.83-15.81,8.57-24.79,5.87-1.2.61-1.58,1.22-1.29,1.93,5.65,14.13,1.7,25.69-8.82,36.06-4.95,4.88-9,10.69-13.16,16.34-4.63,6.34-10.21,7.8-17.46,4.92-8.36-3.32-16.78-6.34-24.63-10.9-8.42-4.89-14.34-10.87-13.31-21.4.62-6.33-3.42-5.51-7.06-4.31-9.4,3.09-16.1-.79-21.92-7.71-6.08-7.24-4.87-11.51,4.25-14.54,9.5-3.16,9.88-3.41,4.46-11.38-5.28-7.76-6.29-15.53-4.28-24.62,2.72-12.34,4.57-24.94,4.12-37.65-.28-7.94,2.1-14.41,8.37-19.3,4.31-3.36,5.84-6.77-.16-9.65-10.33-5-14.6-13.53-16.51-24.4-1.55-8.83-4.93-17.32-8.29-25.65-3.14-7.79-4.69-15.32.14-22.92,2.17-3.42,1.59-5.78-2.63-6.28-9.47-1.12-15.5-7-20.71-14.28a29.7,29.7,0,0,0-6.25-6.45c-2.4-1.8-5.48-6.36-8-2.38-1.91,3-2.3,8.95,2.33,11.47,17.61,9.59,19.3,28.4,26,44.26,1.63,3.89-.58,7.93-3.15,11.12-3.31,4.11-3.19,6.89,2.15,8.91,7.33,2.78,10.54,8.7,11.78,16.09,1.87,11.17,3.88,22.27,4.27,33.66.3,8.73-1.66,15.88-9.87,20.13-4.44,2.3-4.56,4.21-1,8,8.22,8.89,7.23,31.75-1.1,40.59-2.65,2.82-5.09,2.66-7.69.1-5.81-5.73-5.81-12.25-2.86-19.34,1-2.39,3.86-6.34-2-6.2-12.32.28-16.43-8.24-20-17.6-.72-1.87-1.22-3.81-1.87-5.7-1-3-.73-7.66-5.11-7.47-4.58.2-7.24,4.47-9.91,7.76-1.84,2.27.91,3.44,2.41,4.5,4.18,2.94,7.75,6.49,9.69,11.21,5.85,14.26,13.56,27.41,22.15,40.18,5.48,8.15,2.07,17.08-7.59,20.53-4.32,1.54-5.27,3.29-3.55,7.19,4,9.06,1.23,16.74-4.57,24.08-7.45,9.42-16.08,17.78-23.7,27-6.77,8.23-16.06,6.26-26.21,4.57,3.83,16.48-6.69,24-17.48,31.13-6.66,4.43-13,9.34-19.79,13.56-5,3.1-10,5.33-16,2.81-3.48-1.48-5.73-.74-6.4,3.37C59,565.26,53.63,569.21,47.42,572c-9.86,4.5-19,11.4-31,9.25-2.61-.47-4.07,1.83-5.76,3.42-3,2.83-6.25,5.07-10.7,3.28v4C14.48,589.93,28.47,579.59,44.18,590Z"/><path class="cls-2" d="M10.7,584.72c1.69-1.59,3.15-3.89,5.76-3.42,11.92,2.15,21.1-4.75,31-9.25,6.21-2.84,11.61-6.78,12.82-14.23.67-4.11,2.92-4.85,6.4-3.37,5.95,2.53,11,.3,16-2.81,6.81-4.22,13.13-9.14,19.79-13.56,10.8-7.17,21.31-14.65,17.48-31.13,10.15,1.69,19.43,3.66,26.21-4.57,7.62-9.26,16.25-17.62,23.7-27,5.8-7.34,8.56-15,4.57-24.08-1.72-3.9-.77-5.65,3.55-7.19,9.66-3.45,13.07-12.38,7.59-20.53-8.59-12.77-16.3-25.92-22.15-40.18-1.93-4.72-5.51-8.27-9.69-11.21-1.5-1.06-4.25-2.23-2.41-4.5,2.67-3.29,5.33-7.56,9.91-7.76,4.38-.19,4.08,4.49,5.11,7.47.65,1.89,1.15,3.83,1.87,5.7,3.6,9.35,7.71,17.88,20,17.6,5.81-.13,2.95,3.82,2,6.2-3,7.09-2.95,13.61,2.86,19.34,2.6,2.56,5,2.72,7.69-.1,8.33-8.84,9.32-31.7,1.1-40.59-3.54-3.83-3.43-5.74,1-8,8.21-4.25,10.18-11.4,9.87-20.13-.4-11.39-2.41-22.5-4.27-33.66-1.24-7.39-4.45-13.31-11.78-16.09-5.33-2-5.46-4.79-2.15-8.91,2.57-3.18,4.78-7.23,3.15-11.12-6.67-15.86-8.35-34.67-26-44.26-4.63-2.52-4.24-8.47-2.33-11.47,2.54-4,5.62.58,8,2.38a29.7,29.7,0,0,1,6.25,6.45c5.22,7.25,11.24,13.17,20.71,14.28,4.23.5,4.81,2.86,2.63,6.28-4.83,7.61-3.28,15.13-.14,22.92,3.36,8.34,6.74,16.82,8.29,25.65,1.9,10.86,6.17,19.43,16.51,24.4,6,2.88,4.47,6.29.16,9.65-6.27,4.89-8.65,11.36-8.37,19.3.45,12.71-1.4,25.31-4.12,37.65-2,9.09-1,16.87,4.28,24.62,5.42,8,5,8.23-4.46,11.38-9.12,3-10.33,7.3-4.25,14.54,5.81,6.92,12.52,10.8,21.92,7.71,3.64-1.2,7.67-2,7.06,4.31-1,10.53,4.9,16.51,13.31,21.4,7.85,4.56,16.27,7.59,24.63,10.9,7.25,2.88,12.84,1.43,17.46-4.92,4.12-5.65,8.21-11.46,13.16-16.34,10.52-10.37,14.46-21.93,8.82-36.06-.29-.72.09-1.32,1.29-1.93,9,2.69,17.93,3,24.79-5.87,8.18-10.52,16.59-20.86,24.62-31.51,6.08-8.06,7.54-16.19,3.39-25.17-2.56-5.55-1.64-7.83,4.82-7.43,8.32.52,13.57-3.73,17.19-11.13,5.32-10.86,8.55-22.36,12.13-33.82,3-9.53,2.31-17.66-5.7-24.4-5.33-4.48-3.62-7.54,1.92-10.22,8.11-3.91,11.29-10.61,11-19.56-.33-10-.67-20,.08-30,.93-12.3-3.12-21.58-13.94-27.5-5-2.72-4.28-4.95-.36-7.84,9.12-6.73,11.48-15.49,8.93-26.48-1.56-6.75-2.16-13.8-2.92-20.76-1.29-11.83-1.21-24.34-13.4-31.65-2-1.18-3-3.44-.54-4.77,6-3.32,7.84-10.16,12.81-15.63,6.43,9.9,6.83,20.32,8.24,30.37,1.26,9,3.58,17.08,12.78,21.06,6.49,2.8,5.77,6,1.05,10-5.78,5-7.41,11.21-6.3,18.88,1.58,10.85,2.21,21.82,2.74,32.82.55,11.49,1,23.61,13.09,30.6,4.76,2.75,1.92,5.41-1,7.53-7.67,5.5-10.19,12.91-10.79,22.32-.87,13.57-1.76,27.27-5.3,40.55-2.09,7.85-1.46,15.28,3.72,21.79,4.4,5.53,2,8.06-3.62,9.89-8.15,2.64-13,8.39-16.41,16.25-5.37,12.21-12.54,23.57-20.31,34.37-5.12,7.12-6.38,14.36-5.2,22.6.35,2.44,2.5,4.9-.22,8.23-12.13-3.29-20.72,2.52-27.24,12.67a39.55,39.55,0,0,1-2.63,3c-7.49,9.37-15.78,18.1-22.57,28-5.12,7.48-5.69,16-1.55,23.75s12.2,5,19,4C354,490.17,363,488,372.2,486.26s14.93-6.61,18.06-15.2c.75-2.06.89-4.68,4.47-6.42,9.83,12.76,21.52,8.61,33.54,2.48,5.32-2.72,11.15-4.42,16.63-6.87,3-1.36,7.14-2.32,8.39-5.13,4-9.05,9-11.39,19.9-11.75C485,443,497,434.72,504.08,422.58c1.45,9.73-9.09,12.92-10.55,21.06-.55,3.07-5.41,1-8.21,1.77a29.85,29.85,0,0,0-8,4c-6.72,4.34-13.47,8.67-20.57,12.33-6.58,3.39-11.46,8-13.09,15.42-.83,3.77-2.07,6.44-6.64,3.84-6.48-3.68-12.76-2.08-19.16.61-8.29,3.48-16.53,7.16-25.17,9.74-13.83,4.14-27.9,7.81-32.3,26.42-8.53-12.77-19-15.47-31.07-14.4-3.64.32-7.55.86-11-.09-17.7-4.92-28.21,3.81-38.17,17.19-8.44,11.35-19.29,20.86-13,37.05-20.23-.1-20.22-.09-33.16,15.38-3.63,4.34-7.44,8.54-11.17,12.8-9.94,11.33-19.18,22.68-9.32,40.64-17-4-23,4.9-27.79,16.26-3.88,9.22-7.69,18.43-10.94,27.9-2.81,8.2-3,15.78,3.79,22.11,4.32,4,1.89,6-1.88,8-6.94,3.69-9.32,9.63-9.35,17.38a168.77,168.77,0,0,0,2.79,32.79c1.39,7.21,4,13.46,11.24,16.58,3.64,1.56,5,3.14,2.63,7.48a19.61,19.61,0,0,0-1.9,7.87c1-2.73,3.72-6,9.06-12.81.18-.23.13-.65.2-1.06-3.94-1.57-8.26-2.22-11.84-4.78-2.47-1.77-4.77-3.39-5.46-6.73-3-14.38-4.75-28.83-4-43.55.23-4.42,1.78-7.59,5.7-9.69s7.83-4.4,11.88-6.68c-2.38-2.24-4.22-4.15-6.25-5.84-6.13-5.11-7.31-11-4.72-18.67a304.53,304.53,0,0,1,11.94-30.7c7-15,8.26-15.55,25.25-14.58.94.05,2,.38,2.29-1,.26-1.85-1.13-3-1.81-4.51-4.28-9.18-4.45-17.08,3.2-25.51,9.36-10.31,18-21.34,27.16-31.88,3-3.42,6.06-4.42,10.29-4.65,5.2-.29,10.25,1.56,15.88,1.23A46.43,46.43,0,0,1,267.61,544a11.55,11.55,0,0,1,2.8-8.25c8.08-9.27,16.18-18.53,24-28a8.34,8.34,0,0,1,8.61-3.29c11.19,1.78,22.42,2.71,33.71,1.13,5.77-.81,10.16,1.54,14.42,5.1,3.57,3,5.54,7.53,10,10,1.24-2.83,2.33-5.55,3.61-8.19,3.77-7.81,8.91-13.25,18.21-15.33a122.61,122.61,0,0,0,32.74-12c9.66-5.35,18-5.07,26.53,1.65.32.25,1.13-.12,2.07-.25.25-1.5.58-3.09.76-4.7.91-8.23,4.64-14,12.61-17.57a101.65,101.65,0,0,0,18-10.77c6.33-4.57,12.51-8.42,21.5-4-2.52-12,6.9-15.88,12.32-22.6-2.32-2.63-3.77-5.64-6.66-7.53-4.26,8.58-4.26,8.58-13.94,14.3-3.15,1.86-6.55,3.43-9.4,5.67-6.33,5-12.11,4-17.86-.82-1-.8-1.78-1.92-3.34-1.71-1.38,1.58-1.46,3.63-1.62,5.58-.63,7.34-4.08,12-11.28,14.71-10,3.69-19.69,8.15-29.4,12.54-4.42,2-8.12,1.3-12.21-1-4.6-2.56-7.8-6.82-12.83-10.94-.55,7.52-2.81,13-5.53,18.29-1.25,2.44-2.69,4.73-5.45,5.52-15.72,4.5-31.66,7.73-48.07,8.2-1.73,0-3.07-.29-4.08-2-3.26-5.68-3-16.59,1.07-21.73,10.55-13.26,21.34-26.33,31.88-39.6,2.26-2.85,4.79-3.84,8.35-4.35,5.47-.79,10.93.72,16.82.18-1.08-3-2-5.1-2.63-7.3-2.57-8.65-2.67-16.37,3.8-24.22,6.29-7.63,10.82-16.75,15.75-25.44,3.61-6.36,5.53-14,10.19-19.36,5-5.68,13.76-5.65,21.28-8.75-3.87-5.12-7.49-9.86-9.86-15.36-1.33-3.09-2.14-6-1.25-9.6a231.44,231.44,0,0,0,6.57-51.33c.09-4.61,1.68-8.39,5.37-11.24,4.1-3.17,8.19-6.35,12.39-9.61l-11.3-9.06c-4.37-3.49-6.5-7.55-6.7-13.6-.45-13.26-.95-26.73-3.65-39.65-2.77-13.24,1.81-21.72,12.21-28.54.44-.29.49-1.16.81-2-2.28-1.18-4.56-2.42-6.89-3.55-8.37-4.06-13.13-10.1-13.82-20-.62-8.88-3-17.66-4.79-26.43-.6-2.87-1.63-5.73-4.65-7.33-3.52-1.87-5.9-1.13-5.88,2.87,0,4.68-2.42,7.43-5.52,10-3.3,2.74-6.74,5.31-10.16,8,1.75,2.24,4.44,2.84,6.53,4.32,6.39,4.54,11,9.7,11.33,18.51.38,11.27,1.15,22.76,3.84,33.64,3.24,13.08-2.93,20.1-12.66,26.12-1.31.81-3.36.77-3.48,3.54,5.12,2.54,10.35,5.35,14.81,9.29,3.56,3.14,6.42,6.45,6.37,11.8-.14,14,.94,27.9.34,41.92-.34,8-4,12-10.14,15.49-3.33,1.88-7.75,1.8-10.38,5.5,4.67,4.19,9.26,8,12.8,13a11.61,11.61,0,0,1,2.11,10.26,215.4,215.4,0,0,1-14.48,42.47c-2.26,4.79-5.65,6.79-10.65,7.74s-9.7-.52-15,.1c1.92,4.9,3.49,9.23,5.29,13.46,2.71,6.38,1.94,11.91-2.5,17.48-9.14,11.45-17.89,23.2-26.67,34.93-2.4,3.22-5.4,4.29-9.26,4.9-6.26,1-12-2.1-18.53-2.3a101.11,101.11,0,0,1,4.73,19.24c.57,3.37.19,6.46-2.21,9.33q-12.79,15.32-25.23,30.93c-2.23,2.8-4.45,3.22-7.78,2.2a154.67,154.67,0,0,1-33.62-15.13c-4.21-2.5-5.77-6-6.06-10.67-.3-4.93,1.15-9.71,1.39-14.37-2.79-1.16-4.47.25-6.19,1-11.36,4.75-20.53,2.48-27.78-7.79-3.07-4.35-3.23-5.08,1.41-7.13,5.72-2.52,12.08-2.66,18.92-4.32-5.37-5.95-8.75-12-12.14-18.1a12.8,12.8,0,0,1-1.69-9.52,189.83,189.83,0,0,0,4.71-48.55c-.15-4.32,1.4-7.53,4.3-10.68,3.79-4.12,8.53-7.15,12.94-11.25-5.77-4.79-12.57-6.94-17.84-11.48a12.39,12.39,0,0,1-4.63-7.3,214,214,0,0,0-13.2-41.83c-1.74-4.06-1.77-7.66.29-11.4,2.15-3.89,4.34-7.76,7.29-13-15,1-24.57-5.2-31.3-16.93a20.72,20.72,0,0,0-11.61-9.08c-4.62-1.51-8.37.93-6.45,4.92,2.38,4.93.24,9.29,0,14.87,9.32-3.42,13.21,2,16.34,8.34,3.54,7.16,6.37,14.71,10.29,21.64,6.08,10.76,4.15,19.57-5,27.32-.34.29-.21,1.15-.3,1.8,1.46,1.63,3.65,1.33,5.49,1.93,7.93,2.58,12.73,7.27,14.09,16.08a368.64,368.64,0,0,1,4.25,37.59c.26,5.07-.65,9-5.58,11.63-4,2.13-7.69,4.95-11.57,7.5,3.18,2.83,6.29,5.33,9.07,8.15,2.08,2.11,4.56,4.52,4.24,7.66a102.83,102.83,0,0,1-8.23,31.06c-13.67-9.64-5.3-19.25-1.17-28.7-21.76-1.15-24-3.06-28.24-23.62-.27-1.3-.44-2.62-.75-3.9a11.73,11.73,0,0,0-1-2.82c-2-3.67-6.16-4.68-8.88-1.52-3.9,4.53-9,7.79-13.18,12.26,3.29,2.29,6.25,4.41,9.27,6.43s5.81,4.28,7.12,8a147.9,147.9,0,0,0,21.79,40.25c3.93,5.23,2.26,10.34.71,15.17s-6.72,3-10.5,3.38c-1.53.17-3.23-.55-4.62.84,0,2.82,2,4.85,3.05,7.2,3.51,7.62,3.4,14.22-2.46,21.17-8.8,10.44-17.73,20.7-27.14,30.61-4.07,4.29-8.21,5.16-13.33,3.87-3.79-.95-7.49-2.25-11.86-3.58.27,3.4.39,6.31.75,9.19,1,8-1.49,14-8.65,18.45A260.61,260.61,0,0,0,84.61,547.5c-8,6.41-15.76,7.73-24.27,1.39-.26-.19-1.06.34-2.08.7,2.11,11.73-4.67,17.67-14.6,21.55-4,1.57-7.9,3.54-11.79,5.44-6.17,3-12.29,5.58-18-.87C8.95,584.55,8.95,584.55,0,588,4.45,589.79,7.7,587.55,10.7,584.72Z"/><path class="cls-2" d="M25.56,588.44c6.14-2.17,11-1.08,15.46,3.3,1.17,1.15,2.19,2.56,4,2.79,1.73-1,1.36-2.82,1.76-4.3,2-7.12,5.76-12,13.11-14.94,8.93-3.55,17.38-8.42,25.78-13.17,4.54-2.57,8.69-2.85,13.22-.55,4,2,8,4,12.3,6.12.26-4,.55-7.34.68-10.64.31-7.81,3.18-13.64,10.29-18,10.47-6.48,20.47-14.09,28.66-23.16,7.67-8.5,15.82-8.26,25.31-6.11,2.16.49,4,2.41,7.17,1.29a100.74,100.74,0,0,1-2.2-10.29c-.66-5.83-3.61-12.21,0-17.47,7.46-11,14.49-22.22,21.14-33.6,4.3,1.52,6.37,4.71,8.87,7.28,9.34,9.62,19.5,18.53,31.24,24.69,9.53,5,13.12,12.22,14.8,21.81.42,2.4-1.65,9,5.53,5.21,1.18-.62,1.82,1.42,2.11,2.73.88,4-.67,7.08-3.26,10-10.44,11.64-20.94,23.24-31.13,35.1-3,3.45-6.34,4.34-10.51,4.49-5.89.21-11.55-1.25-17.9-3,1.35,6.28,2.54,11.39,3.53,16.54,1.16,6.08.41,11.28-3.89,16.63A204.88,204.88,0,0,0,177,629.79a13,13,0,0,1-8.77,7.41c-5.84,1.63-11.68,3.23-18.56,3.29,3.5,5.82,6.51,10.14,9,14.8a21.84,21.84,0,0,1,1.91,17.95c-3.14,10.86-5.23,22.15-4.74,33.51.57,13.08-4.7,22.2-16.2,28.06-.77.4-1.24,1.4-2,2.26,3.86,2.37,7.46,4.77,11.22,6.87,6.56,3.66,9.83,9,11.23,16.54,1.81,9.78,4.12,19.75,8.14,28.78,4.86,11,2.19,19.09-5.63,26.77a2.57,2.57,0,0,0-.75,3c2.63.7,5.42,1.58,8.26,2.19,8.05,1.74,13.43,5.82,16.26,14.17a46.67,46.67,0,0,0,10.83,17.8c3.64,3.69,9.6,2.66,9.55-2.06-.07-6.67,5.05-10.61,6.76-16.81-11.12.72-17-4.5-19.74-14.67-1.7-6.4-5.1-12.32-7.12-18.65-2.13-6.67-3.85-10.39-4.62-13.16.88,16.72,9.93,40.62,19.32,46.33,1.14.69-.24-.25.88.47,2.28,1.44,6.87,1.44,5,5.79-1.51,3.47-1,8.81-5.53,9.9-3.75.89-5.39-3.2-7.35-5.8a22.16,22.16,0,0,1-3-5.16c-4.48-11.51-11.46-20.24-27-21.89,12.73-11.33,9-22.67,4.55-34.25A97.07,97.07,0,0,1,163.44,764c-1.7-10.55-5.76-19-15.77-23.89-4.11-2-4.45-4.71-.47-7.37,9.17-6.13,10.79-15.76,11.12-25.51a136.41,136.41,0,0,1,3.78-28.67c2.67-10.59,2.53-20.4-4-29.56-3.08-4.33-1.66-6.25,3.27-7.4,7.49-1.74,14.79-3.84,18.62-11.85a185.15,185.15,0,0,1,21.17-33.84c6.11-7.84,9-16.22,6-26.09-1.71-5.65,0-8.18,6.26-7.19,6.78,1.06,13.68.79,18.68-4.58,10.89-11.69,21.24-23.88,31.61-36,3.11-3.64,5.25-9,1.28-12.75-5-4.73-6.77-10.44-8.32-16.57a13.32,13.32,0,0,0-6.34-8.64c-14.59-8.34-27.19-19.09-39-31-6.23-6.26-10.6-5.5-15.32,1.89-3.76,5.89-6.77,12.28-11.05,17.83-6.51,8.45-9.28,17.64-6.37,28.1,1.65,5.95-.59,7.24-6,5.69-9.33-2.69-16.55.42-23.35,7.22A161.63,161.63,0,0,1,123,535.31c-8.14,5.26-13.6,11.62-13.54,21.73,0,4.24-1.35,6.72-5.94,4-8.6-5.18-16.57-2.91-24.5,1.68-4.61,2.67-9.1,5.55-14.16,7.39-9.7,3.54-18.19,8.48-20.72,19.9-15.71-10.38-29.7,0-44.18,2A65.85,65.85,0,0,0,25.56,588.44Z"/><path class="cls-2" d="M2021.52,780.85c1.69-5.72,1.7-11.84,1-17.86-.44-3.73-2.77-5-5.36-2.66-3.23,2.85-7.3,4.15-11.28,6.76,7.19,6.08,6.57,12.84,3.37,20.18-2.66,6.09-4.65,12.48-7.14,18.65-6.18,15.32-8.3,16.69-25.09,16.9-.82,0-2-.83-2.46,1.43,1.54,2.3,3.83,4.79,5,7.72,2.45,6,6.27,11.7,2.16,18.82-7.49,13-14.78,26.08-22.86,38.72-2.83,4.43-6.45,6.46-11.51,6.5-5.23,0-10.47.21-17.87-2.4,5.13,7.28,6.17,13.5,7.68,19.56a12.16,12.16,0,0,1-2.24,11.24c-9.73,12.26-19.35,24.6-29,36.93-2.67,3.42-6.07,4.57-10.42,4.64-5.82.09-11.27-2-17.17-3.11,1.18,4.84,2.18,8.71,3.07,12.59,1.84,8,.51,14.7-6.07,20.66a283.83,283.83,0,0,0-26,26.32c-6.54,7.69-13.7,8.39-22.24,5.42-2.81-1-5.54-2.19-10-4a60.65,60.65,0,0,1,2.53,20.25,11.54,11.54,0,0,1-4.49,9.53q-18.43,14.53-36.76,29.18c-3.46,2.78-7,3-11.2,2-5.85-1.31-10.47-5.13-16.55-7.73a72.16,72.16,0,0,1-.64,19.64c-.61,3.94-2.13,6.9-5.6,8.87-9.27,5.26-18.58,10.44-27.74,15.89-4.42,2.63-6.94.27-8.85-3-1.12-1.94-1.29-4.44-1.78-6.71-2.46-11.38-4.05-23-7.58-34.08-3.46-10.86.39-17.9,8.5-24.06,1.24-.94,3-1.39,3.47-3.41-2.68-2.78-6.7-2.48-10-4-6.95-3.3-12.26-7.13-13.31-15.73-.84-6.88-3.45-13.53-5.14-20.31-4.41-17.71-4.38-17.72,7.08-31.2-1.76-.4-3.27-.74-4.77-1.1-8.21-2-14.55-5.69-16.84-14.8-1.19-4.75-4-9.15-6.26-13.57-1-1.9-1.41-5.39-4.26-4.69-2.23.55-5.36,1.81-5.55,5-.32,5.22-5,8.36-6.49,13.54,8.41-.16,12.66,3.83,14,11.61.93,5.22,2.83,10.26,4.13,15.42,4.67,18.42,4.65,18.43-6.72,32.88,1.56.59,3.06,1.24,4.62,1.74,8,2.56,12.57,7.36,13.87,16.24a351.73,351.73,0,0,0,7.75,36.1c1.15,4.47.44,7.78-2.42,11-3.24,3.61-6.54,7.17-9.94,10.89,20.34,7.75,19.91,9.34,20.87,28-6-.23-8.61-6.55-14.05-8.69-.56,4.36-.44,8.15-1.6,11.49-2.12,6.1-3.13,12.87-10.81,15.65-14.1,5.1-28.24,10-42.56,14.48-4.16,1.29-7.44.76-11.18-1.66-4.94-3.2-8.35-8-13.1-12-1.87,4.55-3.47,8.52-5.14,12.46-3.09,7.28-8.19,11.47-16.42,12.4-11.9,1.35-23.9,2.71-35.49,5.56-10,2.44-15.91-1.64-21.09-8.86-1.74-2.42-3.15-5.07-5-8.06l-10.14,15c-3,4.41-6.73,6.46-12.45,6.67-14,.52-28,0-42,.69-6.64.31-10.28-2.67-14-7.45-2.94-3.8-3.15-9.14-7.16-12.71a83.34,83.34,0,0,1-10.44,12.83c-3.81,3.95-7.66,5.74-13.25,4.66-9.13-1.77-18.5-2.4-27.54-4.5-22-5.11-20.16.86-27.49-25.37-3.82,2.88-7.52,5.52-11.06,8.37-4.88,3.94-9.86,4.64-15.75,2a234.76,234.76,0,0,0-23.23-9.11c-13.85-4.49-23.05-11.9-19-29l-11.93,5.69c-5.81,2.79-11.11,3-16.75-1.18a160.63,160.63,0,0,0-21.15-13.26c-10.62-5.51-15-13.33-11.61-25.08.12-.43-.57-1.1-1-1.81l-6.6,2.16c-6.78,2.2-12.59,1.95-17.82-4.2a144.63,144.63,0,0,0-17.25-16.62c-7.51-6.32-9.55-13.21-4.23-21.8.46-.74.53-1.73,1.1-3.68-13.66,3.52-21.17-2.77-25.24-14.61-.75-2.19-1.94-4.23-2.87-6.37-6.4-14.79-6.39-14.79,2.56-27.69-11.87-1.23-16.29-9.16-18.12-19.44a38.33,38.33,0,0,0-2.41-7.61c-3-7.42-3.56-14.23,5.27-19.4-10-4-11.2-11.33-10.1-19.85.51-4,.46-8,.71-12,.08-1.33.44-2.65.43-4s.92-3.17-1.22-4c-6.15,13.27-6.15,13.27-12.83,18.06,4.1,4.28,5.61,9,5.12,15.3-.5,6.45-.29,13.37,1.94,19.73,1.52,4.35.29,7.74-2.28,11.11-1.12,1.47-3.37,2.43-2.47,5.43,8.75,1.39,11.9,7.89,13.38,16a107,107,0,0,0,2.94,10.59c4.55,15.54,4.56,15.54-1.75,28.8,1,1.61,2.84,1.49,4.38,1.83,6.64,1.47,11,5.19,14,11.48a73.23,73.23,0,0,0,14.71,21.26c7.43,7.2,9,14.92,6.43,24.3-.11.39.64,1,1.13,1.76,9.69-3,17.81-1,25,6.93a81.75,81.75,0,0,0,17,13.87c9.79,6.18,15.83,13.86,14.31,26-.1.81.52,1.21,2.45,1,.45-.19,2-.81,3.48-1.46,7.21-3.12,13.66-2.89,20.64,1.85a144.21,144.21,0,0,0,27.13,14.83c10.78,4.3,15.46,11.65,16,22.58a2,2,0,0,0,1.85,2.26c1.66-1,3.59-2.28,5.57-3.46,6.87-4.11,13.54-5.68,21.57-1.94a134.05,134.05,0,0,0,34.27,10.68c10.26,1.73,15.76,7.59,19.17,16.56.7,1.84,1.45,3.67,2.3,5.82,4.65-3.85,8.93-7.47,13.3-11,2.67-2.15,5.62-3.47,9.23-2.86a270.69,270.69,0,0,0,50.64,3.5c3.63-.07,6.15,1.22,8.74,3.69,4.29,4.09,7.08,9.29,11.21,14.91,2.31-5.58,5.53-9.33,8.75-13.11a16.75,16.75,0,0,1,13-6.29A466.64,466.64,0,0,0,1541,1193c4.23-.58,7.83-.11,10.85,3.29,3.48,3.91,7.22,7.57,11.19,11.7,1.61-3.27,2.8-5.64,3.95-8,4-8.27,9.66-13.39,19.51-14.6a136.72,136.72,0,0,0,30.08-7.11c14.05-5.14,26.51-5.94,36.69,8.21,2.25-6.11,3.88-11.12,5.94-15.94,1.15-2.69,2.22-5.85,5.21-7.1,10.23-4.3,20.54-8.42,30.27-12.37,7.24,15.75-3.11,22.64-14,29.35,4,2.39,7.3,4.34,10.58,6.35,6.15,3.77,9.23,8.78,8.64,16.48-.71,9.26-.17,18.59-1.16,27.9-2.47,23.26,3.44,20.76-20.61,31.93,1.16,3,4.12,4.25,6.18,6.33,5.76,5.82,8.6,11.79,6.17,20.51-3.85,13.79-7.63,27.58-11.81,41.28-1.58,5.18-4.66,7.49-9.28,9.31s-9.66,1.26-14.63,3.22c2.33,3.34,4.22,6,6.06,8.7,4.42,6.49,5.46,12.81,1.55,20.38-6.72,13-12.6,26.44-18.56,39.81-2.12,4.76-5.36,6.84-10.37,8.09-4.79,1.19-9.78.19-15.55,1.95,4.48,4.77,6.24,10.09,8,15.4a11.6,11.6,0,0,1-1.13,10.42c-8.29,13.67-16.46,27.37-26.92,39.6-2.5,2.92-4.85,3.71-8.49,3.46-5.23-.36-9.92-2.7-15.59-4.39.41,2.37.62,3.63.85,4.87,2.62,14.06,1.58,16.48-10.22,23.74-2.55,1.57-5.12,3.12-7.74,4.57-1.42.78-2.78,1.67-4.65,1.35-7.87-1.35-15.85-10.13-17.22-18.12-.75-4.35,1.39-9-.77-13.4-3.65,1.82-6.52,3.43-9.52,4.7-6.79,2.88-12.9,3.07-19.44-2-11.6-8.93-23.81-17.08-36-25.18-5.09-3.37-6.49-7.79-6.85-13.44-.29-4.49,2.15-8.82.8-13.56-2.9,1.2-5.32,2.32-7.82,3.22-8.4,3-15.72,2.68-22.86-4.16a230.89,230.89,0,0,0-27.77-22.77c-8.57-6-9.84-13.43-8-22.52.32-1.56,1.56-3,.06-5.15a70.43,70.43,0,0,1-7.13,2.2c-7.39,1.5-14.08,1.54-20-5a135.47,135.47,0,0,0-19.35-17.22c-7.72-5.77-12-12.21-8.42-22,.11-.31-.71-.95-1.46-1.89-9.62,5.68-16.75.88-23.29-6.19a46.47,46.47,0,0,0-6.51-6.2c-6.12-4.45-10.7-9.57-8.91-17.82-4.64.1-8.73,1.39-12.1-1.92-1.6-1.58-3-.57-4.24.69-1.43,1.45-1.18,2.92,0,4.39,2.93,3.62,5.53,7.57,8.83,10.81,5.38,5.26,7.09,10.91,3.68,17.84a2.19,2.19,0,0,0,.53,2.92,35.37,35.37,0,0,0,3.57-.36c6.82-1.31,12,.78,16.52,6.3a86.06,86.06,0,0,0,14.07,14.17c8.41,6.45,8.78,14.09,5.46,23-.48,1.29-2.11,2.59-.44,4.86,4.83-2,10.1-2.13,15.37-2.4a11.06,11.06,0,0,1,8.89,3.44c10,9.73,20.19,19.37,30.56,28.75,2.76,2.5,3.69,5,3.88,8.6.37,6.57-1.25,12.87-3.27,19.82,7.38-2.16,13.34-4,19.7-4.71,4.75-.51,8.15.82,11.73,3.66,11.47,9.11,23,18.23,34.86,26.77,4.89,3.5,6.78,7.41,7.17,13.24s-1.25,11.06-1.43,17.58a65.35,65.35,0,0,1,16.29-6.25c3.52-.77,7.28-3,10.67-1.14,5.8,3.23,11.19,7.2,16.71,10.93a2.58,2.58,0,0,1,.82,1.64c1.23,8.14-8.88,18.78-17.11,17.78-11.55-1.4-22.8-4.52-34.22-6.49-12.39-2.14-20-7.92-21.37-20.76-.06-.54-.79-1-1.36-1.69-3.39,2.55-6.75,5.15-10.2,7.64-3.74,2.7-7.53,3.09-12.15,1.57-12.46-4.11-12.53-3.87-19.21,10.21,9.58-4.35,15.82,1.23,22.82,4.77,7.72,3.9,15.42,8.59,23.69,10.44,11.9,2.67,15.56,11.27,19,20.78.85,2.31,0,5.14,2.22,8a89.89,89.89,0,0,1,15.39-14.56,14.77,14.77,0,0,1,12.08-2.85c15.76,2.88,31.17.87,46.39-3.56,2.17-.63,4.25-2.05,6.68-1.11,2.61,4.17-.36,8.81.83,13.51,7.68-3.81,14.56-12.21,22.55-1.94,2.33-2.5.52-5.92,3.91-7.86,15.57,8.05,31.76,15.74,48.25,22.76,3.53,1.5,4.7,4.49,5.88,7.61,2.28,6,2.73,12.45,2.71,20.5a72.93,72.93,0,0,1,19-12.76c2.73-1.35,5.51-2.29,8.63-1.09,15,5.78,30.58,9.3,46.14,12.91,5.94,1.38,7.84,5,8.75,10.48.81,5-1.24,9.8,0,15.16,11.68-8.05,22.92-11.57,37.18-4.94,11.54,5.36,24,2.77,33.76-7.19-2.24-3.18-3.67-7.58-6.11-8.23-7.6-2-10.42-8.61-15.14-14.38a42.21,42.21,0,0,1-.82,5.82c-2.36,7.73-5,8.91-12.32,5.38-3.59-1.73-7.06-3.74-10.52-5.73-9.85-5.65-19.84-11.39-31.07-13.31-7.22-1.23-9.92-5.76-12.68-11.18-1.73-3.4-.79-7.8-4.05-11.18-1.58,1.84-2.77,3.43-4.16,4.82-6.61,6.67-13.59,9.52-23.24,5.26a343.15,343.15,0,0,0-33.46-13c-11.57-3.72-15.45-11.31-16-22.17-.07-1.55.42-3.27-.95-4.56-20.5,11.1-23.28,11.05-36.53-.67,1.68-2.65,4.61-3.7,7-5.31,11.46-7.57,22.45-15.9,30.62-26.93,6.88-9.3,15.62-10.05,25.55-8.79,2.43.31,4.8,2,7.66.07-3.69-6.13-5.74-12.78-7.26-19.59a14.67,14.67,0,0,1,1.6-11.45,451.77,451.77,0,0,0,22.07-41.41c2.22-4.75,5.71-7,10.53-8.13,5.67-1.36,11.46-1.08,17.91-1.09-3.71-5.84-7-10.82-9.25-16.4s-2.68-10.28,0-16.09c5.38-11.79,10.85-23.78,14-36.25,2.91-11.34,9.94-15.72,20-17.82,2.73-.57,5.5-.91,8.88-1.46-4.43-5.88-9.14-10.53-12.36-16.37-2.53-4.59-3.42-8.67-2.12-14.07,3.18-13.25,6.09-26.7,6.45-40.35.28-10.57,6.1-16.21,14.5-20.43,2.55-1.28,5.31-2.15,8-3.21-.73-3.27-3.59-4.11-5.63-5.59-9.24-6.74-15.71-14.28-14.8-27.14.94-13.25-1.24-26.59-3.26-39.74-1-6.63,3.28-10,6.88-13.45,3.1-3,6.77.67,10.11,1.69s5.64,4.74,9.84,4.29c.65-5,.68-10,2.15-14.86,1.3-4.28,3.16-7.69,7.32-10.15a431.42,431.42,0,0,0,41.48-27.81,13.53,13.53,0,0,1,11.05-2.75c5.18.73,9.79,3.49,15.42,4-.2-2.45-.34-4.38-.51-6.31-.85-9.87,1.51-17.65,10.32-24.1a172.53,172.53,0,0,0,27.93-25.58c7.05-8.08,14.67-9.15,24-7.25,2.09.42,4,2.48,7.06.57a53,53,0,0,1-2.16-16.33,13.09,13.09,0,0,1,3.89-9.76c11.73-12.25,23-24.89,33.6-38.18,2.73-3.44,5.82-5.05,10.26-4.77,4.83.31,9.7.07,15,.07-.9-2.88-1.74-5.38-2.47-7.91-2.34-8.11-1.54-15.19,4.09-22.32,8.24-10.44,16.19-21.32,22.59-32.93,5.33-9.66,12.92-12.43,22.74-12.67,1.81,0,3.92,1.19,5.49-.9,0-3.2-2.5-5.34-3.64-8.06-3.11-7.42-3.84-14.18.64-21.78a157.56,157.56,0,0,0,15.36-36.8c2.07-7.23,5.9-11.53,12.84-13.71,1.69-.53,4.07-.11,4.93-2.36-.11-1.92-1.48-3-2.55-4.22C2021.69,794.5,2019.25,788.55,2021.52,780.85Zm-509.17,737.58c4.05,2.48,7.35,4.33,10.46,6.45,2.94,2,6.66,3,8.67,6.31C1522.19,1535.12,1518,1532.5,1512.35,1518.44Z"/><path class="cls-2" d="M1150.22,954.09c.9,4.88,2.7,9.62,4.36,14.33,6.12,17.38,6.16,17.36-1.42,32.21.77,1.45,2.22,1,3.4,1.14,8.52,1.15,14.43,5.19,18.35,13.31a74.84,74.84,0,0,0,20,25.94c7.45,6,10.7,13.11,10.79,22.23,0,1.62-.29,3.34,1.12,5,3.29-1.21,6.71-2.42,10.1-3.74,5.11-2,9.81-2.45,15.25.15,8.4,4,17.64,5.94,26.7,8.14,6.13,1.49,12.82,1.68,18.35,4.34,6.07,2.93,7.22,10.79,11.48,16.2,3.91-4.14,7.21-8.3,11.6-11.38,2.26-1.59,4.33-2.64,7.29-2.36a131.23,131.23,0,0,0,36.77-1.55c12.25-2.31,21.4,1,28.3,11.19.26.39,1.17.33,1.78.48a7.75,7.75,0,0,0,1.14-1.39c.29-.58.31-1.3.56-1.91,3.86-9.62,10.15-15.44,21.07-17.31a169.69,169.69,0,0,0,34.53-9.74c9.2-3.71,16-1.22,22.91,4,1.57,1.18,2.66,3,5.1,3.52,2.31-2.45,1.71-5,2.24-7.19,2.25-9.33,6.89-15.75,16.62-19.22,9.32-3.33,17.95-8.71,26.72-13.48,18.49-10.05,18.45-10.13,37.77-2.22.19-4.06.35-8,.56-11.92.37-7,3.06-12.3,9.31-16.48a178.36,178.36,0,0,0,32.11-26.89c7.59-8.22,16.22-9.2,26.16-6.82,1.5.36,3,1.59,4.77-.24-.55-2.37-1.17-4.91-1.72-7.46-1.93-8.94-.52-16.6,6-23.83,9.86-10.86,17.67-23.39,25-36.09,3-5.17,6.85-7.91,12.43-8.73,4.4-.65,8.83-1.1,13.49-1.67-1.9-4.07-3.39-7.38-5-10.63-3.27-6.69-3.26-12.88.29-19.88,5.56-11,11-22.25,13.72-34.24,3.08-13.74,11.48-20.13,24.48-22.16.82-.13,1.17-.63,1-2.12-1.57-2.09-3.51-4.71-5.5-7.3-4.75-6.19-6.07-12.57-3.64-20.43,3.64-11.75,7.42-23.74,8.6-35.88,1.31-13.56,8.76-19.82,20.27-23.62.52-.17.86-.87,1.48-1.54-1.33-1-2.68-2-3.92-3.09-7.18-6.31-11.13-13.5-9.05-23.73a152.66,152.66,0,0,0,2.48-25.76c.33-11,1.49-21.24,14.76-24.84-1.49-1.33-2.18-2.06-3-2.64-6.76-4.8-10.07-10.87-8.81-19.55.8-5.55.13-11.31.17-17a82.66,82.66,0,0,1,.25-9c.34-3,4.3-3.93,4.67-6.95-2.21-3.22-6.42-4.39-7-8.55a2.28,2.28,0,0,0-2.78-2.11c-2.15.27-2.27,2.05-2.33,3.73-.13,3.66-.59,7.35-.27,11,.73,8.55-3.08,13.85-10.89,16.74-.4.15-.5,1.11-.94,2.18,8.27,4.91,9.67,12.43,7.67,21.42a68,68,0,0,0-1.86,15.83c.21,12-5.19,19.44-16.75,22.51-.91.24-1.72.86-4.44,2.27,3.48,2.73,6.54,4.73,9.09,7.23,4.8,4.69,6.69,10,5,17.12-2.9,12-5.08,24.11-6.92,36.28-1.14,7.56-5.14,11.94-12,14.29l-11.83,4.07c3.48,4.5,6.41,8.52,9.6,12.33,4.24,5.08,4.56,10.17,2.64,16.63-3.9,13.09-8.27,26-12,39.16-1.81,6.3-5.47,9.65-11.48,11-4.62,1-9.28,1.83-14.38,2.83,4.11,6,7.52,11.25,9.8,17.23a11.23,11.23,0,0,1-.07,9.44c-6.35,14.35-13.95,28-21.79,41.57-2.25,3.9-5.22,5.49-9.57,6-5.48.66-10.93-.81-16.57-.5,1.78,6.14,3.39,11.53,4.89,17,1.12,4.07.67,7.82-2.18,11.25A387.65,387.65,0,0,1,1576,955.94c-3.8,3.61-7.62,4.47-12.63,3.51s-9.62-3.46-15.11-5.36c.56,3.88,1.14,6.8,1.38,9.74.75,9-.74,16.57-9.53,22.16-11.23,7.14-22.2,14.73-33.47,21.85-4.44,2.8-8.37,2.81-13.16,1s-8.36-5.95-13.39-8.14c-1,5.57-1.82,10.47-2.79,15.33-1.25,6.28-4.66,10.26-10.91,12.86-12.3,5.12-24.65,10.07-37,15.06-5.81,2.35-10,1-14.66-2.5-3.54-2.67-5.69-7-9.83-8.91-1.76,4.62-3.36,8.64-4.82,12.71-2.34,6.53-6.6,10.26-13.76,11.26-7.89,1.1-15.59,3.63-23.49,4.67-22.28,2.92-17.79,7.37-33.06-12.78-2.47,3.58-5,7-7.22,10.54-3.37,5.35-8,7.55-14.31,6.78-7.92-1-15.93-1.24-23.83-2.33-18.45-2.55-18.43-2.67-24.12-20.56-.08-.26-.51-.41-.92-.73-2.76,2.26-5.62,4.46-8.33,6.85-5.05,4.46-10.11,5-16.38,1.91-7.51-3.67-14.9-7.41-21.65-12.35-12-8.8-12.54-10.91-6.32-24.89a6.55,6.55,0,0,0,0-2.14c-3,.14-5.95.23-8.9.42-6.59.43-11.58-1.52-14.36-8.18s-6.42-13.17-9.41-19.86c-7-15.72-7-15.75,3.18-29.1-18.88-5.65-20.35-7.6-20.91-28-.12-4.33-.12-8.67-.15-13,0-3.94,0-7.88,0-11.82-4.4,5.41-3.58,11.7-5.9,17.24-2.49,5.94-9.21,7.1-13.36,12.25C1145.74,936.75,1148.55,945,1150.22,954.09Z"/><path class="cls-2" d="M715.29,296c7.51.87,9.62-1.49,9-8.94h0c-1.94-6.05-.58-11.55,2.24-17.09a95,95,0,0,0,10.27-34.28c.81-8.92,5.48-13.83,12.11-18,3-1.87,6.26-3.22,9.6-4.9-4.27-3.4-8.4-6.71-12.55-10a20.67,20.67,0,0,1-8.41-16,120.65,120.65,0,0,0-7.31-35.08c-4-10.4-.58-17.9,5.58-25.5,1.14-1.4,3.69-2,3-5.37-4-.26-8-1.64-12.09-2.77a20.92,20.92,0,0,1-14.46-12.4A129.58,129.58,0,0,0,693.87,76c-5.55-6.63-5.51-12.94-2.52-20.13.88-2.12,1.7-4.25,2.86-7.14-4.26.34-7.84.56-11.4.93-6.64.69-12.09-.69-16.93-6.08-5.07-5.65-11.16-10.5-17.24-15.1-4.77-3.61-9.44-1.16-9,4.84s-.55,11.77-1.9,18.62c2.46-.56,4-.84,5.47-1.25,7.2-2,12.69-.24,17.28,6.16a163.85,163.85,0,0,0,16.73,19.78c8.41,8.48,9,17.12,2.55,26.76-.3.44,0,1.25,0,2.22,2,.1,4,.26,5.94.29,8.21.12,13.53,3.76,16.54,11.72,3.29,8.71,6.54,17.5,10.32,26,5.36,12,3.54,21-7.11,28.48-.35.25-.32,1-.46,1.55,3.88,2,7.76,3.87,11.53,5.94a11.28,11.28,0,0,1,6.12,9.65c.9,11.93.72,23.82.44,35.79-.29,12.61-6.12,18-17.27,20.11-.41.08-.67,1-1.58,2.38a23.16,23.16,0,0,1,3.86,2.81c5.64,6.09,7.7,12.52,4,20.87-3.41,7.61-7,15.07-10.91,22.41-2.54,4.76-6.26,6.29-12.19,4.91,3.35,8.66-2.89,12.33-7.13,17.07,11.66-2.77,21.54-7.69,28.22-17.62A5.35,5.35,0,0,1,715.29,296Z"/><path class="cls-2" d="M717.61,297.08a19,19,0,0,0,2.1,0A9.07,9.07,0,0,0,717.61,297.08Z"/><path class="cls-4" d="M710,298c2.52.38,5.08-.62,7.6-.88l-.85-.05C714.52,296.82,712.09,296.46,710,298Z"/><path class="cls-4" d="M815.38,135.84a91,91,0,0,0-3.82-25.53c-3.57-11.14-1.87-20,6.78-27.7.3-.27,0-1.17,0-1.79-1.34-.35-2.61-.76-3.91-1C805.81,78,799.3,74,796.14,65c-1.74-4.94-5.08-9.32-7.81-13.89-1-1.66-2.11-3.74-4.57-2.85-1.75.63-4.2,1.24-4,3.7.37,5.25-4.12,8.67-5.36,14,9.85.09,13.69,6.15,15.9,14.16A145.72,145.72,0,0,0,796,98.19c4.26,10.11,2.09,18-6.91,24-.7.48-.89,1,0,2.43,2.35,1.49,5.43,3.38,8.44,5.4s4.76,4.28,4.63,8.18c-.31,9.3-.08,18.6-.74,27.92-.9,12.54-4.62,22.12-19.12,22.08-.45,3.59,1.76,5,3.14,6.73,5,6.07,5.85,11.89,1.63,19.09-4.69,8-8.93,16.32-13.45,24.46s-10.27,12.72-20,10.66c-.33-.07-.84.77-1.82,1.72,6.6,9,2.56,16.56-4.06,23.67-3.4,3.65-6.61,7.47-10.05,11.08-5.5,5.76-5.55,5.71-13.44,1.46,2.56,6.44,1,9.69-4.57,10a6.39,6.39,0,0,1,2.63.94c.62,2.61-3.49,2.83-2.37,5.7,7.46-1.4,13.72-5.19,19.59-9.48a12.82,12.82,0,0,1,10.23-2.36c2.09.31,4.19,2.45,7.13-.2-2.19-8.91,1.7-15.93,8.69-22.08a46,46,0,0,0,10.14-12.25c6.15-11.41,15.56-14.57,27.58-12.74.49.07,1.08-.52,1.82-.91-1.25-3.37-2.42-6.8-3.79-10.15-2.64-6.46-2.7-12.48.64-19,4.4-8.58,8.33-17.79,9.16-27.32,1.18-13.57,8.38-20.92,20.42-25,.44-.15.69-.88,1-1.34-3.23-2.92-6.34-5.91-9.65-8.68C817.81,147.94,815.53,142.87,815.38,135.84Z"/><path class="cls-4" d="M724.29,287.1h0c.63,7.45-1.49,9.81-9,8.94A5.35,5.35,0,0,0,710,298c2.08-1.5,4.51-1.13,6.75-.93l.85.05a9.07,9.07,0,0,1,2.1,0C725.31,296.79,726.84,293.54,724.29,287.1Z"/></g></g></svg>